<svg height="300" viewBox="0 -31 487.756 487" width="300" xmlns="http://www.w3.org/2000/svg" version="1.1" xmlns:xlink="http://www.w3.org/1999/xlink" xmlns:svgjs="http://svgjs.dev/svgjs"><g transform="matrix(1,0,0,1,0,0)"><g fill="#263238"><path d="m396.617188 403.058594c-1.023438 0-2.046876-.394532-2.832032-1.167969-1.558594-1.5625-1.558594-4.097656 0-5.65625l5.65625-5.664063c1.5625-1.558593 4.097656-1.558593 5.664063 0 1.570312 1.558594 1.558593 4.09375 0 5.65625l-5.65625 5.664063c-.785157.773437-1.808594 1.167969-2.832031 1.167969zm0 0" fill="#3e2807" fill-opacity="1" data-original-color="#263238ff" stroke="none" stroke-opacity="1"/><path d="m243.882812 424.378906c-116.898437 0-212-95.105468-212-212 0-116.898437 95.101563-212 212-212 116.894532 0 212 95.101563 212 212 0 116.894532-95.105468 212-212 212zm0-416c-112.488281 0-204 91.511719-204 204 0 112.488282 91.511719 204 204 204 112.488282 0 204-91.511718 204-204 0-112.488281-91.511718-204-204-204zm0 384c-99.257812 0-180-80.753906-180-180 0-99.25 80.742188-180 180-180 99.253907 0 180 80.75 180 180 0 99.246094-80.746093 180-180 180zm0-352c-94.839843 0-172 77.160156-172 172s77.160157 172 172 172c94.839844 0 172-77.160156 172-172s-77.160156-172-172-172zm0 0" fill="#3e2807" fill-opacity="1" data-original-color="#263238ff" stroke="none" stroke-opacity="1"/><path d="m74.179688 386.082031c-1.027344 0-2.050782-.390625-2.832032-1.167969-95.128906-95.136718-95.128906-249.929687 0-345.0625 1.558594-1.5625 4.09375-1.5625 5.65625 0 1.558594 1.558594 1.558594 4.09375 0 5.65625-92.011718 92.015626-92.011718 241.734376 0 333.75 1.558594 1.558594 1.558594 4.097657 0 5.65625-.785156.777344-1.800781 1.167969-2.824218 1.167969zm0 0" fill="#3e2807" fill-opacity="1" data-original-color="#263238ff" stroke="none" stroke-opacity="1"/><path d="m85.488281 35.363281c-1.023437 0-2.046875-.394531-2.832031-1.167969-1.558594-1.5625-1.558594-4.097656 0-5.65625l5.65625-5.664062c1.5625-1.5625 4.097656-1.5625 5.664062 0 1.570313 1.558594 1.5625 4.09375 0 5.65625l-5.65625 5.664062c-.773437.773438-1.804687 1.167969-2.832031 1.167969zm0 0" fill="#3e2807" fill-opacity="1" data-original-color="#263238ff" stroke="none" stroke-opacity="1"/><path d="m413.585938 386.082031c-1.023438 0-2.046876-.390625-2.832032-1.167969-1.558594-1.558593-1.558594-4.097656 0-5.65625 92.007813-92.015624 92.007813-241.734374 0-333.75-1.558594-1.5625-1.558594-4.097656 0-5.65625 1.558594-1.5625 4.097656-1.5625 5.65625 0 95.128906 95.132813 95.128906 249.925782 0 345.0625-.777344.777344-1.800781 1.167969-2.824218 1.167969zm0 0" fill="#3e2807" fill-opacity="1" data-original-color="#263238ff" stroke="none" stroke-opacity="1"/></g><path d="m281.929688 208.121094c3.746093-5.679688 5.960937-12.457032 5.960937-19.75 0-19.847656-16.152344-36-36-36h-32c-6.632813 0-12 5.375-12 12v96c0 6.621094 5.367187 12 12 12h40c19.847656 0 36-16.152344 36-36-.007813-11.511719-5.527344-21.65625-13.960937-28.25zm-50.046876-31.75h20c6.613282 0 12 5.382812 12 12 0 6.613281-5.386718 12-12 12h-20zm28 72h-28v-24h28c6.613282 0 12 5.382812 12 12 0 6.613281-5.386718 12-12 12zm0 0" fill="#e3a547" fill-opacity="1" data-original-color="#40c4ffff" stroke="none" stroke-opacity="1"/><path d="m259.882812 276.371094h-40c-8.824218 0-16-7.175782-16-16v-96c0-8.824219 7.175782-16 16-16h32c22.054688 0 40 17.941406 40 40 0 6.605468-1.648437 13.078125-4.792968 18.894531 8.175781 7.601563 12.792968 18.015625 12.792968 29.105469 0 22.054687-17.945312 40-40 40zm-40-120c-4.410156 0-8 3.582031-8 8v96c0 4.414062 3.589844 8 8 8h40c17.648438 0 32-14.351563 32-32 0-9.777344-4.527343-18.921875-12.425781-25.105469-1.640625-1.28125-2.023437-3.609375-.871093-5.351563 3.464843-5.257812 5.296874-11.328124 5.296874-17.542968 0-17.648438-14.351562-32-32-32zm40 96h-28c-2.207031 0-4-1.792969-4-4v-24c0-2.210938 1.792969-4 4-4h28c8.824219 0 16 7.175781 16 16 0 8.824218-7.167968 16-16 16zm-24-8h24c4.40625 0 8-3.585938 8-8 0-4.417969-3.59375-8-8-8h-24zm16-40h-20c-2.207031 0-4-1.792969-4-4v-24c0-2.210938 1.792969-4 4-4h20c8.824219 0 16 7.175781 16 16 0 8.824218-7.167968 16-16 16zm-16-8h16c4.40625 0 8-3.585938 8-8 0-4.417969-3.59375-8-8-8h-16zm0 0" fill="#3e2807" fill-opacity="1" data-original-color="#263238ff" stroke="none" stroke-opacity="1"/><path d="m195.042969 255.953125-38-96c-1.808594-4.574219-6.234375-7.582031-11.160157-7.582031-4.929687 0-9.34375 3.007812-11.160156 7.582031l-38 96c-2.441406 6.160156.574219 13.136719 6.734375 15.570313 6.175781 2.46875 13.136719-.570313 15.578125-6.746094l6.511719-16.449219c.109375 0 .214844.035156.335937.035156h40c.109376 0 .214844-.035156.335938-.035156l6.511719 16.449219c1.863281 4.71875 6.382812 7.585937 11.160156 7.585937 1.472656 0 2.96875-.265625 4.414063-.839843 6.152343-2.433594 9.175781-9.410157 6.738281-15.570313zm-60.007813-31.582031 10.847656-27.402344 10.847657 27.402344zm0 0" fill="#e3a547" fill-opacity="1" data-original-color="#40c4ffff" stroke="none" stroke-opacity="1"/><path d="m107.90625 276.394531c-2 0-4.007812-.382812-5.929688-1.160156-3.957031-1.558594-7.078124-4.59375-8.78125-8.511719-1.707031-3.921875-1.769531-8.265625-.191406-12.242187l38-95.992188c2.421875-6.148437 8.261719-10.117187 14.871094-10.117187 6.605469 0 12.445312 3.96875 14.871094 10.117187l38 96v-.007812c1.574218 3.976562 1.503906 8.320312-.191406 12.242187-1.695313 3.917969-4.824219 6.953125-8.792969 8.519532-1.863281.742187-3.847657 1.128906-5.886719 1.128906-6.617188 0-12.457031-3.96875-14.882812-10.121094l-5.511719-13.910156-35.238281.03125-5.503907 13.878906c-1.578125 3.992188-4.609375 7.136719-8.542969 8.832031-2 .871094-4.144531 1.3125-6.289062 1.3125zm37.976562-120.023437c-3.304687 0-6.226562 1.984375-7.441406 5.054687l-38 96c-.785156 1.992188-.75 4.167969.097656 6.128907.847657 1.960937 2.40625 3.472656 4.390626 4.253906 1.992187.792968 4.160156.769531 6.113281-.070313 1.96875-.847656 3.480469-2.425781 4.269531-4.425781l6.511719-16.445312c.609375-1.527344 2.082031-2.527344 3.722656-2.527344l40.335937.03125c1.640626 0 3.445313.96875 4.046876 2.496094l6.511718 16.445312c1.585938 4.015625 6.410156 6.089844 10.375 4.496094 2-.789063 3.554688-2.292969 4.402344-4.253906.847656-1.960938.878906-4.136719.09375-6.121094 0 0 0 0 0-.007813l-38-96c-1.207031-3.070312-4.125-5.054687-7.429688-5.054687zm10.839844 72h-21.6875c-1.328125 0-2.5625-.65625-3.3125-1.753906-.753906-1.09375-.898437-2.496094-.410156-3.71875l10.847656-27.402344c.609375-1.527344 2.082032-2.527344 3.722656-2.527344 1.640626 0 3.121094 1 3.71875 2.527344l10.839844 27.402344c.488282 1.222656.335938 2.625-.40625 3.71875-.746094 1.097656-1.984375 1.753906-3.3125 1.753906zm-15.800781-8h9.921875l-4.960938-12.527344zm0 0" fill="#3e2807" fill-opacity="1" data-original-color="#263238ff" stroke="none" stroke-opacity="1"/><path d="m347.882812 272.371094h-32c-6.632812 0-12-5.378906-12-12 0-6.625 5.367188-12 12-12h32c6.613282 0 12-5.386719 12-12 0-6.617188-5.386718-12-12-12h-8c-19.847656 0-36-16.152344-36-36s16.152344-36 36-36h24c6.632813 0 12 5.375 12 12 0 6.621094-5.367187 12-12 12h-24c-6.617187 0-12 5.382812-12 12 0 6.613281 5.382813 12 12 12h8c19.847657 0 36 16.152344 36 36s-16.144531 36-36 36zm0 0" fill="#e3a547" fill-opacity="1" data-original-color="#40c4ffff" stroke="none" stroke-opacity="1"/><path d="m347.882812 276.371094h-32c-8.824218 0-16-7.175782-16-16 0-8.824219 7.175782-16 16-16h32c4.40625 0 8-3.585938 8-8 0-4.417969-3.59375-8-8-8h-8c-22.058593 0-40-17.945313-40-40 0-22.058594 17.941407-40 40-40h24c8.824219 0 16 7.175781 16 16 0 8.824218-7.175781 16-16 16h-24c-4.410156 0-8 3.582031-8 8 0 4.414062 3.589844 8 8 8h8c22.054688 0 40 17.941406 40 40 0 22.054687-17.945312 40-40 40zm-32-24c-4.410156 0-8 3.582031-8 8 0 4.414062 3.589844 8 8 8h32c17.648438 0 32-14.351563 32-32 0-17.648438-14.351562-32-32-32h-8c-8.824218 0-16-7.175782-16-16 0-8.824219 7.175782-16 16-16h24c4.40625 0 8-3.585938 8-8 0-4.417969-3.59375-8-8-8h-24c-17.648437 0-32 14.351562-32 32 0 17.648437 14.351563 32 32 32h8c8.824219 0 16 7.175781 16 16 0 8.824218-7.175781 16-16 16zm0 0" fill="#3e2807" fill-opacity="1" data-original-color="#263238ff" stroke="none" stroke-opacity="1"/></g></svg>