<svg id="Line_color" enable-background="new 0 0 256 256" height="300" viewBox="0 0 256 256" width="300" xmlns="http://www.w3.org/2000/svg" version="1.1" xmlns:xlink="http://www.w3.org/1999/xlink" xmlns:svgjs="http://svgjs.dev/svgjs"><g transform="matrix(1,0,0,1,0,0)"><g><g><g><g><g><path d="m206.5694 219.6246h-108.3902c-12.424 0-22.5313-10.1073-22.5313-22.5313v-142.0589c0-12.424 10.1073-22.5313 22.5313-22.5313h108.3902c12.424 0 22.5313 10.1073 22.5313 22.5313v142.059c-.0001 12.4239-10.1074 22.5312-22.5313 22.5312z" fill="#818181" fill-opacity="1" data-original-color="#cbd0caff" stroke="none" stroke-opacity="1"/></g></g><g><g><path d="m211.9061 228.8378h-119.0637c-13.6474 0-24.75-11.1026-24.75-24.75v-156.0479c0-13.6474 11.1026-24.75 24.75-24.75h119.0637c13.6474 0 24.75 11.1026 24.75 24.75v156.048c0 13.6474-11.1026 24.7499-24.75 24.7499zm-119.0637-189.0479c-4.5488 0-8.25 3.7007-8.25 8.25v156.048c0 4.5493 3.7012 8.25 8.25 8.25h119.0637c4.5493 0 8.25-3.7007 8.25-8.25v-156.048c0-4.5493-3.7007-8.25-8.25-8.25z" fill="#e3a547" fill-opacity="1" data-original-color="#227cb1ff" stroke="none" stroke-opacity="1"/></g></g></g><g><path d="m106.2315 116.3539h-69.6484l-12.2182 90.0853h94.0848z" fill="#818181" fill-opacity="1" data-original-color="#818181ff" stroke="none" stroke-opacity="1"/></g><g><path d="m32.342 214.189h78.131v24.475h-78.131z" fill="#e3a547" fill-opacity="1" data-original-color="#5b5b5bff" stroke="none" stroke-opacity="1"/></g><g><g><path d="m110.6775 119.9675h-78.5404v-11.3629c0-3.1378 2.5437-5.6814 5.6814-5.6814h67.1775c3.1378 0 5.6814 2.5437 5.6814 5.6814v11.3629z" fill="#e3a547" fill-opacity="1" data-original-color="#4b94c7ff" stroke="none" stroke-opacity="1"/></g></g><g><path d="m116.359 219.8699h-89.9033c-3.1378 0-5.6814-2.5437-5.6814-5.6814v-11.3629h101.2661v11.3629c0 3.1378-2.5437 5.6814-5.6814 5.6814z" fill="#e3a547" fill-opacity="1" data-original-color="#4b94c7ff" stroke="none" stroke-opacity="1"/></g></g><path d="m211.9063 20.5397h-119.0638c-15.1637 0-27.5 12.3363-27.5 27.5v52.1334h-27.5239c-4.6492 0-8.4315 3.7823-8.4315 8.4315v11.3631c0 1.519 1.2313 2.75 2.75 2.75h.8077l-10.492 77.3577h-1.6785c-1.5187 0-2.75 1.2311-2.75 2.75v11.3631c0 4.6492 3.7823 8.4315 8.4315 8.4315h3.1359v16.044c0 1.519 1.2313 2.75 2.75 2.75h78.1311c1.5187 0 2.75-1.231 2.75-2.75v-7.0764h98.6834c15.1637 0 27.5-12.3363 27.5-27.5v-156.0479c.0001-15.1637-12.3363-27.5-27.4999-27.5zm-177.0192 88.065c0-1.6167 1.3151-2.9315 2.9315-2.9315h67.1773c1.6164 0 2.9315 1.3148 2.9315 2.9315v8.6131h-73.0403zm114.7373-50.4765v10.2078h-62.2819v-10.2078zm-62.2819-5.5v-4.5885c0-3.0325 2.4672-5.5 5.5-5.5h56.7819v10.0885zm62.2819 21.2078v10.2078h-62.2819v-10.2078zm0 15.7078v10.2083h-62.2819v-10.2083zm-27.5841 110.5317h-1.6785l-.0781-.5758h29.3407v10.088h-24.8341v-6.7622c0-1.519-1.2313-2.75-2.75-2.75zm-2.5026-6.0758-1.3845-10.2078h31.4711v10.2078zm-2.1304-15.7078-1.3845-10.2078h33.6015v10.2078zm-2.1304-15.7077-1.3845-10.2083h35.732v10.2083zm-15.3669-39.8664h4.4095l10.4919 77.3577h-7.3339zm2.0415 77.3577h-7.8145l-4.5382-77.3577h4.7852zm11.1949-53.1996-1.3845-10.2078h37.8625v10.2078zm-2.1304-15.7078-1.1461-8.4503h.8077c1.1678 0 2.1595-.7309 2.5583-1.758h36.3886v10.2083zm2.4115-15.7083v-6.8551c0-1.1914-.2515-2.3241-.6992-3.3526h36.8961v10.2078h-36.1969zm-24.7998 84.6157h-7.9726l-1.4762-77.3577h4.9106zm-13.4735 0h-7.4938l1.4762-77.3577h4.5415zm-11.5186-77.3577-1.4762 77.3577h-7.9726l4.5385-77.3577zm-10.4195 0-4.5385 77.3577h-7.8143l7.5673-77.3577zm-14.721 0h4.4096l-7.5673 77.3577h-7.3341zm69.2278 113.1963h-72.6312v-13.294h72.6311v13.294zm-81.2671-18.794c-1.6164 0-2.9315-1.3148-2.9315-2.9315v-8.6131h95.7661v8.6131c0 1.6167-1.3148 2.9315-2.9313 2.9315zm207.4505-13.0324c0 12.1306-9.8691 22-22 22h-98.6834v-3.4676h3.1362c4.3451 0 7.9313-3.3046 8.3818-7.5324h87.1654c6.0653 0 11-4.9344 11-11v-156.048c0-6.0656-4.9347-11-11-11h-119.0638c-6.0653 0-11 4.9344-11 11v52.1334h-11v-52.1334c0-12.1306 9.8691-22 22-22h119.0637c12.1309 0 22 9.8694 22 22v156.048zm-16.5-145.9595v10.2078h-62.2819v-10.2078zm-62.2819-5.5v-10.0885h56.7819c3.0328 0 5.5 2.4675 5.5 5.5v4.5885zm62.2819 21.2078v10.2078h-62.2819v-10.2078zm0 15.7078v10.2083h-62.2819v-10.2083zm0 15.7083v10.2078h-62.2819v-10.2078zm0 15.7077v10.2083h-62.2819v-10.2083zm0 15.7083v10.2078h-62.2819v-10.2078zm0 15.7078v10.2083h-62.2819v-10.2083zm0 15.7083v10.2078h-62.2819v-10.2078zm0 15.7077v10.2078h-62.2819v-10.2078zm0 15.7078v4.588c0 3.0325-2.4672 5.5-5.5 5.5h-56.7819v-10.088z" fill="#3e2807" fill-opacity="1" data-original-color="#000000ff" stroke="none" stroke-opacity="1"/></g></g></svg>