<svg height="300" viewBox="0 -40 488 488" width="300" xmlns="http://www.w3.org/2000/svg" version="1.1" xmlns:xlink="http://www.w3.org/1999/xlink" xmlns:svgjs="http://svgjs.dev/svgjs"><g transform="matrix(1,0,0,1,0,0)"><path d="m464 248h-36c-2.207031 0-4-1.792969-4-4s1.792969-4 4-4h36c8.824219 0 16-7.175781 16-16v-200c0-8.824219-7.175781-16-16-16h-440c-8.824219 0-16 7.175781-16 16v200c0 8.824219 7.175781 16 16 16h36c2.207031 0 4 1.792969 4 4s-1.792969 4-4 4h-36c-13.230469 0-24-10.769531-24-24v-200c0-13.230469 10.769531-24 24-24h440c13.230469 0 24 10.769531 24 24v200c0 13.238281-10.769531 24-24 24zm0 0" fill="#263238" fill-opacity="1" data-original-color="#263238ff" stroke="none" stroke-opacity="1"/><path d="m248 160h-8c-6.617188 0-12-5.382812-12-12v-48c0-6.617188 5.382812-12 12-12h8c6.617188 0 12 5.382812 12 12v48c0 6.625-5.382812 12-12 12zm-8-64c-2.207031 0-4 1.792969-4 4v48c0 2.207031 1.792969 4 4 4h8c2.207031 0 4-1.792969 4-4v-48c0-2.207031-1.792969-4-4-4zm0 0" fill="#263238" fill-opacity="1" data-original-color="#263238ff" stroke="none" stroke-opacity="1"/><path d="m184 188h-128c-11.046875 0-20-8.953125-20-20v-88c0-11.039062 8.953125-20 20-20h128c11.046875 0 20 8.953125 20 20v88c0 11.046875-8.953125 20-20 20zm0 0" fill="#e3a547" fill-opacity="1" data-original-color="#40c4ffff" stroke="none" stroke-opacity="1"/><path d="m184 192h-128c-13.230469 0-24-10.769531-24-24v-88c0-13.230469 10.769531-24 24-24h128c13.230469 0 24 10.769531 24 24v88c0 13.238281-10.769531 24-24 24zm-128-128c-8.824219 0-16 7.175781-16 16v88c0 8.824219 7.175781 16 16 16h128c8.824219 0 16-7.175781 16-16v-88c0-8.824219-7.175781-16-16-16zm0 0" fill="#263238" fill-opacity="1" data-original-color="#263238ff" stroke="none" stroke-opacity="1"/><path d="m204 92h-168c-2.207031 0-4-1.792969-4-4s1.792969-4 4-4h168c2.207031 0 4 1.792969 4 4s-1.792969 4-4 4zm0 0" fill="#263238" fill-opacity="1" data-original-color="#263238ff" stroke="none" stroke-opacity="1"/><path d="m204 124h-48c-2.207031 0-4-1.792969-4-4s1.792969-4 4-4h48c2.207031 0 4 1.792969 4 4s-1.792969 4-4 4zm0 0" fill="#263238" fill-opacity="1" data-original-color="#263238ff" stroke="none" stroke-opacity="1"/><path d="m84 124h-48c-2.207031 0-4-1.792969-4-4s1.792969-4 4-4h48c2.207031 0 4 1.792969 4 4s-1.792969 4-4 4zm0 0" fill="#263238" fill-opacity="1" data-original-color="#263238ff" stroke="none" stroke-opacity="1"/><path d="m204 156h-168c-2.207031 0-4-1.792969-4-4s1.792969-4 4-4h168c2.207031 0 4 1.792969 4 4s-1.792969 4-4 4zm0 0" fill="#263238" fill-opacity="1" data-original-color="#263238ff" stroke="none" stroke-opacity="1"/><path d="m132 135.335938h-24c-6.617188 0-12-5.382813-12-12v-8c0-6.617188 5.382812-12 12-12h24c6.617188 0 12 5.382812 12 12v8c0 6.617187-5.382812 12-12 12zm-24-24c-2.207031 0-4 1.792968-4 4v8c0 2.207031 1.792969 4 4 4h24c2.207031 0 4-1.792969 4-4v-8c0-2.207032-1.792969-4-4-4zm0 0" fill="#263238" fill-opacity="1" data-original-color="#263238ff" stroke="none" stroke-opacity="1"/><path d="m432 188h-128c-11.046875 0-20-8.953125-20-20v-88c0-11.046875 8.953125-20 20-20h128c11.046875 0 20 8.953125 20 20v88c0 11.046875-8.953125 20-20 20zm0 0" fill="#e3a547" fill-opacity="1" data-original-color="#40c4ffff" stroke="none" stroke-opacity="1"/><g fill="#263238"><path d="m432 192h-128c-13.230469 0-24-10.769531-24-24v-88c0-13.230469 10.769531-24 24-24h128c13.230469 0 24 10.769531 24 24v88c0 13.238281-10.769531 24-24 24zm-128-128c-8.824219 0-16 7.175781-16 16v88c0 8.824219 7.175781 16 16 16h128c8.824219 0 16-7.175781 16-16v-88c0-8.824219-7.175781-16-16-16zm0 0" fill="#263238" fill-opacity="1" data-original-color="#263238ff" stroke="none" stroke-opacity="1"/><path d="m452 92h-168c-2.207031 0-4-1.792969-4-4s1.792969-4 4-4h168c2.207031 0 4 1.792969 4 4s-1.792969 4-4 4zm0 0" fill="#263238" fill-opacity="1" data-original-color="#263238ff" stroke="none" stroke-opacity="1"/><path d="m452 124h-48c-2.207031 0-4-1.792969-4-4s1.792969-4 4-4h48c2.207031 0 4 1.792969 4 4s-1.792969 4-4 4zm0 0" fill="#263238" fill-opacity="1" data-original-color="#263238ff" stroke="none" stroke-opacity="1"/><path d="m332 124h-48c-2.207031 0-4-1.792969-4-4s1.792969-4 4-4h48c2.207031 0 4 1.792969 4 4s-1.792969 4-4 4zm0 0" fill="#263238" fill-opacity="1" data-original-color="#263238ff" stroke="none" stroke-opacity="1"/><path d="m452 156h-168c-2.207031 0-4-1.792969-4-4s1.792969-4 4-4h168c2.207031 0 4 1.792969 4 4s-1.792969 4-4 4zm0 0" fill="#263238" fill-opacity="1" data-original-color="#263238ff" stroke="none" stroke-opacity="1"/><path d="m380 135.335938h-24c-6.617188 0-12-5.382813-12-12v-8c0-6.617188 5.382812-12 12-12h24c6.617188 0 12 5.382812 12 12v8c0 6.617187-5.382812 12-12 12zm-24-24c-2.199219 0-4 1.792968-4 4v8c0 2.207031 1.800781 4 4 4h24c2.199219 0 4-1.792969 4-4v-8c0-2.207032-1.800781-4-4-4zm0 0" fill="#263238" fill-opacity="1" data-original-color="#263238ff" stroke="none" stroke-opacity="1"/><path d="m244 408c-33.089844 0-60-26.910156-60-60s26.910156-60 60-60 60 26.910156 60 60-26.910156 60-60 60zm0-112c-28.671875 0-52 23.328125-52 52s23.328125 52 52 52 52-23.328125 52-52-23.328125-52-52-52zm0 0" fill="#263238" fill-opacity="1" data-original-color="#263238ff" stroke="none" stroke-opacity="1"/><path d="m259.550781 377.550781c-3.582031 0-7.167969-1.359375-9.894531-4.09375l-31.113281-31.113281c-2.648438-2.640625-4.101563-6.160156-4.101563-9.894531 0-3.738281 1.453125-7.257813 4.101563-9.898438 5.296875-5.285156 14.519531-5.277343 19.800781 0l31.113281 31.113281c2.648438 2.648438 4.101563 6.160157 4.101563 9.894532 0 3.746094-1.453125 7.257812-4.101563 9.898437-2.730469 2.726563-6.3125 4.09375-9.90625 4.09375zm-31.109375-51.101562c-1.601562 0-3.113281.621093-4.242187 1.757812-1.128907 1.136719-1.757813 2.640625-1.757813 4.242188 0 1.597656.621094 3.109375 1.757813 4.238281l31.113281 31.113281c2.34375 2.335938 6.144531 2.335938 8.488281 0 1.136719-1.136719 1.757813-2.640625 1.757813-4.242187 0-1.597656-.621094-3.109375-1.757813-4.238282l-31.113281-31.113281c-1.136719-1.136719-2.648438-1.757812-4.246094-1.757812zm0 0" fill="#263238" fill-opacity="1" data-original-color="#263238ff" stroke="none" stroke-opacity="1"/><path d="m84 370c-2.207031 0-4-1.792969-4-4 0-5.777344-2.976562-8.566406-6.734375-12.097656-4.128906-3.871094-9.265625-8.6875-9.265625-17.925782 0-9.242187 5.136719-14.054687 9.265625-17.929687 3.765625-3.527344 6.734375-6.320313 6.734375-12.09375 0-5.761719-2.976562-8.546875-6.734375-12.074219-4.128906-3.871094-9.265625-8.679687-9.265625-17.902344 0-9.222656 5.136719-14.039062 9.265625-17.90625 3.757813-3.519531 6.734375-6.308593 6.734375-12.0625 0-2.207031 1.792969-4 4-4s4 1.792969 4 4c0 9.222657-5.136719 14.039063-9.265625 17.902344-3.757813 3.523438-6.734375 6.3125-6.734375 12.066406 0 5.757813 2.976562 8.542969 6.734375 12.070313 4.128906 3.863281 9.265625 8.679687 9.265625 17.90625 0 9.238281-5.136719 14.054687-9.265625 17.933594-3.757813 3.527343-6.734375 6.320312-6.734375 12.097656s2.976562 8.558594 6.734375 12.09375c4.128906 3.875 9.265625 8.699219 9.265625 17.9375 0 2.199219-1.792969 3.984375-4 3.984375zm0 0" fill="#263238" fill-opacity="1" data-original-color="#263238ff" stroke="none" stroke-opacity="1"/><path d="m140 370c-2.207031 0-4-1.792969-4-4 0-5.777344-2.976562-8.566406-6.734375-12.097656-4.128906-3.871094-9.265625-8.6875-9.265625-17.925782 0-9.242187 5.136719-14.054687 9.265625-17.929687 3.765625-3.527344 6.734375-6.320313 6.734375-12.09375 0-5.761719-2.976562-8.546875-6.734375-12.074219-4.128906-3.863281-9.265625-8.679687-9.265625-17.902344 0-9.222656 5.136719-14.039062 9.265625-17.90625 3.757813-3.519531 6.734375-6.308593 6.734375-12.0625 0-2.207031 1.792969-4 4-4s4 1.792969 4 4c0 9.222657-5.136719 14.039063-9.265625 17.902344-3.757813 3.523438-6.734375 6.3125-6.734375 12.066406 0 5.757813 2.976562 8.542969 6.734375 12.070313 4.128906 3.863281 9.265625 8.679687 9.265625 17.90625 0 9.238281-5.136719 14.054687-9.265625 17.933594-3.757813 3.527343-6.734375 6.320312-6.734375 12.097656s2.976562 8.558594 6.734375 12.09375c4.128906 3.875 9.265625 8.699219 9.265625 17.9375 0 2.199219-1.792969 3.984375-4 3.984375zm0 0" fill="#263238" fill-opacity="1" data-original-color="#263238ff" stroke="none" stroke-opacity="1"/><path d="m404 370c-2.207031 0-4-1.792969-4-4 0-9.230469 5.144531-14.039062 9.265625-17.902344 3.765625-3.53125 6.734375-6.3125 6.734375-12.066406 0-5.757812-2.96875-8.542969-6.734375-12.070312-4.128906-3.863282-9.265625-8.679688-9.265625-17.90625 0-9.238282 5.136719-14.054688 9.265625-17.925782 3.757813-3.527344 6.734375-6.320312 6.734375-12.097656 0-5.773438-2.976562-8.558594-6.734375-12.09375-4.136719-3.875-9.265625-8.691406-9.265625-17.929688 0-2.207031 1.792969-4 4-4s4 1.792969 4 4c0 5.777344 2.976562 8.558594 6.734375 12.097657 4.136719 3.871093 9.265625 8.6875 9.265625 17.925781 0 9.242188-5.136719 14.058594-9.265625 17.9375-3.757813 3.527344-6.734375 6.320312-6.734375 12.09375 0 5.761719 2.96875 8.546875 6.734375 12.074219 4.128906 3.863281 9.265625 8.679687 9.265625 17.902343 0 9.226563-5.144531 14.039063-9.265625 17.90625-3.765625 3.519532-6.734375 6.292969-6.734375 12.054688 0 2.214844-1.792969 4-4 4zm0 0" fill="#263238" fill-opacity="1" data-original-color="#263238ff" stroke="none" stroke-opacity="1"/><path d="m348 370c-2.207031 0-4-1.792969-4-4 0-9.230469 5.144531-14.039062 9.265625-17.902344 3.765625-3.53125 6.734375-6.3125 6.734375-12.066406 0-5.757812-2.96875-8.542969-6.734375-12.070312-4.128906-3.863282-9.265625-8.679688-9.265625-17.90625 0-9.238282 5.136719-14.054688 9.265625-17.925782 3.757813-3.527344 6.734375-6.320312 6.734375-12.097656 0-5.773438-2.976562-8.558594-6.734375-12.09375-4.136719-3.875-9.265625-8.691406-9.265625-17.929688 0-2.207031 1.792969-4 4-4s4 1.792969 4 4c0 5.777344 2.976562 8.558594 6.734375 12.097657 4.136719 3.871093 9.265625 8.6875 9.265625 17.925781 0 9.242188-5.136719 14.058594-9.265625 17.9375-3.757813 3.527344-6.734375 6.320312-6.734375 12.09375 0 5.761719 2.96875 8.546875 6.734375 12.074219 4.128906 3.863281 9.265625 8.679687 9.265625 17.902343 0 9.226563-5.144531 14.039063-9.265625 17.90625-3.765625 3.519532-6.734375 6.292969-6.734375 12.054688 0 2.214844-1.792969 4-4 4zm0 0" fill="#263238" fill-opacity="1" data-original-color="#263238ff" stroke="none" stroke-opacity="1"/><path d="m324 248h-160c-2.207031 0-4-1.792969-4-4s1.792969-4 4-4h160c2.207031 0 4 1.792969 4 4s-1.792969 4-4 4zm0 0" fill="#263238" fill-opacity="1" data-original-color="#263238ff" stroke="none" stroke-opacity="1"/></g></g></svg>