<svg clip-rule="evenodd" fill-rule="evenodd" height="300" image-rendering="optimizeQuality" shape-rendering="geometricPrecision" text-rendering="geometricPrecision" viewBox="0 0 43.3492 43.3492" width="300" xmlns="http://www.w3.org/2000/svg" version="1.1" xmlns:xlink="http://www.w3.org/1999/xlink" xmlns:svgjs="http://svgjs.dev/svgjs"><g transform="matrix(1,0,0,1,0,0)"><g id="Layer_x0020_1"><g id="_264078056"><path id="_264051368" d="m35.7599 24.6845c.0061.0003.0121.0008.0182.0014h.0003c.0172.0018.0345.0047.0517.0089.204.0495.3298.2544.2812.4584-.0241.1006-.0493.2009-.0756.3008 1.1341-.0112 2.1501-.5243 2.8361-1.3274.5642-.6604.9053-1.5171.9053-2.452s-.341-1.7916-.9053-2.452c-.6859-.803-1.7018-1.3161-2.8359-1.3274.0262.0999.0513.2002.0754.3008.0496.204-.0762.409-.2802.4585-.0296.0069-.0604.0099-.0891.0099-.1722 0-.3278-.1168-.3694-.2911-.0328-.1366-.0676-.2725-.1044-.4078-1.0374.2035-1.9242.8326-2.4701 1.6973-.3556.5632-.5666 1.2264-.5805 1.9372.0002.0249.0002.0497.0002.0746 0 .025 0 .0499-.0002.0748.0139.7107.2249 1.3739.5805 1.9371.5458.8643 1.4321 1.4932 2.4691 1.697.0368-.1352.0716-.2711.1044-.4075.0431-.1804.209-.3004.3878-.2915zm1.3466-1.8999c-.3049.306-.707.4585-1.1089.4585-.402 0-.8042-.1525-1.1102-.4585-.6119-.6119-.6119-1.6081 0-2.22.2963-.2961.6902-.4595 1.1101-.4595.4189 0 .8129.1634 1.109.4595.2971.2961.4605.6912.4605 1.11 0 .4189-.1635.813-.4605 1.11z" fill="#e3a547" fill-opacity="1" data-original-color="#a7afb2ff" stroke="none" stroke-opacity="1"/><path id="_264051992" d="m21.6753.7605c-11.5331 0-20.9153 9.3822-20.9153 20.9141.0001 11.532 9.3822 20.9142 20.9151 20.9142 11.5322 0 20.9142-9.3822 20.9142-20.9142.0001-11.5319-9.3822-20.9141-20.914-20.9141zm0 42.5888c-5.7898 0-11.2331-2.2547-15.3266-6.3482-4.0943-4.0936-6.3492-9.5367-6.3492-15.3265.0001-5.7897 2.2547-11.2329 6.3492-15.3264 4.0937-4.0935 9.5367-6.3482 15.3264-6.3482 5.7889 0 11.2319 2.2547 15.3254 6.3482 4.0946 4.0935 6.3492 9.5367 6.3492 15.3264.0001 5.7898-2.2546 11.2329-6.3492 15.3265-4.0934 4.0935-9.5366 6.3482-15.3252 6.3482z" fill="#3e2807" fill-opacity="1" data-original-color="#000000ff" stroke="none" stroke-opacity="1"/><path id="_264051776" d="m21.6753 4.3054c-9.5785 0-17.3704 7.792-17.3704 17.3692.0001 9.5773 7.7919 17.3692 17.3702 17.3692 9.5773 0 17.3692-7.7919 17.3692-17.3692.0002-9.5773-7.7919-17.3692-17.369-17.3692zm0 35.4989c-9.9973 0-18.1309-8.1326-18.1309-18.1297.0002-9.9971 8.1336-18.1297 18.1307-18.1297 9.9962 0 18.1297 8.1326 18.1297 18.1297.0001 9.9971-8.1336 18.1297-18.1295 18.1297z" fill="#3e2807" fill-opacity="1" data-original-color="#000000ff" stroke="none" stroke-opacity="1"/><path id="_264051944" d="m21.6753 11.1319c-5.8137 0-10.5439 4.7292-10.5439 10.5427s4.7302 10.5428 10.5437 10.5428c5.8127 0 10.5427-4.7293 10.5427-10.5428.0002-5.8135-4.7302-10.5427-10.5425-10.5427zm0 21.8459c-6.2334 0-11.3044-5.0708-11.3044-11.3032.0002-6.2324 5.0709-11.3032 11.3042-11.3032 6.2325 0 11.3022 5.0708 11.3022 11.3032.0002 6.2324-5.0698 11.3032-11.302 11.3032z" fill="#3e2807" fill-opacity="1" data-original-color="#000000ff" stroke="none" stroke-opacity="1"/><path id="_264051632" d="m21.6753 16.3829c-2.9182 0-5.2919 2.3736-5.2919 5.2917 0 2.9172 2.3736 5.2917 5.2917 5.2917 2.9173 0 5.2907-2.3745 5.2907-5.2917 0-2.9181-2.3735-5.2917-5.2905-5.2917zm0 11.3429c-3.337 0-6.0523-2.7142-6.0523-6.0512s2.7151-6.0521 6.0521-6.0521c3.3361 0 6.0512 2.7151 6.0512 6.0521.0002 3.337-2.7152 6.0512-6.051 6.0512z" fill="#3e2807" fill-opacity="1" data-original-color="#000000ff" stroke="none" stroke-opacity="1"/><path id="_264051968" d="m21.6742 4.3321c-1.6645 0-3.0192 1.3546-3.0192 3.0202.0001 1.6645 1.3546 3.0191 3.0191 3.0191 1.6657 0 3.0202-1.3546 3.0202-3.0191.0001-1.6656-1.3546-3.0202-3.0201-3.0202zm0 6.7998c-2.0834 0-3.7797-1.6963-3.7797-3.7796.0002-2.0844 1.6962-3.7806 3.7796-3.7806 2.0846 0 3.7806 1.6962 3.7806 3.7806.0001 2.0833-1.6962 3.7796-3.7805 3.7796z" fill="#3e2807" fill-opacity="1" data-original-color="#000000ff" stroke="none" stroke-opacity="1"/><path id="_264051824" d="m21.6753 4.3321c-1.6645 0-3.0193 1.3546-3.0193 3.0202 0 1.6645 1.3546 3.0191 3.0191 3.0191 1.6647 0 3.0192-1.3546 3.0192-3.0191.0001-1.6656-1.3546-3.0202-3.019-3.0202zm0 6.7998c-2.0845 0-3.7798-1.6963-3.7798-3.7796.0001-2.0844 1.6952-3.7806 3.7796-3.7806 2.0845 0 3.7796 1.6962 3.7796 3.7806.0001 2.0833-1.6952 3.7796-3.7794 3.7796z" fill="#3e2807" fill-opacity="1" data-original-color="#000000ff" stroke="none" stroke-opacity="1"/><path id="_264051416" d="m31.8021 8.5286c-.7733 0-1.5459.2941-2.135.8833-.5702.5703-.8843 1.3288-.8843 2.1349.0002.807.3139 1.5645.8843 2.1349 1.1774 1.1773 3.0924 1.1773 4.2707 0 .5695-.5704.8843-1.3279.8843-2.1349 0-.8061-.3149-1.5645-.8843-2.1349-.5891-.5892-1.3625-.8833-2.1357-.8833zm0 6.7968c-.9674 0-1.936-.3684-2.6727-1.106-.7138-.714-1.1071-1.6626-1.1071-2.6726s.3932-1.9587 1.1071-2.6726c1.4736-1.4734 3.8717-1.4744 5.3451 0 .715.7139 1.1081 1.6626 1.1081 2.6726.0001 1.01-.3932 1.9586-1.1081 2.6726-.7365.7367-1.7041 1.105-2.6724 1.106z" fill="#3e2807" fill-opacity="1" data-original-color="#000000ff" stroke="none" stroke-opacity="1"/><path id="_264051608" d="m35.9976 18.6555c-1.6657 0-3.0203 1.3546-3.0203 3.0191.0002 1.6645 1.3546 3.0192 3.0202 3.0192 1.6646 0 3.0191-1.3547 3.0191-3.0192.0001-1.6645-1.3546-3.0191-3.019-3.0191zm0 6.7987c-2.0845 0-3.7807-1.6952-3.7807-3.7796s1.6962-3.7796 3.7806-3.7796c2.0845 0 3.7796 1.6952 3.7796 3.7796s-1.6952 3.7796-3.7795 3.7796z" fill="#3e2807" fill-opacity="1" data-original-color="#000000ff" stroke="none" stroke-opacity="1"/><path id="_264051272" d="m34.2063 34.2057h.0009zm-2.4042-5.4214c-.7733 0-1.5459.2941-2.135.8823-1.1773 1.1773-1.1774 3.0934 0 4.2707 1.1774 1.1774 3.0934 1.1774 4.2707 0 1.1766-1.1773 1.1764-3.0934 0-4.2707-.5891-.5882-1.3625-.8823-2.1357-.8823zm0 6.7958c-.9674 0-1.936-.3683-2.6727-1.1051-1.4733-1.4734-1.4734-3.8717 0-5.3461 1.4736-1.4734 3.8717-1.4734 5.3451 0 1.4745 1.4744 1.4744 3.8727 0 5.3461-.7365.7368-1.7041 1.1051-2.6724 1.1051z" fill="#3e2807" fill-opacity="1" data-original-color="#000000ff" stroke="none" stroke-opacity="1"/><path id="_264051104" d="m21.6753 32.9778c-1.6656 0-3.0203 1.3546-3.0203 3.0192.0001 1.6645 1.3546 3.0191 3.0201 3.0191 1.6647 0 3.0192-1.3546 3.0192-3.0191.0001-1.6646-1.3546-3.0192-3.019-3.0192zm0 6.7988c-2.0845 0-3.7808-1.6952-3.7808-3.7796.0002-2.0844 1.6962-3.7796 3.7806-3.7796 2.0836 0 3.7796 1.6952 3.7796 3.7796.0001 2.0844-1.6962 3.7796-3.7794 3.7796z" fill="#3e2807" fill-opacity="1" data-original-color="#000000ff" stroke="none" stroke-opacity="1"/><path id="_264051056" d="m11.5474 28.7843c-.7733 0-1.5468.2941-2.136.8823-.5692.5703-.8843 1.3288-.8843 2.1359.0001.806.3149 1.5645.8843 2.1348 1.1784 1.1774 3.0934 1.1774 4.2708 0 .5704-.5703.8842-1.3288.8842-2.1348.0001-.8071-.3139-1.5656-.8842-2.1349-.589-.5892-1.3616-.8833-2.1348-.8833zm0 6.7958c-.9685 0-1.936-.3683-2.6737-1.1051h.0002-.0002c-.7139-.7139-1.107-1.6635-1.107-2.6725.0001-1.0101.3931-1.9596 1.107-2.6736 1.4746-1.4734 3.8727-1.4734 5.3462 0 .714.7139 1.107 1.6635 1.107 2.6736 0 1.009-.3931 1.9586-1.107 2.6725-.7366.7368-1.7052 1.1051-2.6725 1.1051z" fill="#3e2807" fill-opacity="1" data-original-color="#000000ff" stroke="none" stroke-opacity="1"/><path id="_264050864" d="m7.3519 18.6555c-1.6645 0-3.0193 1.3546-3.0193 3.0191.0002 1.6645 1.3546 3.0192 3.0192 3.0192 1.6655 0 3.0201-1.3547 3.0201-3.0192s-1.3546-3.0191-3.02-3.0191zm0 6.7987c-2.0845 0-3.7797-1.6952-3.7797-3.7796s1.6952-3.7796 3.7796-3.7796 3.7806 1.6952 3.7806 3.7796c.0002 2.0844-1.6962 3.7796-3.7805 3.7796z" fill="#3e2807" fill-opacity="1" data-original-color="#000000ff" stroke="none" stroke-opacity="1"/><path id="_264051080" d="m9.4126 9.4119c-1.1775 1.1773-1.1776 3.0924-.0012 4.2698 1.1784 1.1773 3.0934 1.1773 4.2708 0 .5704-.5704.8842-1.3279.8842-2.1349.0001-.8061-.3139-1.5645-.8842-2.1349-1.1772-1.1773-3.0934-1.1773-4.2708 0zm2.1348 5.9135c-.9685 0-1.936-.3684-2.6737-1.106-1.4734-1.4735-1.4734-3.8718 0-5.3452 1.4746-1.4734 3.8727-1.4734 5.3462 0 .714.7139 1.107 1.6626 1.107 2.6726s-.3931 1.9586-1.107 2.6726c-.7366.7367-1.7052 1.106-2.6725 1.106z" fill="#3e2807" fill-opacity="1" data-original-color="#000000ff" stroke="none" stroke-opacity="1"/><path id="_264050888" d="m14.1258 9.7119c-.1276 0-.2525-.0653-.3238-.1822-.1097-.1792-.0545-.4129.1247-.5228 1.3251-.812 2.7617-1.4071 4.2688-1.7695.204-.0485.41.0762.4585.2812.0496.204-.0763.409-.2812.4585-1.4288.3426-2.7914.908-4.048 1.6784-.0622.0376-.1307.0564-.199.0564zm15.0967 0c-.0673 0-.1357-.0178-.1981-.0564-1.2565-.7704-2.6191-1.3348-4.0479-1.6774-.205-.0496-.3308-.2545-.2813-.4585.0487-.2049.2545-.3307.4585-.2812 1.5071.3614 2.9429.9565 4.2678 1.7685.1793.1099.2357.3446.1258.5238-.0712.1169-.1961.1812-.3248.1812zm-21.6141 8.9525c-.0297 0-.0596-.003-.0893-.0099-.2039-.0495-.3297-.2545-.2812-.4585.3625-1.5071.9575-2.9439 1.7695-4.2687.11-.1793.3436-.2357.5228-.1258.1794.1099.2357.3436.1258.5228-.7703 1.2576-1.3348 2.6191-1.6784 4.049-.0415.1742-.1981.2911-.3692.2911zm28.1336 0c-.1722 0-.3278-.1168-.3694-.2911-.3436-1.4299-.908-2.7914-1.6783-4.049-.1098-.1792-.0545-.4129.1247-.5228.1794-.1099.4129-.0535.5228.1258.8131 1.3248 1.4081 2.7606 1.7695 4.2687.0496.204-.0762.409-.2802.4585-.0296.0069-.0604.0099-.0891.0099zm-1.7249 10.9388c-.0673 0-.1367-.0178-.1981-.0564-.1791-.1089-.2357-.3436-.1258-.5228.7706-1.2566 1.3349-2.6192 1.6785-4.048.0486-.204.2545-.3307.4584-.2812.204.0495.3298.2544.2812.4584-.3622 1.5071-.9575 2.9429-1.7695 4.2688-.072.1168-.197.1812-.3247.1812zm-24.6847 0c-.1279 0-.2527-.0644-.325-.1812-.812-1.3249-1.4071-2.7617-1.7695-4.2688-.0484-.204.0772-.4089.2812-.4584.204-.0486.41.0772.4585.2812.3437 1.4288.908 2.7914 1.6784 4.0489.1099.1783.0534.413-.1258.5229-.0612.0376-.1307.0554-.1978.0554zm15.7323 6.5186c-.1722 0-.3279-.1169-.3695-.2912-.0494-.204.0763-.4089.2813-.4585 1.429-.3435 2.7913-.908 4.0479-1.6784.1794-.1099.4129-.0534.5229.1248.1099.1793.0534.4139-.1248.5228-1.3258.813-2.7617 1.4081-4.2688 1.7705-.0295.007-.0594.01-.089.01zm-6.7799.0009c-.0296 0-.0596-.0039-.0893-.0109-1.5071-.3624-2.9439-.9575-4.2688-1.7694-.1792-.11-.2346-.3446-.1247-.5229.1091-.1792.3436-.2357.5228-.1258 1.2568.7704 2.6191 1.3349 4.048 1.6784.2049.0496.3307.2545.2812.4585-.0415.1743-.1971.2921-.3692.2921z" fill="#3e2807" fill-opacity="1" data-original-color="#000000ff" stroke="none" stroke-opacity="1"/><path id="_264050696" d="m10.7066 10.7061h.0011zm.8408.0317c-.2159 0-.42.0841-.5725.2366h.0001c-.1523.1535-.2367.3565-.2367.5724.0002.2158.0842.4188.2366.5723.1525.1525.3565.2367.5724.2367.216 0 .4188-.0842.5713-.2367.316-.3159.3159-.8288 0-1.1447-.1523-.1525-.3555-.2366-.5712-.2366zm0 2.3784c-.42 0-.8141-.1633-1.1102-.4594-.2959-.2971-.4594-.6912-.4594-1.11 0-.4189.1634-.813.4594-1.11h.0002-.0002c.2961-.2961.6902-.4595 1.1101-.4595.419 0 .8129.1634 1.109.4595.612.6119.612 1.6081 0 2.22-.2959.2961-.6902.4595-1.1089.4594z" fill="#3e2807" fill-opacity="1" data-original-color="#000000ff" stroke="none" stroke-opacity="1"/><path id="_264050840" d="m20.8336 6.5106h.0009zm.8406.0327c-.2159 0-.419.0841-.5714.2366-.3158.3159-.3159.8288 0 1.1437.315.3159.8288.3159 1.1437 0 .1525-.1525.2366-.3555.2366-.5713.0001-.2169-.0841-.4199-.2366-.5724-.1523-.1525-.3555-.2366-.5723-.2366zm.0011 2.3775c-.4022 0-.8042-.1535-1.1102-.4595-.6118-.612-.612-1.6071 0-2.219.2961-.2961.6901-.4595 1.109-.4595.4201 0 .814.1634 1.11.4595.2973.296.4595.6901.4595 1.11.0002.4188-.1624.8129-.4595 1.109-.3058.3059-.708.4595-1.1088.4595z" fill="#3e2807" fill-opacity="1" data-original-color="#000000ff" stroke="none" stroke-opacity="1"/><path id="_264050504" d="m20.8345 35.1563h.0011zm.8408.0317c-.2159 0-.4191.0841-.5725.2366l.0001.001c-.1526.1525-.2368.3555-.2368.5714 0 .2158.0842.4188.2367.5723.316.3149.8288.3149 1.1446 0 .1527-.1535.2367-.3565.2367-.5723.0002-.2159-.0842-.4189-.2367-.5714-.1532-.1535-.3564-.2376-.5721-.2376zm0 2.3775c-.4022 0-.8042-.1525-1.1102-.4585-.2961-.2961-.4595-.6912-.4595-1.11.0001-.4189.1634-.813.4595-1.109v-.0011c.2972-.296.6911-.4594 1.11-.4594.4191 0 .813.1634 1.11.4605.2963.296.4595.6901.4595 1.109.0001.4188-.1634.8139-.4595 1.11-.3057.306-.708.4585-1.1098.4585z" fill="#3e2807" fill-opacity="1" data-original-color="#000000ff" stroke="none" stroke-opacity="1"/><path id="_264049808" d="m20.8345 35.1563h.0011zm.8408.0317c-.2159 0-.4191.0841-.5725.2366l.0001.001c-.1526.1525-.2368.3555-.2368.5714 0 .2158.0842.4188.2367.5723.316.3149.8288.3149 1.1446 0 .1527-.1535.2367-.3565.2367-.5723.0002-.2159-.0842-.4189-.2367-.5714-.1532-.1535-.3564-.2376-.5721-.2376zm0 2.3775c-.4022 0-.8042-.1525-1.1102-.4585-.2961-.2961-.4595-.6912-.4595-1.11.0001-.4189.1634-.813.4595-1.109v-.0011c.2972-.296.6911-.4594 1.11-.4594.4191 0 .813.1634 1.11.4605.2963.296.4595.6901.4595 1.109.0001.4188-.1634.8139-.4595 1.11-.3057.306-.708.4585-1.1098.4585z" fill="#3e2807" fill-opacity="1" data-original-color="#000000ff" stroke="none" stroke-opacity="1"/><path id="_264050480" d="m11.5474 30.9935c-.207 0-.415.0792-.5725.2366-.3146.3159-.3148.8288 0 1.1437.3161.3159.8288.3159 1.1437 0 .316-.3149.3159-.8278 0-1.1437-.1572-.1574-.3644-.2366-.5712-.2366zm0 2.3774c-.4021 0-.8042-.1534-1.1102-.4594-.6118-.612-.6119-1.6071 0-2.2191.612-.6119 1.6072-.6119 2.2191 0 .612.612.612 1.6071 0 2.2191-.3059.3059-.707.4594-1.1089.4594z" fill="#3e2807" fill-opacity="1" data-original-color="#000000ff" stroke="none" stroke-opacity="1"/><path id="_264050336" d="m31.2306 31.2301c-.3157.3159-.3159.8288 0 1.1437.1526.1535.3555.2377.5714.2377.216 0 .4198-.0842.5723-.2377.1525-.1525.2367-.3555.2367-.5713.0001-.2159-.0842-.4199-.2367-.5724-.3158-.3149-.8288-.3149-1.1437 0zm.5715 2.1418c-.4189 0-.8131-.1633-1.1092-.4604-.6117-.612-.6119-1.6071-.001-2.2191h.0011c.612-.6119 1.607-.6119 2.2189 0 .2962.2961.4595.6902.4595 1.1101 0 .4188-.1634.8129-.4595 1.109-.296.297-.6901.4604-1.1098.4604z" fill="#3e2807" fill-opacity="1" data-original-color="#000000ff" stroke="none" stroke-opacity="1"/><path id="_264050288" d="m35.9976 20.8656c-.2159 0-.42.0842-.5725.2367-.3147.3159-.3149.8288 0 1.1447.316.3149.8288.3149 1.1437 0 .1535-.1535.2377-.3565.2377-.5724s-.0842-.4188-.2377-.5723c-.1524-.1525-.3555-.2367-.5712-.2367zm0 2.3775c-.402 0-.8042-.1525-1.1102-.4585-.6118-.6119-.6119-1.6081 0-2.22.2963-.2961.6902-.4594 1.1101-.4594.4189 0 .8129.1633 1.109.4594.2971.2961.4604.6912.4604 1.11 0 .4189-.1633.813-.4604 1.11-.3049.306-.707.4585-1.1089.4585z" fill="#3e2807" fill-opacity="1" data-original-color="#000000ff" stroke="none" stroke-opacity="1"/><path id="_264050096" d="m31.2306 10.9744c-.3157.3159-.3159.8288 0 1.1447.315.3149.8288.3149 1.1437 0 .315-.3159.3149-.8288 0-1.1447-.3158-.3149-.8288-.3148-1.1437 0zm.5715 2.1409c-.402 0-.8032-.1525-1.1092-.4585-.6117-.6119-.6119-1.6081 0-2.22.6121-.612 1.6071-.612 2.219 0 .6122.6119.612 1.6081 0 2.22-.3058.306-.7079.4585-1.1098.4585z" fill="#3e2807" fill-opacity="1" data-original-color="#000000ff" stroke="none" stroke-opacity="1"/><path id="_264050528" d="m7.3519 20.8656c-.2159 0-.419.0842-.5715.2367-.3157.3159-.3159.8288 0 1.1447.3151.3149.8278.3149 1.1437 0 .1526-.1535.2367-.3565.2367-.5724.0001-.2159-.0842-.4188-.2367-.5723-.1524-.1525-.3565-.2367-.5722-.2367zm0 2.3775c-.4021 0-.8032-.1525-1.1092-.4585-.6119-.6119-.6119-1.6081 0-2.22.2963-.2961.6902-.4594 1.1091-.4594.4199 0 .8139.1633 1.11.4594.2962.2961.4594.6912.4594 1.11.0001.4189-.1633.813-.4594 1.11-.3058.306-.708.4585-1.1099.4585z" fill="#3e2807" fill-opacity="1" data-original-color="#000000ff" stroke="none" stroke-opacity="1"/><path id="_264049880" d="m42.5893 21.6746c.0001-11.5319-9.3822-20.9141-20.914-20.9141-11.5331 0-20.9153 9.3822-20.9153 20.9141.0001 11.532 9.3822 20.9142 20.9151 20.9142 11.5322 0 20.9142-9.3822 20.9142-20.9142zm-20.9142-18.1297c9.9962 0 18.1297 8.1326 18.1297 18.1297.0001 9.9971-8.1335 18.1297-18.1295 18.1297-9.9973 0-18.1309-8.1326-18.1309-18.1297.0002-9.9971 8.1336-18.1297 18.1307-18.1297z" fill="#ffd493" fill-opacity="1" data-original-color="#cfd8dcff" stroke="none" stroke-opacity="1"/><path id="_264050120" d="m32.2176 21.5998c-.0402-5.7792-4.7549-10.4679-10.5423-10.4679-.0004 0-.0007 0-.0011 0-5.7879.0006-10.5016 4.6885-10.5426 10.4668.0005.0253.0008.0506.0008.0759 0 .0255-.0003.0508-.0008.0762v.0004c.0414 5.7784 4.7555 10.4662 10.5435 10.4662 5.7878 0 10.5021-4.6887 10.5425-10.468-.0005-.0248-.0007-.0498-.0007-.0748s.0002-.0499.0007-.0748zm-10.5425-5.9773c3.3361 0 6.0511 2.7151 6.0511 6.0521.0002 3.337-2.7151 6.0512-6.0509 6.0512-3.337 0-6.0523-2.7142-6.0523-6.0512s2.7151-6.0521 6.0521-6.0521z" fill="#ffd493" fill-opacity="1" data-original-color="#cfd8dcff" stroke="none" stroke-opacity="1"/><path id="_264049448" d="m10.3711 21.6064c-.0364-1.6332-1.3766-2.9509-3.0191-2.9509-1.6646 0-3.0194 1.3546-3.0194 3.0191.0002 1.6645 1.3546 3.0192 3.0192 3.0192 1.6427 0 2.9829-1.3178 3.0193-2.9509-.0001-.0228-.0002-.0455-.0002-.0683 0-.0227.0001-.0455.0002-.0682zm-4.1284-1.0418c.2963-.2961.6902-.4595 1.1091-.4595.4199 0 .8139.1634 1.11.4595.2962.2961.4594.6912.4594 1.11.0001.4189-.1633.813-.4594 1.11-.3058.306-.708.4585-1.1098.4585-.4022 0-.8033-.1525-1.1093-.4585-.6119-.6119-.6119-1.6081 0-2.22z" fill="#e3a547" fill-opacity="1" data-original-color="#a7afb2ff" stroke="none" stroke-opacity="1"/><path id="_264049304" d="m8.1608 21.6746c.0001-.2158-.0842-.4188-.2367-.5723-.1524-.1525-.3565-.2367-.5721-.2367-.216 0-.4191.0842-.5716.2367-.3157.3159-.3159.8288 0 1.1447.3151.3148.8278.3148 1.1437 0 .1526-.1535.2367-.3565.2367-.5724z" fill="#ffd493" fill-opacity="1" data-original-color="#cfd8dcff" stroke="none" stroke-opacity="1"/><path id="_264049640" d="m11.5473 12.3558c.7148-.0001 1.0813-.8711.5713-1.3814-.1523-.1525-.3555-.2366-.5712-.2366-.2159 0-.42.0841-.5724.2366-.5083.5121-.1454 1.3815.5723 1.3814z" fill="#ffd493" fill-opacity="1" data-original-color="#cfd8dcff" stroke="none" stroke-opacity="1"/><path id="_264049160" d="m13.6822 13.6817c.5704-.5704.8842-1.3279.8842-2.1349.0001-.8061-.3139-1.5646-.8842-2.1349-1.1772-1.1773-3.0934-1.1773-4.2708 0h.0012c-1.1775 1.1773-1.1776 3.0924-.0012 4.2698.0525.0524.1065.1025.1617.1503.0047.0038.0092.0076.0136.0116 1.1859 1.0127 2.9748.9587 4.0955-.1619zm-1.0259-3.2449c.612.6119.612 1.6081 0 2.22-.2959.2961-.6902.4594-1.1089.4594-.8697 0-1.5696-.7035-1.5696-1.5694 0-.4189.1634-.813.4594-1.11.6129-.6129 1.6059-.6133 2.2191 0z" fill="#e3a547" fill-opacity="1" data-original-color="#a7afb2ff" stroke="none" stroke-opacity="1"/><path id="_264049112" d="m21.6751 10.3714c1.5842 0 2.8875-1.2268 3.0098-2.78.0003-.007.0008-.0139.0015-.0209.0001-.0001.0001-.0003.0001-.0004.0051-.072.0078-.1446.0078-.2178.0001-1.6652-1.354-3.0196-3.019-3.0202-.0004 0-.0007 0-.0011 0-1.664.0006-3.0182 1.355-3.0182 3.0202 0 1.6641 1.3541 3.0186 3.0181 3.0191zm1.5685-3.0191c.0002.4188-.1624.8129-.4595 1.109-.3059.3059-.708.4595-1.1088.4595-.4022 0-.8043-.1535-1.1102-.4595-.6118-.612-.6119-1.6071 0-2.2191.2961-.296.6901-.4594 1.109-.4594.42 0 .814.1634 1.11.4594.2973.2961.4595.6902.4595 1.1101z" fill="#e3a547" fill-opacity="1" data-original-color="#a7afb2ff" stroke="none" stroke-opacity="1"/><path id="_264048920" d="m22.4831 7.3523c.0001-.2169-.0842-.4199-.2366-.5724s-.3555-.2366-.5723-.2366c-.2159 0-.419.0841-.5714.2366-.3158.3159-.3159.8288 0 1.1437.3149.3159.8288.3159 1.1437 0 .1524-.1525.2366-.3555.2366-.5713z" fill="#ffd493" fill-opacity="1" data-original-color="#cfd8dcff" stroke="none" stroke-opacity="1"/><path id="_264048872" d="m32.3743 12.1191c.3149-.3159.3149-.8288 0-1.1447-.3158-.3149-.8288-.3148-1.1437 0-.3157.3159-.3159.8288 0 1.1447.315.3149.8288.3149 1.1437 0z" fill="#ffd493" fill-opacity="1" data-original-color="#cfd8dcff" stroke="none" stroke-opacity="1"/><path id="_264048632" d="m34.8221 11.5468c0-.8061-.3149-1.5646-.8843-2.1349-.5891-.5892-1.3625-.8833-2.1357-.8833-.7733 0-1.5459.2941-2.135.8833-.0509.0509-.0998.1033-.1465.1571-.0063.008-.0129.0156-.0198.023-.4646.5453-.718 1.2309-.718 1.9548.0002.807.314 1.5645.8843 2.1349 1.121 1.121 2.9108 1.1747 4.0967.1609.0038-.0034.0077-.0067.0116-.01.0555-.048.1097-.0983.1624-.1509.5695-.5704.8843-1.3279.8843-2.1349zm-4.1292-1.11c.6121-.612 1.6071-.612 2.2191 0 .6121.6119.6119 1.6081 0 2.22-.3059.306-.708.4585-1.1099.4585-.402 0-.8032-.1525-1.1092-.4585-.6117-.6119-.6119-1.6081 0-2.22z" fill="#e3a547" fill-opacity="1" data-original-color="#a7afb2ff" stroke="none" stroke-opacity="1"/><path id="_264048248" d="m36.8065 21.6746c0-.2158-.0842-.4188-.2377-.5723-.1524-.1525-.3555-.2367-.5712-.2367-.2159 0-.42.0842-.5725.2367-.3147.3159-.3148.8288 0 1.1447.316.3148.8288.3148 1.1437 0 .1535-.1535.2377-.3565.2377-.5724z" fill="#ffd493" fill-opacity="1" data-original-color="#cfd8dcff" stroke="none" stroke-opacity="1"/><path id="_264048296" d="m32.3743 32.3738c.1525-.1525.2367-.3555.2367-.5713.0001-.2159-.0842-.4199-.2367-.5724-.3158-.3149-.8288-.3149-1.1437 0-.3157.3159-.3159.8288 0 1.1437.1526.1535.3555.2377.5714.2377.216 0 .4198-.0842.5723-.2377z" fill="#ffd493" fill-opacity="1" data-original-color="#cfd8dcff" stroke="none" stroke-opacity="1"/><path id="_264048944" d="m33.9378 33.9374c1.1766-1.1774 1.1764-3.0935 0-4.2708-.052-.0519-.1054-.1016-.1602-.1489-.0058-.0047-.0115-.0096-.0171-.0147-.5625-.4791-1.2605-.7187-1.9584-.7187-.7733 0-1.5459.2941-2.135.8823-1.122 1.122-1.1748 2.915-.1581 4.1001.0017.002.0035.004.0052.006.0485.0563.0995.1112.1529.1647 1.1774 1.1773 3.0934 1.1773 4.2707 0zm-3.2448-3.245c.612-.6119 1.607-.6119 2.219 0 .2961.2961.4594.6902.4594 1.1101 0 .4188-.1634.8129-.4594 1.109-.2961.297-.6902.4604-1.1099.4604-.4189 0-.8131-.1633-1.1092-.4604-.6117-.612-.6119-1.6071-.001-2.2191z" fill="#e3a547" fill-opacity="1" data-original-color="#a7afb2ff" stroke="none" stroke-opacity="1"/><path id="_264078728" d="m22.2474 36.5693c.1527-.1535.2367-.3565.2367-.5723.0002-.2159-.0842-.4189-.2367-.5714-.1533-.1535-.3564-.2376-.5721-.2376-.2159 0-.4191.0841-.5725.2366l.0001.001c-.1526.1525-.2368.3555-.2368.5714 0 .2158.0842.4188.2367.5723.316.3149.8288.3149 1.1446 0z" fill="#ffd493" fill-opacity="1" data-original-color="#cfd8dcff" stroke="none" stroke-opacity="1"/><path id="_264078248" d="m24.6848 35.7569c-.1227-1.5528-1.4259-2.7791-3.0095-2.7791-1.5848 0-2.8882 1.2264-3.0109 2.7794-.0003.0079-.0009.0159-.0018.0239-.005.0713-.0076.1433-.0076.2159.0001 1.6645 1.3546 3.0191 3.0201 3.0191 1.6647 0 3.0192-1.3546 3.0192-3.0191 0-.0724-.0026-.1442-.0076-.2153 0-.0001 0-.0003-.0001-.0004-.0008-.0081-.0014-.0163-.0018-.0244zm-3.0097-1.3294c.419 0 .813.1634 1.11.4604.2963.2961.4595.6902.4595 1.1091.0001.4188-.1634.8139-.4595 1.11-.3057.306-.7079.4585-1.1098.4585-.4022 0-.8043-.1525-1.1102-.4585-.2961-.2961-.4594-.6912-.4594-1.11 0-.4189.1633-.813.4594-1.1091v-.0009c.2972-.2961.6911-.4595 1.11-.4595z" fill="#e3a547" fill-opacity="1" data-original-color="#a7afb2ff" stroke="none" stroke-opacity="1"/><path id="_264078224" d="m12.1186 32.3738c.316-.3149.3159-.8278 0-1.1437-.1572-.1574-.3644-.2366-.5712-.2366-.207 0-.415.0792-.5725.2366-.3146.3159-.3148.8288 0 1.1437.3161.3159.8288.3159 1.1437 0z" fill="#ffd493" fill-opacity="1" data-original-color="#cfd8dcff" stroke="none" stroke-opacity="1"/><path id="_264078368" d="m13.6822 33.9374c1.18-1.1799 1.1798-3.0909 0-4.2698-.589-.5892-1.3616-.8833-2.1348-.8833-.7424 0-1.4257.2679-1.9539.715-.0091.0086-.0188.0169-.0289.0247-.6344.5508-1.0375 1.3633-1.0375 2.2785.0001.806.3149 1.5645.8843 2.1349 1.1784 1.1773 3.0934 1.1773 4.2708 0zm-1.0259-3.245c.612.612.612 1.6071 0 2.2191-.3059.3059-.707.4594-1.1089.4594-.4021 0-.8042-.1534-1.1102-.4594-.6118-.612-.6119-1.6071 0-2.2191.612-.6119 1.6072-.6119 2.2191 0z" fill="#e3a547" fill-opacity="1" data-original-color="#a7afb2ff" stroke="none" stroke-opacity="1"/></g></g></g></svg>