<svg height="300" viewBox="-24 0 512 512" width="300" xmlns="http://www.w3.org/2000/svg" version="1.1" xmlns:xlink="http://www.w3.org/1999/xlink" xmlns:svgjs="http://svgjs.dev/svgjs"><g transform="matrix(1,0,0,1,0,0)"><path d="m452 240h-440c-6.617188 0-12-5.382812-12-12v-24c0-6.617188 5.382812-12 12-12h440c6.617188 0 12 5.382812 12 12v24c0 6.617188-5.382812 12-12 12zm-440-40c-2.199219 0-4 1.792969-4 4v24c0 2.207031 1.800781 4 4 4h440c2.199219 0 4-1.792969 4-4v-24c0-2.207031-1.800781-4-4-4zm0 0" fill="#3e2807" fill-opacity="1" data-original-color="#263238ff" stroke="none" stroke-opacity="1"/><path d="m452 512h-440c-6.617188 0-12-5.382812-12-12v-16c0-6.617188 5.382812-12 12-12v-220c0-2.207031 1.792969-4 4-4s4 1.792969 4 4v224c0 2.207031-1.792969 4-4 4h-4c-2.199219 0-4 1.792969-4 4v16c0 2.207031 1.800781 4 4 4h440c2.199219 0 4-1.792969 4-4v-16c0-2.207031-1.800781-4-4-4h-4c-2.207031 0-4-1.792969-4-4v-224c0-2.207031 1.792969-4 4-4s4 1.792969 4 4v220c6.617188 0 12 5.382812 12 12v16c0 6.617188-5.382812 12-12 12zm0 0" fill="#3e2807" fill-opacity="1" data-original-color="#263238ff" stroke="none" stroke-opacity="1"/><path d="m364 184c-2.207031 0-4-1.792969-4-4v-20c0-8.824219-7.175781-16-16-16h-224c-8.824219 0-16 7.175781-16 16v20c0 2.207031-1.792969 4-4 4s-4-1.792969-4-4v-20c0-13.230469 10.769531-24 24-24h224c13.230469 0 24 10.769531 24 24v20c0 2.207031-1.792969 4-4 4zm0 0" fill="#3e2807" fill-opacity="1" data-original-color="#263238ff" stroke="none" stroke-opacity="1"/><path d="m72 184c-2.207031 0-4-1.792969-4-4v-16c0-2.207031-1.800781-4-4-4h-24c-2.199219 0-4 1.792969-4 4v16c0 2.207031-1.792969 4-4 4s-4-1.792969-4-4v-16c0-6.617188 5.382812-12 12-12h24c6.617188 0 12 5.382812 12 12v16c0 2.207031-1.792969 4-4 4zm0 0" fill="#3e2807" fill-opacity="1" data-original-color="#263238ff" stroke="none" stroke-opacity="1"/><path d="m432 184c-2.207031 0-4-1.792969-4-4v-16c0-2.207031-1.800781-4-4-4h-24c-2.199219 0-4 1.792969-4 4v16c0 2.207031-1.792969 4-4 4s-4-1.792969-4-4v-16c0-6.617188 5.382812-12 12-12h24c6.617188 0 12 5.382812 12 12v16c0 2.207031-1.792969 4-4 4zm0 0" fill="#3e2807" fill-opacity="1" data-original-color="#263238ff" stroke="none" stroke-opacity="1"/><path d="m376 452h-288c-4.414062 0-8-3.585938-8-8v-144c0-4.414062 3.585938-8 8-8h288c4.414062 0 8 3.585938 8 8v144c0 4.414062-3.585938 8-8 8zm0 0" fill="#e3a547" fill-opacity="1" data-original-color="#4db6acff" stroke="none" stroke-opacity="1"/><g fill="#263238"><path d="m376 456h-288c-6.617188 0-12-5.382812-12-12v-144c0-6.617188 5.382812-12 12-12h288c6.617188 0 12 5.382812 12 12v144c0 6.617188-5.382812 12-12 12zm-288-160c-2.199219 0-4 1.792969-4 4v144c0 2.207031 1.800781 4 4 4h288c2.199219 0 4-1.792969 4-4v-144c0-2.207031-1.800781-4-4-4zm0 0" fill="#3e2807" fill-opacity="1" data-original-color="#263238ff" stroke="none" stroke-opacity="1"/><path d="m144 24h-32c-2.207031 0-4-1.792969-4-4s1.792969-4 4-4h32c2.207031 0 4 1.792969 4 4s-1.792969 4-4 4zm0 0" fill="#3e2807" fill-opacity="1" data-original-color="#263238ff" stroke="none" stroke-opacity="1"/><path d="m128 40c-2.207031 0-4-1.792969-4-4v-32c0-2.207031 1.792969-4 4-4s4 1.792969 4 4v32c0 2.207031-1.792969 4-4 4zm0 0" fill="#3e2807" fill-opacity="1" data-original-color="#263238ff" stroke="none" stroke-opacity="1"/><path d="m88 80h-32c-2.207031 0-4-1.792969-4-4s1.792969-4 4-4h32c2.207031 0 4 1.792969 4 4s-1.792969 4-4 4zm0 0" fill="#3e2807" fill-opacity="1" data-original-color="#263238ff" stroke="none" stroke-opacity="1"/><path d="m72 96c-2.207031 0-4-1.792969-4-4v-32c0-2.207031 1.792969-4 4-4s4 1.792969 4 4v32c0 2.207031-1.792969 4-4 4zm0 0" fill="#3e2807" fill-opacity="1" data-original-color="#263238ff" stroke="none" stroke-opacity="1"/><path d="m264 92h-8c-2.207031 0-4-1.792969-4-4s1.792969-4 4-4h8c2.207031 0 4 1.792969 4 4s-1.792969 4-4 4zm0 0" fill="#3e2807" fill-opacity="1" data-original-color="#263238ff" stroke="none" stroke-opacity="1"/><path d="m368 92h-88c-2.207031 0-4-1.792969-4-4s1.792969-4 4-4h88c2.207031 0 4 1.792969 4 4s-1.792969 4-4 4zm0 0" fill="#3e2807" fill-opacity="1" data-original-color="#263238ff" stroke="none" stroke-opacity="1"/><path d="m416 68h-8c-2.207031 0-4-1.792969-4-4s1.792969-4 4-4h8c2.207031 0 4 1.792969 4 4s-1.792969 4-4 4zm0 0" fill="#3e2807" fill-opacity="1" data-original-color="#263238ff" stroke="none" stroke-opacity="1"/><path d="m392 68h-88c-2.207031 0-4-1.792969-4-4s1.792969-4 4-4h88c2.207031 0 4 1.792969 4 4s-1.792969 4-4 4zm0 0" fill="#3e2807" fill-opacity="1" data-original-color="#263238ff" stroke="none" stroke-opacity="1"/></g><path d="m272 392h-80c-4.414062 0-8-3.585938-8-8v-24c0-4.414062 3.585938-8 8-8h80c4.414062 0 8 3.585938 8 8v24c0 4.414062-3.585938 8-8 8zm0 0" fill="#ffffff" fill-opacity="1" data-original-color="#ffffffff" stroke="none" stroke-opacity="1"/><path d="m272 396h-80c-6.617188 0-12-5.382812-12-12v-24c0-6.617188 5.382812-12 12-12h80c6.617188 0 12 5.382812 12 12v24c0 6.617188-5.382812 12-12 12zm-80-40c-2.199219 0-4 1.792969-4 4v24c0 2.207031 1.800781 4 4 4h80c2.199219 0 4-1.792969 4-4v-24c0-2.207031-1.800781-4-4-4zm0 0" fill="#3e2807" fill-opacity="1" data-original-color="#263238ff" stroke="none" stroke-opacity="1"/><path d="m424 304c-2.207031 0-4-1.792969-4-4v-36h-36c-2.207031 0-4-1.792969-4-4s1.792969-4 4-4h40c2.207031 0 4 1.792969 4 4v40c0 2.207031-1.792969 4-4 4zm0 0" fill="#3e2807" fill-opacity="1" data-original-color="#263238ff" stroke="none" stroke-opacity="1"/></g></svg>