<svg height="300" viewBox="0 -36 512 512" width="300" xmlns="http://www.w3.org/2000/svg" version="1.1"
    xmlns:xlink="http://www.w3.org/1999/xlink" xmlns:svgjs="http://svgjs.dev/svgjs">
    <g transform="matrix(1,0,0,1,0,0)">
        <path
            d="m28 440h-24c-2.207031 0-4-1.792969-4-4s1.792969-4 4-4h24c2.207031 0 4 1.792969 4 4s-1.792969 4-4 4zm0 0"
            fill="#3e2807" fill-opacity="1" data-original-color="#263238ff" stroke="none" stroke-opacity="1" />
        <path
            d="m508 440h-464c-2.207031 0-4-1.792969-4-4s1.792969-4 4-4h464c2.207031 0 4 1.792969 4 4s-1.792969 4-4 4zm0 0"
            fill="#3e2807" fill-opacity="1" data-original-color="#263238ff" stroke="none" stroke-opacity="1" />
        <path
            d="m468 404h18.230469c3.441406 0 6.503906-2.199219 7.59375-5.472656l9.777343-29.335938c2.519532-7.566406-.914062-15.832031-8.058593-19.382812l-3.632813-1.808594-5.335937-25.457031c-3.359375-16.03125-16.160157-28.390625-32.292969-31.191407l-65.28125-11.351562-93-75.121094c-7.121094-5.742187-15.992188-8.878906-25.136719-8.878906h-161.382812c-12.855469 0-24.9375 6.183594-32.457031 16.617188l-37.023438 51.382812h-25.871094c-6.21875 0-10.058594 6.785156-6.855468 12.113281l16.726562 27.886719v44c-10.296875 0-17.96875 9.488281-15.808594 19.558594l6.457032 30.121094c.792968 3.6875 4.046874 6.320312 7.824218 6.320312h17.527344"
            fill="#e3a547" fill-opacity="1" data-original-color="#ff5252ff" stroke="none" stroke-opacity="1" />
        <path
            d="m486.230469 408h-18.230469c-2.207031 0-4-1.792969-4-4s1.792969-4 4-4h18.230469c1.722656 0 3.25-1.105469 3.800781-2.734375l9.777344-29.335937c1.878906-5.640626-.71875-11.890626-6.039063-14.546876l-3.632812-1.796874c-1.097657-.546876-1.878907-1.5625-2.136719-2.769532l-5.335938-25.457031c-3.046874-14.511719-14.457031-25.535156-29.0625-28.078125l-65.28125-11.351562c-.671874-.113282-1.304687-.402344-1.832031-.832032l-93-75.121094c-6.375-5.160156-14.417969-7.992187-22.625-7.992187h-161.382812c-11.542969 0-22.464844 5.589844-29.207031 14.953125l-37.027344 51.382812c-.75 1.0625-1.957032 1.679688-3.246094 1.679688h-25.871094c-2.105468 0-3.136718 1.414062-3.480468 2.03125-.34375.609375-1.03125 2.214844.046874 4.03125l16.730469 27.882812c.382813.613282.574219 1.328126.574219 2.054688v44c0 2.207031-1.792969 4-4 4-3.6875 0-7.144531 1.648438-9.464844 4.511719-2.320312 2.871093-3.207031 6.59375-2.4375 10.199219l6.453125 30.128906c.402344 1.832031 2.042969 3.160156 3.921875 3.160156h17.527344c2.207031 0 4 1.792969 4 4s-1.792969 4-4 4h-17.527344c-5.617187 0-10.550781-3.984375-11.738281-9.480469l-6.453125-30.136719c-1.28125-5.984374.183594-12.144531 4.03125-16.894531 2.992188-3.703125 7.121094-6.175781 11.679688-7.097656v-39.285156l-16.160157-26.9375c-2.257812-3.761719-2.3125-8.273438-.152343-12.089844 2.160156-3.8125 6.074218-6.078125 10.449218-6.078125h23.824219l35.832031-49.71875c8.246094-11.449219 21.589844-18.28125 35.695313-18.28125h161.382812c10.03125 0 19.847657 3.472656 27.648438 9.777344l92.191406 74.460937 64.257813 11.175781c17.855468 3.105469 31.800781 16.570313 35.519531 34.3125l4.945312 23.554688 1.894531.933594c8.871094 4.425781 13.199219 14.832031 10.0625 24.242187l-9.773437 29.335938c-1.632813 4.910156-6.210937 8.207031-11.378906 8.207031zm0 0"
            fill="#3e2807" fill-opacity="1" data-original-color="#263238ff" stroke="none" stroke-opacity="1" />
        <path
            d="m332 408h-156c-2.207031 0-4-1.792969-4-4s1.792969-4 4-4h156c2.207031 0 4 1.792969 4 4s-1.792969 4-4 4zm0 0"
            fill="#3e2807" fill-opacity="1" data-original-color="#263238ff" stroke="none" stroke-opacity="1" />
        <path d="m452 384c0 28.71875-23.28125 52-52 52s-52-23.28125-52-52 23.28125-52 52-52 52 23.28125 52 52zm0 0"
            fill="#ffffff" fill-opacity="1" data-original-color="#ffffffff" stroke="none" stroke-opacity="1" />
        <path
            d="m400 440c-30.878906 0-56-25.128906-56-56s25.121094-56 56-56 56 25.128906 56 56-25.128906 56-56 56zm0-104c-26.472656 0-48 21.527344-48 48s21.527344 48 48 48 48-21.527344 48-48-21.535156-48-48-48zm0 0"
            fill="#3e2807" fill-opacity="1" data-original-color="#263238ff" stroke="none" stroke-opacity="1" />
        <path
            d="m400 416c-17.648438 0-32-14.351562-32-32s14.351562-32 32-32 32 14.351562 32 32-14.359375 32-32 32zm0-56c-13.230469 0-24 10.769531-24 24s10.769531 24 24 24 24-10.769531 24-24-10.769531-24-24-24zm0 0"
            fill="#3e2807" fill-opacity="1" data-original-color="#263238ff" stroke="none" stroke-opacity="1" />
        <path d="m160 384c0 28.71875-23.28125 52-52 52s-52-23.28125-52-52 23.28125-52 52-52 52 23.28125 52 52zm0 0"
            fill="#ffffff" fill-opacity="1" data-original-color="#ffffffff" stroke="none" stroke-opacity="1" />
        <path
            d="m108 440c-30.878906 0-56-25.128906-56-56s25.121094-56 56-56 56 25.128906 56 56-25.121094 56-56 56zm0-104c-26.472656 0-48 21.527344-48 48s21.527344 48 48 48 48-21.527344 48-48-21.527344-48-48-48zm0 0"
            fill="#3e2807" fill-opacity="1" data-original-color="#263238ff" stroke="none" stroke-opacity="1" />
        <path
            d="m108 416c-17.648438 0-32-14.351562-32-32s14.351562-32 32-32 32 14.351562 32 32-14.351562 32-32 32zm0-56c-13.230469 0-24 10.769531-24 24s10.769531 24 24 24 24-10.769531 24-24-10.769531-24-24-24zm0 0"
            fill="#3e2807" fill-opacity="1" data-original-color="#263238ff" stroke="none" stroke-opacity="1" />
        <path
            d="m123.128906 228.976562-9 24c-4.90625 13.070313 4.757813 27.023438 18.726563 27.023438h256.144531l-79.238281-64h-167.90625c-8.335938 0-15.800781 5.167969-18.726563 12.976562zm0 0"
            fill="#ffffff" fill-opacity="1" data-original-color="#ffffffff" stroke="none" stroke-opacity="1" />
        <path
            d="m389 284h-256.144531c-7.863281 0-15.238281-3.855469-19.71875-10.328125-4.488281-6.472656-5.511719-14.726563-2.753907-22.105469l9-24c3.496094-9.308594 12.527344-15.566406 22.472657-15.566406h167.90625c.910156 0 1.796875.3125 2.511719.886719l79.238281 64c1.320312 1.066406 1.824219 2.839843 1.257812 4.449219-.5625 1.59375-2.074219 2.664062-3.769531 2.664062zm-262.128906-53.617188-9 24c-1.871094 4.984376-1.199219 10.351563 1.832031 14.738282 3.03125 4.375 7.824219 6.878906 13.152344 6.878906h244.824219l-69.335938-56h-166.488281c-6.632813 0-12.65625 4.167969-14.984375 10.382812zm0 0"
            fill="#3e2807" fill-opacity="1" data-original-color="#263238ff" stroke="none" stroke-opacity="1" />
        <path
            d="m381 323.59375c-2.207031 0-4-1.792969-4-4v-23.59375c0-2.207031 1.792969-4 4-4s4 1.792969 4 4v23.59375c0 2.214844-1.792969 4-4 4zm0 0"
            fill="#3e2807" fill-opacity="1" data-original-color="#263238ff" stroke="none" stroke-opacity="1" />
        <path
            d="m220 392c-2.207031 0-4-1.792969-4-4v-92c0-2.207031 1.792969-4 4-4s4 1.792969 4 4v92c0 2.207031-1.792969 4-4 4zm0 0"
            fill="#3e2807" fill-opacity="1" data-original-color="#263238ff" stroke="none" stroke-opacity="1" />
        <path
            d="m220 284c-2.207031 0-4-1.792969-4-4v-64c0-2.207031 1.792969-4 4-4s4 1.792969 4 4v64c0 2.207031-1.792969 4-4 4zm0 0"
            fill="#3e2807" fill-opacity="1" data-original-color="#263238ff" stroke="none" stroke-opacity="1" />
        <path
            d="m73 320h-16c-6.617188 0-12-5.382812-12-12v-16c0-6.617188 5.382812-12 12-12h16c6.617188 0 12 5.382812 12 12v16c0 6.617188-5.382812 12-12 12zm-16-32c-2.207031 0-4 1.800781-4 4v16c0 2.199219 1.792969 4 4 4h16c2.207031 0 4-1.800781 4-4v-16c0-2.199219-1.792969-4-4-4zm0 0"
            fill="#3e2807" fill-opacity="1" data-original-color="#263238ff" stroke="none" stroke-opacity="1" />
        <path
            d="m491.910156 348-5.335937-25.457031c-.476563-2.269531-1.183594-4.4375-2.023438-6.542969h-17.871093c-5.945313 0-9.816407 6.257812-7.152344 11.574219l10.199218 20.425781zm0 0"
            fill="#ffffff" fill-opacity="1" data-original-color="#ffffffff" stroke="none" stroke-opacity="1" />
        <g fill="#263238">
            <path
                d="m491.910156 352h-22.175781c-1.511719 0-2.894531-.855469-3.574219-2.207031l-10.207031-20.425781c-1.875-3.75-1.671875-8.121094.519531-11.679688 2.199219-3.558594 6.015625-5.6875 10.207032-5.6875h17.871093c1.640625 0 3.113281 1 3.722657 2.519531 1.007812 2.550781 1.734374 4.90625 2.214843 7.199219l5.335938 25.457031c.246093 1.175781-.046875 2.410157-.808594 3.34375-.757813.9375-1.902344 1.480469-3.105469 1.480469zm-19.710937-8h14.785156l-4.328125-20.632812c-.230469-1.085938-.527344-2.191407-.914062-3.367188h-15.070313c-2.007813 0-3.046875 1.328125-3.398437 1.894531-.351563.570313-1.082032 2.089844-.175782 3.890625zm0 0"
                fill="#3e2807" fill-opacity="1" data-original-color="#263238ff" stroke="none" stroke-opacity="1" />
            <path
                d="m288.335938 372c-.832032 0-1.648438-.257812-2.335938-.761719-1.039062-.75-1.664062-1.949219-1.664062-3.238281v-38.34375l-18.832032-18.832031c-1.558594-1.558594-1.558594-4.097657 0-5.65625 1.558594-1.558594 4.097656-1.558594 5.65625 0l20 20c.75.753906 1.167969 1.769531 1.167969 2.832031v34.457031l30.734375-10.25c2.113281-.695312 4.363281.449219 5.058594 2.527344.695312 2.097656-.433594 4.363281-2.527344 5.066406l-36 12c-.410156.128907-.832031.199219-1.257812.199219zm0 0"
                fill="#3e2807" fill-opacity="1" data-original-color="#263238ff" stroke="none" stroke-opacity="1" />
            <path
                d="m240.335938 356c-.265626 0-.519532-.023438-.785157-.078125l-60-12c-2.167969-.433594-3.566406-2.539063-3.136719-4.707031.433594-2.167969 2.515626-3.582032 4.707032-3.144532l58.65625 11.730469 46.773437-23.386719c1.96875-.988281 4.378907-.175781 5.371094 1.792969.988281 1.976563.183594 4.378907-1.792969 5.367188l-48 24c-.570312.28125-1.175781.425781-1.792968.425781zm0 0"
                fill="#3e2807" fill-opacity="1" data-original-color="#263238ff" stroke="none" stroke-opacity="1" />
            <path
                d="m417.246094 120h-40.78125c-8.59375 0-16.578125-4.632812-20.839844-12.097656l-6.769531-11.839844c-2.839844-4.972656-8.160157-8.0625-13.886719-8.0625h-205.730469c-7.535156 7.648438-17.78125 12-28.382812 12-22.054688 0-40-17.945312-40-40s17.945312-40 40-40c10.609375 0 20.847656 4.351562 28.382812 12h205.722657c5.726562 0 11.046874-3.089844 13.886718-8.0625l6.769532-11.839844c4.269531-7.464844 12.253906-12.097656 20.847656-12.097656h40.78125c8.59375 0 16.578125 4.632812 20.832031 12.097656l12.53125 21.917969c.703125 1.230469.703125 2.761719-.007813 3.992187-.722656 1.230469-2.035156 1.992188-3.457031 1.992188h-51.816406l-10 20 10 20h51.816406c1.421875 0 2.742188.761719 3.464844 1.992188.710937 1.230468.71875 2.761718.007813 3.992187l-12.527344 21.917969c-4.257813 7.464844-12.25 12.097656-20.84375 12.097656zm-289.734375-40h207.457031c8.589844 0 16.574219 4.632812 20.832031 12.097656l6.765625 11.839844c2.839844 4.972656 8.167969 8.0625 13.898438 8.0625h40.78125c5.730468 0 11.050781-3.089844 13.890625-8.0625l9.101562-15.9375h-47.390625c-1.511718 0-2.894531-.855469-3.574218-2.207031l-12-24c-.5625-1.128907-.5625-2.457031 0-3.578125l12-24c.6875-1.359375 2.0625-2.214844 3.582031-2.214844h47.390625l-9.101563-15.9375c-2.839843-4.972656-8.160156-8.0625-13.898437-8.0625h-40.78125c-5.730469 0-11.050782 3.089844-13.898438 8.0625l-6.765625 11.839844c-4.257812 7.464844-12.242187 12.097656-20.832031 12.097656h-207.457031c-1.136719 0-2.214844-.488281-2.976563-1.320312-6.199218-6.886719-14.605468-10.679688-23.679687-10.679688-17.648438 0-32 14.351562-32 32s14.351562 32 32 32c9.066406 0 17.480469-3.792969 23.679687-10.679688.761719-.832031 1.839844-1.320312 2.976563-1.320312zm-26.65625 0c-11.023438 0-20-8.96875-20-20s8.976562-20 20-20c11.023437 0 20 8.96875 20 20s-8.976563 20-20 20zm0-32c-6.617188 0-12 5.382812-12 12s5.382812 12 12 12c6.617187 0 12-5.382812 12-12s-5.382813-12-12-12zm0 0"
                fill="#3e2807" fill-opacity="1" data-original-color="#263238ff" stroke="none" stroke-opacity="1" />
            <path
                d="m316.855469 64h-160c-2.207031 0-4-1.792969-4-4s1.792969-4 4-4h160c2.207031 0 4 1.792969 4 4s-1.792969 4-4 4zm0 0"
                fill="#3e2807" fill-opacity="1" data-original-color="#263238ff" stroke="none" stroke-opacity="1" />
            <path
                d="m492 179c-2.207031 0-4-1.792969-4-4v-32c0-2.207031 1.792969-4 4-4s4 1.792969 4 4v32c0 2.207031-1.792969 4-4 4zm0 0"
                fill="#3e2807" fill-opacity="1" data-original-color="#263238ff" stroke="none" stroke-opacity="1" />
            <path
                d="m508 163h-32c-2.207031 0-4-1.792969-4-4s1.792969-4 4-4h32c2.207031 0 4 1.792969 4 4s-1.792969 4-4 4zm0 0"
                fill="#3e2807" fill-opacity="1" data-original-color="#263238ff" stroke="none" stroke-opacity="1" />
            <path
                d="m428 227c-2.207031 0-4-1.792969-4-4v-32c0-2.207031 1.792969-4 4-4s4 1.792969 4 4v32c0 2.207031-1.792969 4-4 4zm0 0"
                fill="#3e2807" fill-opacity="1" data-original-color="#263238ff" stroke="none" stroke-opacity="1" />
            <path
                d="m444 211h-32c-2.207031 0-4-1.792969-4-4s1.792969-4 4-4h32c2.207031 0 4 1.792969 4 4s-1.792969 4-4 4zm0 0"
                fill="#3e2807" fill-opacity="1" data-original-color="#263238ff" stroke="none" stroke-opacity="1" />
        </g>
    </g>
</svg>