<svg height="300" viewBox="0 0 456 456" width="300" xmlns="http://www.w3.org/2000/svg" version="1.1" xmlns:xlink="http://www.w3.org/1999/xlink" xmlns:svgjs="http://svgjs.dev/svgjs"><g transform="matrix(1,0,0,1,0,0)"><path d="m228 320c-50.726562 0-92-41.273438-92-92s41.273438-92 92-92 92 41.273438 92 92-41.265625 92-92 92zm0-176c-46.320312 0-84 37.679688-84 84s37.679688 84 84 84 84-37.679688 84-84-37.679688-84-84-84zm0 0" fill="#263238" fill-opacity="1" data-original-color="#263238ff" stroke="none" stroke-opacity="1"/><path d="m228 264c-19.847656 0-36-16.152344-36-36s16.152344-36 36-36 36 16.152344 36 36-16.152344 36-36 36zm0-64c-15.441406 0-28 12.558594-28 28s12.558594 28 28 28c15.433594 0 28-12.558594 28-28s-12.558594-28-28-28zm0 0" fill="#263238" fill-opacity="1" data-original-color="#263238ff" stroke="none" stroke-opacity="1"/><path d="m4 232c-2.207031 0-4-1.792969-4-4 0-125.71875 102.28125-228 228-228 2.207031 0 4 1.792969 4 4s-1.792969 4-4 4c-121.3125 0-220 98.6875-220 220 0 2.207031-1.792969 4-4 4zm0 0" fill="#263238" fill-opacity="1" data-original-color="#263238ff" stroke="none" stroke-opacity="1"/><path d="m252 8h-8c-2.207031 0-4-1.792969-4-4s1.792969-4 4-4h8c2.207031 0 4 1.792969 4 4s-1.792969 4-4 4zm0 0" fill="#263238" fill-opacity="1" data-original-color="#263238ff" stroke="none" stroke-opacity="1"/><path d="m228 456c-2.207031 0-4-1.792969-4-4s1.792969-4 4-4c121.304688 0 220-98.6875 220-220 0-2.207031 1.792969-4 4-4s4 1.792969 4 4c0 125.71875-102.28125 228-228 228zm0 0" fill="#263238" fill-opacity="1" data-original-color="#263238ff" stroke="none" stroke-opacity="1"/><path d="m212 456h-8c-2.207031 0-4-1.792969-4-4s1.792969-4 4-4h8c2.207031 0 4 1.792969 4 4s-1.792969 4-4 4zm0 0" fill="#263238" fill-opacity="1" data-original-color="#263238ff" stroke="none" stroke-opacity="1"/><path d="m228 36.207031v79.792969c61.855469 0 112 50.144531 112 112h79.792969c4.496093 0 8.222656-3.71875 8.039062-8.214844-4.191406-103.921875-87.6875-187.425781-191.617187-191.617187-4.496094-.183594-8.214844 3.535156-8.214844 8.039062zm0 0" fill="#e3a547" fill-opacity="1" data-original-color="#ffd740ff" stroke="none" stroke-opacity="1"/><g fill="#263238"><path d="m419.800781 232h-79.800781c-2.207031 0-4-1.792969-4-4 0-59.550781-48.449219-108-108-108-2.207031 0-4-1.792969-4-4v-79.800781c0-3.269531 1.351562-6.457031 3.71875-8.726563 2.359375-2.265625 5.59375-3.496094 8.648438-3.304687 105.351562 4.257812 191.199218 90.113281 195.464843 195.464843.128907 3.222657-1.046875 6.296876-3.304687 8.648438-2.269532 2.367188-5.457032 3.71875-8.726563 3.71875zm-75.871093-8h75.863281c1.109375 0 2.183593-.464844 2.960937-1.265625.742188-.765625 1.125-1.757813 1.078125-2.78125-4.078125-101.21875-86.558593-183.707031-187.777343-187.792969-.941407-.023437-2.015626.335938-2.78125 1.078125-.808594.777344-1.273438 1.859375-1.273438 2.960938v75.863281c60.792969 2.082031 109.855469 51.144531 111.929688 111.9375zm0 0" fill="#263238" fill-opacity="1" data-original-color="#263238ff" stroke="none" stroke-opacity="1"/><path d="m228 400c-94.839844 0-172-77.160156-172-172 0-89.191406 66.902344-162.785156 155.625-171.167969 2.183594-.265625 4.152344 1.40625 4.351562 3.609375.207032 2.199219-1.410156 4.152344-3.609374 4.351563-84.574219 8-148.367188 78.160156-148.367188 163.207031 0 90.433594 73.566406 164 164 164 85.039062 0 155.214844-63.792969 163.207031-148.375.207031-2.210938 2.328125-3.824219 4.359375-3.609375 2.203125.207031 3.816406 2.160156 3.609375 4.351563-8.382812 88.730468-81.976562 155.632812-171.175781 155.632812zm0 0" fill="#263238" fill-opacity="1" data-original-color="#263238ff" stroke="none" stroke-opacity="1"/><path d="m185.574219 197.574219c-3.207031 0-6.222657-1.246094-8.484375-3.511719-4.675782-4.679688-4.675782-12.285156 0-16.964844 4.519531-4.53125 12.4375-4.539062 16.964844 0 4.679687 4.679688 4.679687 12.285156 0 16.964844-2.253907 2.265625-5.269532 3.511719-8.480469 3.511719zm0-16c-1.070313 0-2.070313.417969-2.820313 1.167969-1.5625 1.5625-1.5625 4.097656 0 5.65625 1.511719 1.511718 4.140625 1.511718 5.652344 0 1.5625-1.558594 1.5625-4.09375 0-5.65625-.757812-.75-1.757812-1.167969-2.832031-1.167969zm0 0" fill="#263238" fill-opacity="1" data-original-color="#263238ff" stroke="none" stroke-opacity="1"/><path d="m270.433594 282.414062c-3.074219 0-6.152344-1.167968-8.488282-3.503906-2.265624-2.261718-3.511718-5.277344-3.511718-8.484375 0-3.203125 1.246094-6.21875 3.511718-8.488281 4.671876-4.679688 12.292969-4.679688 16.964844 0 2.265625 2.261719 3.515625 5.277344 3.515625 8.488281 0 3.207031-1.25 6.222657-3.515625 8.484375-2.335937 2.335938-5.414062 3.503906-8.476562 3.503906zm0-15.980468c-1.027344 0-2.050782.382812-2.832032 1.167968-.761718.757813-1.167968 1.757813-1.167968 2.832032 0 1.070312.414062 2.070312 1.167968 2.824218 1.558594 1.558594 4.09375 1.558594 5.65625 0 .757813-.761718 1.167969-1.761718 1.167969-2.832031 0-1.066406-.417969-2.074219-1.167969-2.832031-.777343-.777344-1.800781-1.160156-2.824218-1.160156zm0 0" fill="#263238" fill-opacity="1" data-original-color="#263238ff" stroke="none" stroke-opacity="1"/><path d="m270.433594 197.566406c-3.074219 0-6.152344-1.167968-8.488282-3.503906-4.679687-4.679688-4.679687-12.285156 0-16.964844 4.671876-4.683594 12.292969-4.683594 16.964844 0 4.683594 4.679688 4.683594 12.285156 0 16.964844-2.335937 2.335938-5.414062 3.503906-8.476562 3.503906zm0-15.992187c-1.027344 0-2.050782.386719-2.832032 1.167969-1.5625 1.5625-1.5625 4.097656 0 5.65625 1.558594 1.5625 4.09375 1.5625 5.65625 0 1.558594-1.558594 1.558594-4.09375 0-5.65625-.777343-.773438-1.800781-1.167969-2.824218-1.167969zm0 0" fill="#263238" fill-opacity="1" data-original-color="#263238ff" stroke="none" stroke-opacity="1"/><path d="m185.574219 282.425781c-3.207031 0-6.222657-1.25-8.484375-3.515625-2.265625-2.261718-3.515625-5.277344-3.515625-8.484375 0-3.203125 1.25-6.21875 3.515625-8.488281 4.519531-4.53125 12.4375-4.539062 16.964844 0 2.265624 2.261719 3.511718 5.277344 3.511718 8.488281 0 3.207031-1.246094 6.222657-3.511718 8.484375-2.261719 2.265625-5.269532 3.515625-8.480469 3.515625zm0-16c-1.070313 0-2.070313.414063-2.820313 1.167969-.761718.757812-1.179687 1.757812-1.179687 2.832031 0 1.070313.417969 2.070313 1.167969 2.820313 1.515624 1.523437 4.144531 1.523437 5.65625 0 .761718-.75 1.167968-1.75 1.167968-2.820313 0-1.066406-.414062-2.074219-1.167968-2.832031-.75-.753906-1.75-1.167969-2.824219-1.167969zm0 0" fill="#263238" fill-opacity="1" data-original-color="#263238ff" stroke="none" stroke-opacity="1"/><path d="m366.257812 192h-33.746093c-1.65625 0-3.144531-1.023438-3.734375-2.566406-10.953125-28.585938-33.625-51.257813-62.210938-62.210938-1.542968-.589844-2.566406-2.078125-2.566406-3.734375v-33.734375c0-1.257812.59375-2.441406 1.59375-3.195312 1.015625-.75 2.308594-1 3.511719-.648438 48.328125 13.960938 87.023437 52.65625 100.992187 100.984375.351563 1.210938.109375 2.503907-.648437 3.511719-.746094 1-1.9375 1.59375-3.191407 1.59375zm-31.027343-8h25.59375c-13.832031-41.632812-47.199219-75-88.832031-88.824219v25.59375c28.648437 11.765625 51.480468 34.589844 63.238281 63.230469zm0 0" fill="#263238" fill-opacity="1" data-original-color="#263238ff" stroke="none" stroke-opacity="1"/><path d="m28 392c-2.207031 0-4-1.792969-4-4v-32c0-2.207031 1.792969-4 4-4s4 1.792969 4 4v32c0 2.207031-1.792969 4-4 4zm0 0" fill="#263238" fill-opacity="1" data-original-color="#263238ff" stroke="none" stroke-opacity="1"/><path d="m44 376h-32c-2.207031 0-4-1.792969-4-4s1.792969-4 4-4h32c2.207031 0 4 1.792969 4 4s-1.792969 4-4 4zm0 0" fill="#263238" fill-opacity="1" data-original-color="#263238ff" stroke="none" stroke-opacity="1"/><path d="m80 448c-2.207031 0-4-1.792969-4-4v-32c0-2.207031 1.792969-4 4-4s4 1.792969 4 4v32c0 2.207031-1.792969 4-4 4zm0 0" fill="#263238" fill-opacity="1" data-original-color="#263238ff" stroke="none" stroke-opacity="1"/><path d="m96 432h-32c-2.207031 0-4-1.792969-4-4s1.792969-4 4-4h32c2.207031 0 4 1.792969 4 4s-1.792969 4-4 4zm0 0" fill="#263238" fill-opacity="1" data-original-color="#263238ff" stroke="none" stroke-opacity="1"/></g></g></svg>