<svg height="300" viewBox="-6 0 474 474" width="300" xmlns="http://www.w3.org/2000/svg" version="1.1" xmlns:xlink="http://www.w3.org/1999/xlink" xmlns:svgjs="http://svgjs.dev/svgjs"><g transform="matrix(1,0,0,1,0,0)"><path d="m415.199219 444h-367.777344c-19.648437 0-37.074219-13.207031-42.367187-32.128906l-3.359376-12c-3.753906-13.367188-1.089843-27.390625 7.300782-38.457032 8.394531-11.0625 21.167968-17.414062 35.066406-17.414062h374.496094c13.886718 0 26.671875 6.34375 35.0625 17.414062 8.390625 11.074219 11.054687 25.089844 7.304687 38.457032l-3.359375 12c-5.296875 18.921875-22.722656 32.128906-42.367187 32.128906zm-371.136719-92c-11.367188 0-21.824219 5.191406-28.6875 14.246094-6.867188 9.058594-9.050781 20.523437-5.976562 31.472656l3.359374 12c4.335938 15.480469 18.582032 26.289062 34.664063 26.289062h367.785156c16.078125 0 30.328125-10.808593 34.664063-26.289062l3.359375-12c3.070312-10.941406.886719-22.414062-5.976563-31.472656-6.863281-9.054688-17.320312-14.246094-28.6875-14.246094zm0 0" fill="#3e2807" fill-opacity="1" data-original-color="#263238ff" stroke="none" stroke-opacity="1"/><path d="m178.621094 316h-134.625c-23.839844 0-42.390625-20.71875-39.75-44.414062l15.113281-136c2.246094-20.257813 19.375-35.585938 39.75-35.585938h104.398437c20.386719 0 37.503907 15.328125 39.753907 35.585938l15.113281 136c2.628906 23.695312-15.914062 44.414062-39.753906 44.414062zm0 0" fill="#e3a547" fill-opacity="1" data-original-color="#ff5252ff" stroke="none" stroke-opacity="1"/><path d="m178.621094 320h-134.625c-12.496094 0-24.445313-5.335938-32.78125-14.65625-8.335938-9.320312-12.328125-21.785156-10.945313-34.207031l15.113281-136c2.480469-22.3125 21.277344-39.144531 43.734376-39.144531h104.390624c22.457032 0 41.257813 16.832031 43.738282 39.144531l15.113281 136c1.382813 12.421875-2.609375 24.886719-10.945313 34.207031-8.34375 9.320312-20.289062 14.65625-32.792968 14.65625zm-119.503906-216c-18.375 0-33.757813 13.769531-35.785157 32.023438l-15.109375 136c-1.136718 10.167968 2.136719 20.367187 8.949219 27.992187 6.824219 7.617187 16.59375 11.992187 26.824219 11.992187h134.625c10.222656 0 20-4.367187 26.824218-11.992187 6.824219-7.625 10.089844-17.824219 8.953126-27.992187l-15.113282-136c-2.023437-18.253907-17.40625-32.023438-35.785156-32.023438zm0 0" fill="#3e2807" fill-opacity="1" data-original-color="#263238ff" stroke="none" stroke-opacity="1"/><path d="m178.621094 296c-2.207032 0-4-1.792969-4-4s1.792968-4 4-4c4.664062 0 7.601562-2.503906 8.945312-4 1.328125-1.496094 3.496094-4.6875 2.976563-9.328125l-15.113281-136c-.679688-6.085937-5.808594-10.671875-11.929688-10.671875-2.207031 0-4-1.792969-4-4s1.792969-4 4-4c10.203125 0 18.753906 7.648438 19.882812 17.792969l15.109376 136c.855468 7.726562-2.75 13.054687-4.964844 15.542969-2.234375 2.496093-7.128906 6.664062-14.90625 6.664062zm0 0" fill="#3e2807" fill-opacity="1" data-original-color="#263238ff" stroke="none" stroke-opacity="1"/><path d="m418.621094 316h-134.625c-23.839844 0-42.390625-20.71875-39.75-44.414062l15.113281-136c2.246094-20.257813 19.375-35.585938 39.75-35.585938h104.398437c20.386719 0 37.503907 15.328125 39.753907 35.585938l15.113281 136c2.628906 23.695312-15.914062 44.414062-39.753906 44.414062zm0 0" fill="#e3a547" fill-opacity="1" data-original-color="#ff5252ff" stroke="none" stroke-opacity="1"/><path d="m418.621094 320h-134.625c-12.496094 0-24.445313-5.335938-32.78125-14.65625-8.335938-9.320312-12.328125-21.785156-10.945313-34.207031l15.113281-136c2.480469-22.3125 21.277344-39.144531 43.734376-39.144531h104.390624c22.457032 0 41.257813 16.832031 43.738282 39.144531l15.113281 136c1.382813 12.421875-2.609375 24.886719-10.945313 34.207031-8.34375 9.320312-20.289062 14.65625-32.792968 14.65625zm-119.503906-216c-18.375 0-33.757813 13.769531-35.785157 32.023438l-15.109375 136c-1.136718 10.167968 2.136719 20.367187 8.949219 27.992187 6.824219 7.617187 16.59375 11.992187 26.824219 11.992187h134.625c10.222656 0 20-4.367187 26.824218-11.992187 6.824219-7.625 10.089844-17.824219 8.953126-27.992187l-15.113282-136c-2.023437-18.253907-17.40625-32.023438-35.785156-32.023438zm0 0" fill="#3e2807" fill-opacity="1" data-original-color="#263238ff" stroke="none" stroke-opacity="1"/><path d="m418.621094 296c-2.207032 0-4-1.792969-4-4s1.792968-4 4-4c4.664062 0 7.601562-2.503906 8.945312-4 1.328125-1.496094 3.496094-4.6875 2.976563-9.328125l-15.113281-136c-.679688-6.085937-5.808594-10.671875-11.929688-10.671875-2.207031 0-4-1.792969-4-4s1.792969-4 4-4c10.203125 0 18.753906 7.648438 19.882812 17.792969l15.109376 136c.855468 7.726562-2.75 13.054687-4.964844 15.542969-2.234375 2.496093-7.128906 6.664062-14.90625 6.664062zm0 0" fill="#3e2807" fill-opacity="1" data-original-color="#263238ff" stroke="none" stroke-opacity="1"/><path d="m143.308594 84h-64c-11.046875 0-20-8.953125-20-20v-40c0-11.046875 8.953125-20 20-20h64c11.050781 0 20 8.953125 20 20v40c0 11.046875-8.949219 20-20 20zm0 0" fill="#e3a547" fill-opacity="1" data-original-color="#ff5252ff" stroke="none" stroke-opacity="1"/><path d="m143.308594 88h-64c-13.230469 0-24-10.769531-24-24v-40c0-13.230469 10.769531-24 24-24h64c13.234375 0 24 10.769531 24 24v40c0 13.230469-10.765625 24-24 24zm-64-80c-8.824219 0-16 7.175781-16 16v40c0 8.824219 7.175781 16 16 16h64c8.824218 0 16-7.175781 16-16v-40c0-8.824219-7.175782-16-16-16zm0 0" fill="#3e2807" fill-opacity="1" data-original-color="#263238ff" stroke="none" stroke-opacity="1"/><path d="m187.308594 336c-2.207032 0-4-1.792969-4-4v-12h-144v12c0 2.207031-1.792969 4-4 4-2.207032 0-4-1.792969-4-4v-16c0-2.207031 1.792968-4 4-4h152c2.207031 0 4 1.792969 4 4v16c0 2.207031-1.792969 4-4 4zm0 0" fill="#3e2807" fill-opacity="1" data-original-color="#263238ff" stroke="none" stroke-opacity="1"/><path d="m143.308594 180h-64c-11.046875 0-20 8.953125-20 20v116h104v-116c0-11.046875-8.949219-20-20-20zm0 0" fill="#ffd493" fill-opacity="1" data-original-color="#ffffffff" stroke="none" stroke-opacity="1"/><path d="m163.308594 320h-104c-2.207032 0-4-1.792969-4-4v-116c0-13.230469 10.769531-24 24-24h64c13.234375 0 24 10.769531 24 24v116c0 2.207031-1.792969 4-4 4zm-100-8h96v-112c0-8.824219-7.175782-16-16-16h-64c-8.824219 0-16 7.175781-16 16zm0 0" fill="#3e2807" fill-opacity="1" data-original-color="#263238ff" stroke="none" stroke-opacity="1"/><path d="m147.308594 228h-72c-2.207032 0-4-1.792969-4-4s1.792968-4 4-4h72c2.207031 0 4 1.792969 4 4s-1.792969 4-4 4zm0 0" fill="#3e2807" fill-opacity="1" data-original-color="#263238ff" stroke="none" stroke-opacity="1"/><path d="m147.308594 276h-72c-2.207032 0-4-1.792969-4-4s1.792968-4 4-4h72c2.207031 0 4 1.792969 4 4s-1.792969 4-4 4zm0 0" fill="#3e2807" fill-opacity="1" data-original-color="#263238ff" stroke="none" stroke-opacity="1"/><path d="m383.308594 84h-64c-11.046875 0-20-8.953125-20-20v-40c0-11.046875 8.953125-20 20-20h64c11.050781 0 20 8.953125 20 20v40c0 11.046875-8.949219 20-20 20zm0 0" fill="#e3a547" fill-opacity="1" data-original-color="#ff5252ff" stroke="none" stroke-opacity="1"/><path d="m383.308594 88h-64c-13.230469 0-24-10.769531-24-24v-40c0-13.230469 10.769531-24 24-24h64c13.234375 0 24 10.769531 24 24v40c0 13.230469-10.765625 24-24 24zm-64-80c-8.824219 0-16 7.175781-16 16v40c0 8.824219 7.175781 16 16 16h64c8.824218 0 16-7.175781 16-16v-40c0-8.824219-7.175782-16-16-16zm0 0" fill="#3e2807" fill-opacity="1" data-original-color="#263238ff" stroke="none" stroke-opacity="1"/><path d="m427.308594 336c-2.207032 0-4-1.792969-4-4v-12h-144v12c0 2.207031-1.792969 4-4 4-2.207032 0-4-1.792969-4-4v-16c0-2.207031 1.792968-4 4-4h152c2.207031 0 4 1.792969 4 4v16c0 2.207031-1.792969 4-4 4zm0 0" fill="#3e2807" fill-opacity="1" data-original-color="#263238ff" stroke="none" stroke-opacity="1"/><path d="m383.308594 180h-64c-11.046875 0-20 8.953125-20 20v116h104v-116c0-11.046875-8.949219-20-20-20zm0 0" fill="#ffd493" fill-opacity="1" data-original-color="#ffffffff" stroke="none" stroke-opacity="1"/><g fill="#263238"><path d="m403.308594 320h-104c-2.207032 0-4-1.792969-4-4v-116c0-13.230469 10.769531-24 24-24h64c13.234375 0 24 10.769531 24 24v116c0 2.207031-1.792969 4-4 4zm-100-8h96v-112c0-8.824219-7.175782-16-16-16h-64c-8.824219 0-16 7.175781-16 16zm0 0" fill="#3e2807" fill-opacity="1" data-original-color="#263238ff" stroke="none" stroke-opacity="1"/><path d="m387.308594 228h-72c-2.207032 0-4-1.792969-4-4s1.792968-4 4-4h72c2.207031 0 4 1.792969 4 4s-1.792969 4-4 4zm0 0" fill="#3e2807" fill-opacity="1" data-original-color="#263238ff" stroke="none" stroke-opacity="1"/><path d="m387.308594 276h-72c-2.207032 0-4-1.792969-4-4s1.792968-4 4-4h72c2.207031 0 4 1.792969 4 4s-1.792969 4-4 4zm0 0" fill="#3e2807" fill-opacity="1" data-original-color="#263238ff" stroke="none" stroke-opacity="1"/><path d="m231.308594 428c-2.207032 0-4-1.792969-4-4v-60c0-2.207031 1.792968-4 4-4 2.207031 0 4 1.792969 4 4v60c0 2.207031-1.792969 4-4 4zm0 0" fill="#3e2807" fill-opacity="1" data-original-color="#263238ff" stroke="none" stroke-opacity="1"/><path d="m151.308594 474h-16c-2.207032 0-4-1.792969-4-4s1.792968-4 4-4h16c2.207031 0 4 1.792969 4 4s-1.792969 4-4 4zm0 0" fill="#3e2807" fill-opacity="1" data-original-color="#263238ff" stroke="none" stroke-opacity="1"/><path d="m327.308594 474h-160c-2.207032 0-4-1.792969-4-4s1.792968-4 4-4h160c2.207031 0 4 1.792969 4 4s-1.792969 4-4 4zm0 0" fill="#3e2807" fill-opacity="1" data-original-color="#263238ff" stroke="none" stroke-opacity="1"/></g></g></svg>