<svg height="300" viewBox="0 -49 512 511" width="300" xmlns="http://www.w3.org/2000/svg" version="1.1" xmlns:xlink="http://www.w3.org/1999/xlink" xmlns:svgjs="http://svgjs.dev/svgjs"><g transform="matrix(1,0,0,1,0,0)"><path d="m168 264.5h-60c-4.414062 0-8-3.585938-8-8v-96c0-4.414062 3.585938-8 8-8h272c4.414062 0 8 3.585938 8 8v96c0 4.414062-3.585938 8-8 8h-20" fill="#e3a547" fill-opacity="1" data-original-color="#40c4ffff" stroke="none" stroke-opacity="1"/><path d="m380 268.5h-20c-2.207031 0-4-1.792969-4-4s1.792969-4 4-4h20c2.207031 0 4-1.792969 4-4v-96c0-2.207031-1.792969-4-4-4h-272c-2.207031 0-4 1.792969-4 4v96c0 2.207031 1.792969 4 4 4h60c2.207031 0 4 1.792969 4 4s-1.792969 4-4 4h-60c-6.617188 0-12-5.382812-12-12v-96c0-6.617188 5.382812-12 12-12h272c6.617188 0 12 5.382812 12 12v96c0 6.617188-5.382812 12-12 12zm0 0" fill="#3e2807" fill-opacity="1" data-original-color="#263238ff" stroke="none" stroke-opacity="1"/><path d="m320 100.5c-1.246094 0-2.480469-.585938-3.257812-1.671875l-18.796876-26.328125h-107.890624l-18.808594 26.328125c-1.277344 1.800781-3.78125 2.214844-5.574219.929687-1.800781-1.28125-2.214844-3.785156-.929687-5.578124l20-28c.753906-1.054688 1.960937-1.679688 3.257812-1.679688h112c1.296875 0 2.503906.625 3.257812 1.671875l20 28c1.285157 1.800781.863282 4.296875-.929687 5.574219-.703125.515625-1.519531.753906-2.328125.753906zm0 0" fill="#3e2807" fill-opacity="1" data-original-color="#263238ff" stroke="none" stroke-opacity="1"/><path d="m276 56.5c-2.207031 0-4-1.792969-4-4v-20h-56v20c0 2.207031-1.792969 4-4 4s-4-1.792969-4-4v-24c0-2.207031 1.792969-4 4-4h64c2.207031 0 4 1.792969 4 4v24c0 2.207031-1.792969 4-4 4zm0 0" fill="#3e2807" fill-opacity="1" data-original-color="#263238ff" stroke="none" stroke-opacity="1"/><path d="m280 32.5h-72c-6.617188 0-12-5.382812-12-12v-8c0-6.617188 5.382812-12 12-12h72c6.617188 0 12 5.382812 12 12v8c0 6.617188-5.382812 12-12 12zm-72-24c-2.207031 0-4 1.792969-4 4v8c0 2.207031 1.792969 4 4 4h72c2.207031 0 4-1.792969 4-4v-8c0-2.207031-1.792969-4-4-4zm0 0" fill="#3e2807" fill-opacity="1" data-original-color="#263238ff" stroke="none" stroke-opacity="1"/><path d="m400 408.5h-156c-5.273438 0-10.199219-2.59375-13.183594-6.9375l-44-64c-1.832031-2.664062-2.816406-5.824219-2.816406-9.0625v-72c0-8.832031 7.167969-16 16-16s16 7.167969 16 16v67.03125l36.414062 52.96875h147.585938c8.832031 0 16 7.167969 16 16s-7.167969 16-16 16zm0 0" fill="#e3a547" fill-opacity="1" data-original-color="#ffd740ff" stroke="none" stroke-opacity="1"/><g fill="#263238"><path d="m400 412.5h-156c-6.585938 0-12.742188-3.238281-16.480469-8.664062l-44-64c-2.304687-3.34375-3.519531-7.273438-3.519531-11.335938v-72c0-11.023438 8.976562-20 20-20s20 8.976562 20 20v65.792969l34.519531 50.207031h145.480469c11.023438 0 20 8.976562 20 20s-8.976562 20-20 20zm-200-168c-6.617188 0-12 5.382812-12 12v72c0 2.441406.726562 4.792969 2.113281 6.800781l44 64c2.238281 3.253907 5.933594 5.199219 9.886719 5.199219h156c6.617188 0 12-5.382812 12-12s-5.382812-12-12-12h-147.585938c-1.316406 0-2.550781-.648438-3.292968-1.734375l-36.417969-52.96875c-.457031-.664063-.703125-1.457031-.703125-2.265625v-67.03125c0-6.617188-5.382812-12-12-12zm0 0" fill="#3e2807" fill-opacity="1" data-original-color="#263238ff" stroke="none" stroke-opacity="1"/><path d="m408 364.5h-19.167969c-2.207031 0-4-1.792969-4-4s1.792969-4 4-4h19.167969c8.824219 0 16-7.175781 16-16v-208c0-8.824219-7.175781-16-16-16h-328c-8.824219 0-16 7.175781-16 16v160c0 8.824219 7.175781 16 16 16h44c.726562 0 1.441406.191406 2.054688.566406l46.351562 27.808594c1.898438 1.136719 2.503906 3.59375 1.371094 5.488281-1.136719 1.898438-3.59375 2.511719-5.488282 1.367188l-45.402343-27.230469h-42.886719c-13.230469 0-24-10.769531-24-24v-160c0-13.230469 10.769531-24 24-24h328c13.230469 0 24 10.769531 24 24v208c0 13.230469-10.769531 24-24 24zm0 0" fill="#3e2807" fill-opacity="1" data-original-color="#263238ff" stroke="none" stroke-opacity="1"/><path d="m468 284.5h-24c-2.207031 0-4-1.792969-4-4s1.792969-4 4-4h20v-88h-20c-2.207031 0-4-1.792969-4-4s1.792969-4 4-4h24c2.207031 0 4 1.792969 4 4v96c0 2.207031-1.792969 4-4 4zm0 0" fill="#3e2807" fill-opacity="1" data-original-color="#263238ff" stroke="none" stroke-opacity="1"/><path d="m468 332.5c-2.207031 0-4-1.792969-4-4v-192c0-2.207031 1.792969-4 4-4 24.265625 0 44 19.734375 44 44v112c0 24.265625-19.734375 44-44 44zm4-191.777344v183.554688c17.976562-2 32-17.28125 32-35.777344v-112c0-18.496094-14.023438-33.785156-32-35.777344zm0 0" fill="#3e2807" fill-opacity="1" data-original-color="#263238ff" stroke="none" stroke-opacity="1"/><path d="m60 240.5h-24c-2.207031 0-4-1.792969-4-4v-48c0-2.207031 1.792969-4 4-4h24c2.207031 0 4 1.792969 4 4v48c0 2.207031-1.792969 4-4 4zm-20-8h16v-40h-16zm0 0" fill="#3e2807" fill-opacity="1" data-original-color="#263238ff" stroke="none" stroke-opacity="1"/><path d="m36 216.5h-12c-13.230469 0-24-10.769531-24-24v-76c0-2.207031 1.792969-4 4-4h12c13.230469 0 24 10.769531 24 24v76c0 2.207031-1.792969 4-4 4zm-28-96v72c0 8.824219 7.175781 16 16 16h8v-72c0-8.824219-7.175781-16-16-16zm0 0" fill="#3e2807" fill-opacity="1" data-original-color="#263238ff" stroke="none" stroke-opacity="1"/><path d="m16 312.5h-12c-2.207031 0-4-1.792969-4-4v-76c0-13.230469 10.769531-24 24-24h12c2.207031 0 4 1.792969 4 4v76c0 13.230469-10.769531 24-24 24zm-8-8h8c8.824219 0 16-7.175781 16-16v-72h-8c-8.824219 0-16 7.175781-16 16zm0 0" fill="#3e2807" fill-opacity="1" data-original-color="#263238ff" stroke="none" stroke-opacity="1"/></g><path d="m305.414062 360.5-25.414062-36.96875v-67.03125c0-8.832031-7.167969-16-16-16s-16 7.167969-16 16v72c0 3.238281.984375 6.398438 2.816406 9.0625l15.769532 22.9375" fill="#e3a547" fill-opacity="1" data-original-color="#ffd740ff" stroke="none" stroke-opacity="1"/><path d="m266.585938 364.5c-1.273438 0-2.523438-.609375-3.304688-1.734375l-15.769531-22.9375c-2.296875-3.335937-3.511719-7.265625-3.511719-11.328125v-72c0-11.023438 8.976562-20 20-20s20 8.976562 20 20v65.792969l24.710938 35.941406c1.25 1.824219.792968 4.3125-1.03125 5.5625-1.816407 1.253906-4.304688.792969-5.558594-1.03125l-25.417969-36.96875c-.457031-.664063-.703125-1.457031-.703125-2.265625v-67.03125c0-6.617188-5.382812-12-12-12s-12 5.382812-12 12v72c0 2.441406.726562 4.792969 2.113281 6.800781l15.765625 22.933594c1.25 1.824219.792969 4.3125-1.03125 5.5625-.6875.480469-1.480468.703125-2.261718.703125zm0 0" fill="#3e2807" fill-opacity="1" data-original-color="#263238ff" stroke="none" stroke-opacity="1"/><path d="m369.414062 360.5-25.414062-36.96875v-67.03125c0-8.832031-7.167969-16-16-16s-16 7.167969-16 16v72c0 3.238281.984375 6.398438 2.816406 9.0625l15.769532 22.9375" fill="#e3a547" fill-opacity="1" data-original-color="#ffd740ff" stroke="none" stroke-opacity="1"/><path d="m330.585938 364.5c-1.273438 0-2.523438-.609375-3.304688-1.734375l-15.769531-22.9375c-2.296875-3.335937-3.511719-7.265625-3.511719-11.328125v-72c0-11.023438 8.976562-20 20-20s20 8.976562 20 20v65.792969l24.710938 35.941406c1.25 1.824219.792968 4.3125-1.03125 5.5625-1.816407 1.253906-4.304688.792969-5.558594-1.03125l-25.417969-36.96875c-.457031-.664063-.703125-1.457031-.703125-2.265625v-67.03125c0-6.617188-5.382812-12-12-12s-12 5.382812-12 12v72c0 2.441406.726562 4.792969 2.113281 6.800781l15.765625 22.933594c1.25 1.824219.792969 4.3125-1.03125 5.5625-.6875.480469-1.480468.703125-2.261718.703125zm0 0" fill="#3e2807" fill-opacity="1" data-original-color="#263238ff" stroke="none" stroke-opacity="1"/><path d="m284 212.5h-80c-4.414062 0-8-3.585938-8-8v-16c0-4.414062 3.585938-8 8-8h80c4.414062 0 8 3.585938 8 8v16c0 4.414062-3.585938 8-8 8zm0 0" fill="#ffffff" fill-opacity="1" data-original-color="#ffffffff" stroke="none" stroke-opacity="1"/><path d="m284 216.5h-80c-6.617188 0-12-5.382812-12-12v-16c0-6.617188 5.382812-12 12-12h80c6.617188 0 12 5.382812 12 12v16c0 6.617188-5.382812 12-12 12zm-80-32c-2.207031 0-4 1.792969-4 4v16c0 2.207031 1.792969 4 4 4h80c2.207031 0 4-1.792969 4-4v-16c0-2.207031-1.792969-4-4-4zm0 0" fill="#3e2807" fill-opacity="1" data-original-color="#263238ff" stroke="none" stroke-opacity="1"/><path d="m12 412.5h-8c-2.207031 0-4-1.792969-4-4s1.792969-4 4-4h8c2.207031 0 4 1.792969 4 4s-1.792969 4-4 4zm0 0" fill="#3e2807" fill-opacity="1" data-original-color="#263238ff" stroke="none" stroke-opacity="1"/><path d="m108 412.5h-80c-2.207031 0-4-1.792969-4-4s1.792969-4 4-4h80c2.207031 0 4 1.792969 4 4s-1.792969 4-4 4zm0 0" fill="#3e2807" fill-opacity="1" data-original-color="#263238ff" stroke="none" stroke-opacity="1"/><path d="m148 388.5h-80c-2.207031 0-4-1.792969-4-4s1.792969-4 4-4h80c2.207031 0 4 1.792969 4 4s-1.792969 4-4 4zm0 0" fill="#3e2807" fill-opacity="1" data-original-color="#263238ff" stroke="none" stroke-opacity="1"/></g></svg>