<svg height="300" viewBox="0 -19 416 416" width="300" xmlns="http://www.w3.org/2000/svg" version="1.1" xmlns:xlink="http://www.w3.org/1999/xlink" xmlns:svgjs="http://svgjs.dev/svgjs"><g transform="matrix(1,0,0,1,0,0)"><path d="m160 103.996094c-10 0-19.710938-2.863282-28.105469-8.28125-4.726562-3.054688-11.070312-3.054688-15.796875 0-8.386718 5.417968-18.105468 8.28125-28.105468 8.28125-14.839844 0-29.007813-6.359375-38.871094-17.464844-9.855469-11.085938-14.503906-25.976562-12.761719-40.839844 2.679687-22.71875 20.265625-41.214844 42.761719-44.960937 12.976562-2.152344 26.109375.519531 36.96875 7.546875 4.726562 3.054687 11.078125 3.054687 15.804687 0 10.867188-7.027344 23.96875-9.714844 36.96875-7.546875 22.496094 3.746093 40.082031 22.242187 42.761719 44.960937 1.75 14.863282-2.898438 29.753906-12.761719 40.839844-9.855469 11.105469-24.023437 17.464844-38.863281 17.464844zm-36-18.550782c4.289062 0 8.574219 1.183594 12.238281 3.550782 7.089844 4.574218 15.304688 7 23.761719 7 12.550781 0 24.542969-5.382813 32.894531-14.777344 8.464844-9.519531 12.296875-21.800781 10.792969-34.582031-2.230469-18.90625-17.421875-34.890625-36.128906-38.007813-11-1.832031-22.125.429688-31.3125 6.367188-7.324219 4.734375-17.167969 4.734375-24.492188 0-9.1875-5.9375-20.3125-8.207032-31.3125-6.367188-18.707031 3.117188-33.898437 19.101563-36.128906 38.007813-1.503906 12.78125 2.328125 25.0625 10.792969 34.582031 8.34375 9.394531 20.335937 14.777344 32.894531 14.777344 8.457031 0 16.671875-2.425782 23.761719-7 3.652343-2.367188 7.949219-3.550782 12.238281-3.550782zm36-13.449218c-11.023438 0-20-8.976563-20-20 0-11.023438 8.976562-20 20-20s20 8.976562 20 20c0 11.023437-8.976562 20-20 20zm0-32c-6.617188 0-12 5.382812-12 12 0 6.617187 5.382812 12 12 12s12-5.382813 12-12c0-6.617188-5.382812-12-12-12zm-72 32c-11.023438 0-20-8.976563-20-20 0-11.023438 8.976562-20 20-20s20 8.976562 20 20c0 11.023437-8.976562 20-20 20zm0-32c-6.617188 0-12 5.382812-12 12 0 6.617187 5.382812 12 12 12s12-5.382813 12-12c0-6.617188-5.382812-12-12-12zm0 0" fill="#263238" fill-opacity="1" data-original-color="#263238ff" stroke="none" stroke-opacity="1"/><path d="m328 103.996094c-10 0-19.710938-2.863282-28.105469-8.28125-4.726562-3.054688-11.070312-3.054688-15.796875 0-8.386718 5.417968-18.105468 8.28125-28.105468 8.28125-14.839844 0-29.007813-6.359375-38.871094-17.464844-9.855469-11.085938-14.503906-25.976562-12.761719-40.839844 2.679687-22.71875 20.265625-41.214844 42.761719-44.960937 12.976562-2.152344 26.109375.519531 36.96875 7.546875 4.726562 3.054687 11.078125 3.054687 15.804687 0 10.867188-7.027344 23.96875-9.714844 36.96875-7.546875 22.496094 3.746093 40.082031 22.242187 42.761719 44.960937 1.75 14.863282-2.898438 29.753906-12.761719 40.839844-9.855469 11.105469-24.023437 17.464844-38.863281 17.464844zm-36-18.550782c4.289062 0 8.574219 1.183594 12.238281 3.550782 7.089844 4.574218 15.304688 7 23.761719 7 12.550781 0 24.542969-5.382813 32.894531-14.777344 8.464844-9.519531 12.296875-21.800781 10.792969-34.582031-2.230469-18.90625-17.421875-34.890625-36.128906-38.007813-11.007813-1.832031-22.125.429688-31.3125 6.367188-7.324219 4.734375-17.167969 4.734375-24.492188 0-9.1875-5.9375-20.304687-8.207032-31.3125-6.367188-18.707031 3.117188-33.898437 19.101563-36.128906 38.007813-1.503906 12.78125 2.328125 25.0625 10.792969 34.582031 8.34375 9.394531 20.335937 14.777344 32.894531 14.777344 8.457031 0 16.671875-2.425782 23.761719-7 3.652343-2.367188 7.949219-3.550782 12.238281-3.550782zm36-13.449218c-11.023438 0-20-8.976563-20-20 0-11.023438 8.976562-20 20-20s20 8.976562 20 20c0 11.023437-8.976562 20-20 20zm0-32c-6.617188 0-12 5.382812-12 12 0 6.617187 5.382812 12 12 12s12-5.382813 12-12c0-6.617188-5.382812-12-12-12zm-72 32c-11.023438 0-20-8.976563-20-20 0-11.023438 8.976562-20 20-20s20 8.976562 20 20c0 11.023437-8.976562 20-20 20zm0-32c-6.617188 0-12 5.382812-12 12 0 6.617187 5.382812 12 12 12s12-5.382813 12-12c0-6.617188-5.382812-12-12-12zm0 0" fill="#263238" fill-opacity="1" data-original-color="#263238ff" stroke="none" stroke-opacity="1"/><path d="m160 378.890625c-10 0-19.710938-2.863281-28.105469-8.277344-4.726562-3.058593-11.070312-3.058593-15.796875 0-8.386718 5.414063-18.097656 8.277344-28.097656 8.277344-14.839844 0-29.007812-6.359375-38.871094-17.460937-9.855468-11.089844-14.503906-25.976563-12.761718-40.84375 2.679687-22.71875 20.265624-41.214844 42.761718-44.957032 12.976563-2.175781 26.101563.511719 36.96875 7.535156 4.726563 3.054688 11.078125 3.0625 15.804688 0 10.859375-7.023437 23.992187-9.71875 36.96875-7.535156 22.496094 3.742188 40.082031 22.238282 42.761718 44.957032 1.75 14.867187-2.898437 29.753906-12.761718 40.84375-9.863282 11.09375-24.03125 17.460937-38.871094 17.460937zm-36-18.550781c4.289062 0 8.574219 1.183594 12.238281 3.550781 7.089844 4.578125 15.304688 7 23.761719 7 12.550781 0 24.542969-5.382813 32.894531-14.773437 8.464844-9.519532 12.296875-21.800782 10.792969-34.585938-2.230469-18.902344-17.421875-34.886719-36.128906-38.007812-11.015625-1.832032-22.125.433593-31.3125 6.367187-7.324219 4.738281-17.167969 4.738281-24.492188 0-9.1875-5.933594-20.296875-8.191406-31.3125-6.367187-18.707031 3.121093-33.898437 19.105468-36.128906 38.007812-1.503906 12.785156 2.328125 25.066406 10.792969 34.585938 8.34375 9.390624 20.335937 14.773437 32.894531 14.773437 8.457031 0 16.671875-2.421875 23.761719-7 3.652343-2.367187 7.949219-3.550781 12.238281-3.550781zm36-13.449219c-11.023438 0-20-8.976563-20-20s8.976562-20 20-20 20 8.976563 20 20-8.976562 20-20 20zm0-32c-6.617188 0-12 5.386719-12 12 0 6.617187 5.382812 12 12 12s12-5.382813 12-12c0-6.613281-5.382812-12-12-12zm-72 32c-11.023438 0-20-8.976563-20-20s8.976562-20 20-20 20 8.976563 20 20-8.976562 20-20 20zm0-32c-6.617188 0-12 5.386719-12 12 0 6.617187 5.382812 12 12 12s12-5.382813 12-12c0-6.613281-5.382812-12-12-12zm0 0" fill="#263238" fill-opacity="1" data-original-color="#263238ff" stroke="none" stroke-opacity="1"/><path d="m328 378.890625c-10 0-19.710938-2.863281-28.105469-8.277344-4.726562-3.058593-11.070312-3.058593-15.796875 0-8.386718 5.414063-18.097656 8.277344-28.097656 8.277344-14.839844 0-29.007812-6.359375-38.871094-17.460937-9.855468-11.089844-14.503906-25.976563-12.761718-40.84375 2.679687-22.71875 20.265624-41.214844 42.761718-44.957032 12.976563-2.175781 26.101563.511719 36.96875 7.535156 4.726563 3.054688 11.078125 3.0625 15.804688 0 10.859375-7.023437 24-9.71875 36.96875-7.535156 22.496094 3.742188 40.082031 22.238282 42.761718 44.957032 1.75 14.867187-2.898437 29.753906-12.761718 40.84375-9.863282 11.09375-24.03125 17.460937-38.871094 17.460937zm-36-18.550781c4.289062 0 8.574219 1.183594 12.238281 3.550781 7.089844 4.578125 15.304688 7 23.761719 7 12.550781 0 24.542969-5.382813 32.894531-14.773437 8.464844-9.519532 12.296875-21.800782 10.792969-34.585938-2.230469-18.902344-17.421875-34.886719-36.128906-38.007812-11.023438-1.832032-22.132813.433593-31.3125 6.367187-7.324219 4.738281-17.167969 4.738281-24.492188 0-9.179687-5.933594-20.28125-8.191406-31.3125-6.367187-18.707031 3.121093-33.898437 19.105468-36.128906 38.007812-1.503906 12.785156 2.328125 25.066406 10.792969 34.585938 8.34375 9.390624 20.335937 14.773437 32.894531 14.773437 8.457031 0 16.671875-2.421875 23.761719-7 3.652343-2.367187 7.949219-3.550781 12.238281-3.550781zm36-13.449219c-11.023438 0-20-8.976563-20-20s8.976562-20 20-20 20 8.976563 20 20-8.976562 20-20 20zm0-32c-6.617188 0-12 5.386719-12 12 0 6.617187 5.382812 12 12 12s12-5.382813 12-12c0-6.613281-5.382812-12-12-12zm-72 32c-11.023438 0-20-8.976563-20-20s8.976562-20 20-20 20 8.976563 20 20-8.976562 20-20 20zm0-32c-6.617188 0-12 5.386719-12 12 0 6.617187 5.382812 12 12 12s12-5.382813 12-12c0-6.613281-5.382812-12-12-12zm0 0" fill="#263238" fill-opacity="1" data-original-color="#263238ff" stroke="none" stroke-opacity="1"/><path d="m271.289062 134.429688c-18.160156-23.019532-51.664062-24.472657-71.761718-4.371094-6.757813 6.761718-11.0625 15.042968-12.933594 23.738281-1.515625 7.046875-7.203125 12.726563-14.242188 14.246094-8.695312 1.871093-16.976562 6.167969-23.734374 12.929687-20.105469 20.101563-18.648438 53.597656 4.367187 71.757813 16.414063 12.960937 40.199219 13.609375 57.222656 1.449219 10.441407-7.464844 16.832031-17.910157 19.226563-29.054688 1.511718-7.050781 7.199218-12.738281 14.246094-14.25 11.144531-2.390625 21.601562-8.78125 29.054687-19.222656 12.160156-17.023438 11.511719-40.808594-1.445313-57.222656zm-77.417968 91.789062c-6.246094 6.25-16.375 6.25-22.625 0-6.246094-6.246094-6.246094-16.375 0-22.621094 6.25-6.25 16.378906-6.25 22.625 0 6.25 6.246094 6.25 16.375 0 22.621094zm50.90625-50.910156c-6.25 6.246094-16.378906 6.246094-22.625 0-6.25-6.25-6.25-16.375 0-22.625 6.246094-6.246094 16.375-6.246094 22.625 0 6.253906 6.25 6.253906 16.375 0 22.625zm0 0" fill="#e3a547" fill-opacity="1" data-original-color="#ffd740ff" stroke="none" stroke-opacity="1"/><g fill="#263238"><path d="m182.609375 266.957031c-11.386719 0-22.769531-3.714843-32.113281-11.089843-11.742188-9.269532-18.984375-23.078126-19.855469-37.886719-.871094-14.824219 4.648437-29.34375 15.144531-39.839844 7.070313-7.074219 15.96875-11.921875 25.726563-14.007813 5.496093-1.183593 9.992187-5.671874 11.167969-11.175781 2.097656-9.753906 6.9375-18.648437 14.007812-25.722656 10.496094-10.496094 24.960938-16.015625 39.839844-15.140625 14.808594.871094 28.625 8.109375 37.898437 19.855469 14.175781 17.957031 14.8125 43.460937 1.550781 62.023437-7.648437 10.703125-18.824218 18.09375-31.472656 20.808594-5.503906 1.183594-9.992187 5.671875-11.175781 11.175781-2.71875 12.648438-10.105469 23.832031-20.808594 31.472657-8.894531 6.359374-19.40625 9.527343-29.910156 9.527343zm50.878906-146.960937c-11.640625 0-22.863281 4.617187-31.136719 12.886718-5.984374 5.984376-10.078124 13.503907-11.847656 21.746094-1.832031 8.519532-8.792968 15.488282-17.3125 17.320313-8.246094 1.765625-15.765625 5.863281-21.75 11.847656-8.882812 8.878906-13.546875 21.167969-12.808594 33.710937.742188 12.710938 6.71875 24.113282 16.824219 32.078126 14.941407 11.800781 36.984375 12.355468 52.421875 1.339843 9.074219-6.488281 15.335938-15.953125 17.640625-26.648437 1.832031-8.523438 8.792969-15.488282 17.320313-17.320313 10.695312-2.296875 20.160156-8.5625 26.648437-17.640625 11.023438-15.433594 10.464844-37.480468-1.328125-52.425781-7.976562-10.101563-19.367187-16.078125-32.082031-16.832031-.878906-.039063-1.734375-.0625-2.589844-.0625zm-50.9375 114.910156c-5.34375 0-10.367187-2.078125-14.144531-5.855469-3.773438-3.773437-5.855469-8.800781-5.855469-14.144531s2.082031-10.367188 5.855469-14.140625c7.546875-7.554687 20.738281-7.554687 28.28125 0 3.777344 3.773437 5.855469 8.796875 5.855469 14.140625s-2.078125 10.363281-5.855469 14.144531c-3.765625 3.777344-8.792969 5.855469-14.136719 5.855469zm0-32c-3.207031 0-6.214843 1.25-8.488281 3.511719-2.269531 2.265625-3.511719 5.28125-3.511719 8.488281 0 3.210938 1.25 6.21875 3.511719 8.488281 4.53125 4.53125 12.441406 4.53125 16.96875 0 2.265625-2.261719 3.511719-5.277343 3.511719-8.488281 0-3.207031-1.246094-6.214844-3.511719-8.488281-2.261719-2.269531-5.269531-3.511719-8.480469-3.511719zm50.921875-18.917969c-5.128906 0-10.25-1.953125-14.144531-5.847656-7.792969-7.800781-7.792969-20.488281 0-28.289063 7.800781-7.800781 20.488281-7.800781 28.289063 0 7.789062 7.800782 7.789062 20.488282 0 28.289063-3.90625 3.894531-9.023438 5.847656-14.144532 5.847656zm0-31.984375c-3.074218 0-6.152344 1.167969-8.488281 3.503906-4.671875 4.679688-4.671875 12.296876 0 16.976563 4.679687 4.679687 12.296875 4.671875 16.976563 0 4.671874-4.679687 4.671874-12.296875 0-16.976563-2.34375-2.335937-5.425782-3.503906-8.488282-3.503906zm11.3125 23.304688h.078125zm0 0" fill="#263238" fill-opacity="1" data-original-color="#263238ff" stroke="none" stroke-opacity="1"/><path d="m12 193.445312h-8c-2.207031 0-4-1.792968-4-4 0-2.210937 1.792969-4 4-4h8c2.207031 0 4 1.789063 4 4 0 2.207032-1.792969 4-4 4zm0 0" fill="#263238" fill-opacity="1" data-original-color="#263238ff" stroke="none" stroke-opacity="1"/><path d="m108 193.445312h-80c-2.207031 0-4-1.792968-4-4 0-2.210937 1.792969-4 4-4h80c2.207031 0 4 1.789063 4 4 0 2.207032-1.792969 4-4 4zm0 0" fill="#263238" fill-opacity="1" data-original-color="#263238ff" stroke="none" stroke-opacity="1"/><path d="m412 193.445312h-8c-2.207031 0-4-1.792968-4-4 0-2.210937 1.792969-4 4-4h8c2.207031 0 4 1.789063 4 4 0 2.207032-1.792969 4-4 4zm0 0" fill="#263238" fill-opacity="1" data-original-color="#263238ff" stroke="none" stroke-opacity="1"/><path d="m388 193.445312h-80c-2.207031 0-4-1.792968-4-4 0-2.210937 1.792969-4 4-4h80c2.207031 0 4 1.789063 4 4 0 2.207032-1.792969 4-4 4zm0 0" fill="#263238" fill-opacity="1" data-original-color="#263238ff" stroke="none" stroke-opacity="1"/></g></g></svg>