<svg height="300" viewBox="0 0 456 456" width="300" xmlns="http://www.w3.org/2000/svg" version="1.1" xmlns:xlink="http://www.w3.org/1999/xlink" xmlns:svgjs="http://svgjs.dev/svgjs"><g transform="matrix(1,0,0,1,0,0)"><path d="m228 60c-92.785156 0-168 75.214844-168 168s75.214844 168 168 168 168-75.214844 168-168-75.214844-168-168-168zm0 288c-66.273438 0-120-53.726562-120-120s53.726562-120 120-120 120 53.726562 120 120-53.71875 120-120 120zm0 0" fill="#e3a547" fill-opacity="1" data-original-color="#ffd740ff" stroke="none" stroke-opacity="1"/><g fill="#263238"><path d="m228 400c-94.839844 0-172-77.160156-172-172s77.160156-172 172-172 172 77.160156 172 172-77.160156 172-172 172zm0-336c-90.433594 0-164 73.566406-164 164s73.566406 164 164 164 164-73.566406 164-164-73.566406-164-164-164zm0 288c-68.375 0-124-55.625-124-124s55.625-124 124-124 124 55.625 124 124-55.625 124-124 124zm0-240c-63.960938 0-116 52.039062-116 116s52.039062 116 116 116 116-52.039062 116-116-52.039062-116-116-116zm0 0" fill="#3e2807" fill-opacity="1" data-original-color="#263238ff" stroke="none" stroke-opacity="1"/><path d="m4 232c-2.207031 0-4-1.792969-4-4 0-125.71875 102.28125-228 228-228 2.207031 0 4 1.792969 4 4s-1.792969 4-4 4c-121.304688 0-220 98.6875-220 220 0 2.207031-1.792969 4-4 4zm0 0" fill="#3e2807" fill-opacity="1" data-original-color="#263238ff" stroke="none" stroke-opacity="1"/><path d="m252 8h-8c-2.207031 0-4-1.792969-4-4s1.792969-4 4-4h8c2.207031 0 4 1.792969 4 4s-1.792969 4-4 4zm0 0" fill="#3e2807" fill-opacity="1" data-original-color="#263238ff" stroke="none" stroke-opacity="1"/><path d="m228 456c-2.207031 0-4-1.792969-4-4s1.792969-4 4-4c121.304688 0 220-98.6875 220-220 0-2.207031 1.792969-4 4-4s4 1.792969 4 4c0 125.71875-102.28125 228-228 228zm0 0" fill="#3e2807" fill-opacity="1" data-original-color="#263238ff" stroke="none" stroke-opacity="1"/><path d="m212 456h-8c-2.207031 0-4-1.792969-4-4s1.792969-4 4-4h8c2.207031 0 4 1.792969 4 4s-1.792969 4-4 4zm0 0" fill="#3e2807" fill-opacity="1" data-original-color="#263238ff" stroke="none" stroke-opacity="1"/><path d="m28 392c-2.207031 0-4-1.792969-4-4v-32c0-2.207031 1.792969-4 4-4s4 1.792969 4 4v32c0 2.207031-1.792969 4-4 4zm0 0" fill="#3e2807" fill-opacity="1" data-original-color="#263238ff" stroke="none" stroke-opacity="1"/><path d="m44 376h-32c-2.207031 0-4-1.792969-4-4s1.792969-4 4-4h32c2.207031 0 4 1.792969 4 4s-1.792969 4-4 4zm0 0" fill="#3e2807" fill-opacity="1" data-original-color="#263238ff" stroke="none" stroke-opacity="1"/><path d="m80 448c-2.207031 0-4-1.792969-4-4v-32c0-2.207031 1.792969-4 4-4s4 1.792969 4 4v32c0 2.207031-1.792969 4-4 4zm0 0" fill="#3e2807" fill-opacity="1" data-original-color="#263238ff" stroke="none" stroke-opacity="1"/><path d="m96 432h-32c-2.207031 0-4-1.792969-4-4s1.792969-4 4-4h32c2.207031 0 4 1.792969 4 4s-1.792969 4-4 4zm0 0" fill="#3e2807" fill-opacity="1" data-original-color="#263238ff" stroke="none" stroke-opacity="1"/><path d="m228 400c-8.902344 0-18.222656-.832031-28.480469-2.542969-2.039062-.335937-3.488281-2.167969-3.335937-4.234375l3.433594-48c.085937-1.152344.65625-2.207031 1.574218-2.902344.921875-.6875 2.082032-.96875 3.222656-.726562 15.457032 3.191406 31.707032 3.191406 47.160157 0 1.136719-.242188 2.304687.03125 3.226562.726562.917969.695313 1.496094 1.757813 1.574219 2.902344l3.433594 48c.152344 2.058594-1.296875 3.890625-3.335938 4.234375-10.25 1.710938-19.570312 2.542969-28.472656 2.542969zm-23.566406-9.863281c16.832031 2.503906 30.308594 2.503906 47.140625 0l-2.847657-39.863281c-13.65625 2.300781-27.78125 2.300781-41.4375 0zm0 0" fill="#3e2807" fill-opacity="1" data-original-color="#263238ff" stroke="none" stroke-opacity="1"/><path d="m203.609375 114.496094c-.867187 0-1.714844-.28125-2.417969-.816406-.917968-.695313-1.496094-1.75-1.574218-2.902344l-3.433594-48c-.152344-2.058594 1.296875-3.890625 3.335937-4.234375 20.496094-3.429688 36.457031-3.429688 56.953125 0 2.039063.335937 3.488282 2.167969 3.335938 4.234375l-3.433594 48c-.085938 1.152344-.65625 2.207031-1.574219 2.902344-.921875.6875-2.097656.945312-3.226562.726562-15.429688-3.191406-31.636719-3.199219-47.167969 0-.253906.058594-.535156.089844-.796875.089844zm.824219-48.632813 2.847656 39.863281c13.710938-2.300781 27.808594-2.292968 41.4375 0l2.847656-39.863281c-16.824218-2.503906-30.308594-2.503906-47.132812 0zm0 0" fill="#3e2807" fill-opacity="1" data-original-color="#263238ff" stroke="none" stroke-opacity="1"/><path d="m62.496094 259.824219c-1.945313 0-3.617188-1.398438-3.945313-3.335938-1.71875-10.265625-2.550781-19.578125-2.550781-28.488281s.832031-18.222656 2.542969-28.480469c.34375-2.03125 2.160156-3.480469 4.226562-3.328125l48 3.425782c1.160157.078124 2.207031.65625 2.902344 1.574218.695313.921875.960937 2.097656.726563 3.222656-1.582032 7.753907-2.398438 15.691407-2.398438 23.585938s.816406 15.832031 2.40625 23.585938c.234375 1.125-.03125 2.300781-.726562 3.222656-.695313.917968-1.75 1.496094-2.902344 1.574218l-48 3.425782c-.097656.007812-.191406.015625-.28125.015625zm3.367187-55.390625c-1.253906 8.398437-1.863281 16.140625-1.863281 23.566406s.609375 15.167969 1.863281 23.566406l39.863281-2.847656c-1.140624-6.847656-1.726562-13.789062-1.726562-20.71875s.585938-13.878906 1.734375-20.726562zm0 0" fill="#3e2807" fill-opacity="1" data-original-color="#263238ff" stroke="none" stroke-opacity="1"/><path d="m393.503906 259.824219c-.097656 0-.183594 0-.28125-.007813l-48-3.425781c-1.160156-.078125-2.207031-.65625-2.902344-1.574219-.695312-.921875-.960937-2.097656-.726562-3.222656 1.589844-7.761719 2.40625-15.699219 2.40625-23.59375 0-7.902344-.816406-15.832031-2.40625-23.59375-.234375-1.125.03125-2.300781.726562-3.222656.695313-.917969 1.75-1.496094 2.902344-1.574219l48-3.425781c2.042969-.160156 3.882813 1.296875 4.226563 3.328125 1.71875 10.265625 2.550781 19.578125 2.550781 28.488281s-.832031 18.222656-2.542969 28.480469c-.328125 1.933593-2 3.34375-3.953125 3.34375zm-43.238281-11.105469 39.863281 2.847656c1.261719-8.398437 1.871094-16.140625 1.871094-23.566406s-.609375-15.167969-1.863281-23.566406l-39.863281 2.847656c1.140624 6.847656 1.726562 13.796875 1.726562 20.71875 0 6.929688-.585938 13.871094-1.734375 20.71875zm0 0" fill="#3e2807" fill-opacity="1" data-original-color="#263238ff" stroke="none" stroke-opacity="1"/><path d="m127.65625 166.160156c-.953125 0-1.886719-.34375-2.617188-.976562l-36.359374-31.511719c-1.558594-1.351563-1.832032-3.664063-.640626-5.34375 6.015626-8.441406 12.015626-15.617187 18.335938-21.945313 6.296875-6.304687 13.480469-12.292968 21.945312-18.335937 1.664063-1.183594 3.992188-.917969 5.34375.640625l31.511719 36.359375c.761719.875 1.097657 2.023437.9375 3.167969-.160156 1.144531-.800781 2.160156-1.769531 2.792968-6.609375 4.351563-12.800781 9.390626-18.375 14.976563-5.59375 5.582031-10.632812 11.769531-14.976562 18.375-.632813.960937-1.65625 1.609375-2.800782 1.761719-.167968.023437-.359375.039062-.535156.039062zm-30.96875-36.144531 30.199219 26.175781c4.023437-5.65625 8.527343-10.984375 13.433593-15.878906 4.886719-4.898438 10.214844-9.402344 15.871094-13.425781l-26.167968-30.199219c-6.832032 5.054688-12.75 10.097656-17.992188 15.34375-5.253906 5.273438-10.304688 11.175781-15.34375 17.984375zm0 0" fill="#3e2807" fill-opacity="1" data-original-color="#263238ff" stroke="none" stroke-opacity="1"/><path d="m325.359375 368.703125c-1.128906 0-2.230469-.472656-3.023437-1.375l-31.511719-36.367187c-.761719-.871094-1.097657-2.023438-.9375-3.167969.160156-1.144531.800781-2.160157 1.769531-2.800781 6.582031-4.335938 12.777344-9.367188 18.375-14.96875 5.59375-5.589844 10.632812-11.777344 14.96875-18.382813.632812-.96875 1.648438-1.609375 2.800781-1.769531 1.136719-.167969 2.304688.183594 3.167969.9375l36.367188 31.519531c1.558593 1.351563 1.832031 3.664063.640624 5.34375-6.015624 8.441406-12.015624 15.617187-18.335937 21.945313-6.296875 6.292968-13.472656 12.292968-21.9375 18.335937-.71875.511719-1.535156.75-2.34375.75zm-25.550781-39.589844 26.167968 30.199219c6.839844-5.066406 12.75-10.105469 17.992188-15.34375 5.253906-5.265625 10.304688-11.167969 15.34375-17.984375l-30.199219-26.175781c-4.023437 5.65625-8.519531 10.984375-13.433593 15.878906-4.910157 4.90625-10.230469 9.410156-15.871094 13.425781zm0 0" fill="#3e2807" fill-opacity="1" data-original-color="#263238ff" stroke="none" stroke-opacity="1"/><path d="m328.335938 166.160156c-.175782 0-.367188-.007812-.542969-.039062-1.152344-.160156-2.167969-.800782-2.800781-1.769532-4.328126-6.597656-9.367188-12.785156-14.96875-18.382812-5.597657-5.601562-11.792969-10.640625-18.375-14.96875-.96875-.640625-1.609376-1.65625-1.769532-2.800781s.175782-2.296875.9375-3.167969l31.511719-36.359375c1.359375-1.558594 3.6875-1.824219 5.34375-.640625 8.472656 6.039062 15.648437 12.039062 21.945313 18.335938 6.320312 6.328124 12.320312 13.503906 18.335937 21.945312 1.191406 1.671875.917969 3.992188-.640625 5.34375l-36.367188 31.519531c-.722656.640625-1.65625.984375-2.609374.984375zm-28.527344-39.273437c5.640625 4.015625 10.960937 8.519531 15.871094 13.425781 4.90625 4.910156 9.417968 10.238281 13.433593 15.878906l30.199219-26.175781c-5.039062-6.816406-10.089844-12.71875-15.34375-17.984375-5.242188-5.246094-11.160156-10.289062-17.992188-15.34375zm0 0" fill="#3e2807" fill-opacity="1" data-original-color="#263238ff" stroke="none" stroke-opacity="1"/><path d="m130.640625 368.703125c-.816406 0-1.625-.238281-2.328125-.742187-8.472656-6.050782-15.640625-12.050782-21.9375-18.335938-6.320312-6.328125-12.320312-13.503906-18.335938-21.945312-1.191406-1.671876-.917968-3.992188.640626-5.34375l36.359374-31.511719c.863282-.753907 2.039063-1.113281 3.167969-.9375 1.144531.160156 2.167969.800781 2.800781 1.761719 4.34375 6.609374 9.382813 12.792968 14.976563 18.375 5.574219 5.585937 11.769531 10.625 18.375 14.976562.96875.632812 1.609375 1.65625 1.769531 2.792969s-.175781 2.296875-.9375 3.167969l-31.511718 36.367187c-.808594.902344-1.910157 1.375-3.039063 1.375zm-33.953125-42.71875c5.039062 6.816406 10.089844 12.71875 15.34375 17.984375 5.242188 5.238281 11.152344 10.277344 17.992188 15.34375l26.167968-30.207031c-5.65625-4.027344-10.984375-8.53125-15.871094-13.425781-4.894531-4.894532-9.410156-10.222657-13.433593-15.878907zm0 0" fill="#3e2807" fill-opacity="1" data-original-color="#263238ff" stroke="none" stroke-opacity="1"/><path d="m204 186c-2.207031 0-4-1.792969-4-4v-12c0-2.207031 1.792969-4 4-4s4 1.792969 4 4v12c0 2.207031-1.792969 4-4 4zm0 0" fill="#3e2807" fill-opacity="1" data-original-color="#263238ff" stroke="none" stroke-opacity="1"/><path d="m228 186c-2.207031 0-4-1.792969-4-4v-12c0-2.207031 1.792969-4 4-4s4 1.792969 4 4v12c0 2.207031-1.792969 4-4 4zm0 0" fill="#3e2807" fill-opacity="1" data-original-color="#263238ff" stroke="none" stroke-opacity="1"/><path d="m252 186c-2.207031 0-4-1.792969-4-4v-12c0-2.207031 1.792969-4 4-4s4 1.792969 4 4v12c0 2.207031-1.792969 4-4 4zm0 0" fill="#3e2807" fill-opacity="1" data-original-color="#263238ff" stroke="none" stroke-opacity="1"/><path d="m204 290c-2.207031 0-4-1.792969-4-4v-12c0-2.207031 1.792969-4 4-4s4 1.792969 4 4v12c0 2.207031-1.792969 4-4 4zm0 0" fill="#3e2807" fill-opacity="1" data-original-color="#263238ff" stroke="none" stroke-opacity="1"/><path d="m228 290c-2.207031 0-4-1.792969-4-4v-12c0-2.207031 1.792969-4 4-4s4 1.792969 4 4v12c0 2.207031-1.792969 4-4 4zm0 0" fill="#3e2807" fill-opacity="1" data-original-color="#263238ff" stroke="none" stroke-opacity="1"/><path d="m252 290c-2.207031 0-4-1.792969-4-4v-12c0-2.207031 1.792969-4 4-4s4 1.792969 4 4v12c0 2.207031-1.792969 4-4 4zm0 0" fill="#3e2807" fill-opacity="1" data-original-color="#263238ff" stroke="none" stroke-opacity="1"/><path d="m286 208h-12c-2.207031 0-4-1.792969-4-4s1.792969-4 4-4h12c2.207031 0 4 1.792969 4 4s-1.792969 4-4 4zm0 0" fill="#3e2807" fill-opacity="1" data-original-color="#263238ff" stroke="none" stroke-opacity="1"/><path d="m286 232h-12c-2.207031 0-4-1.792969-4-4s1.792969-4 4-4h12c2.207031 0 4 1.792969 4 4s-1.792969 4-4 4zm0 0" fill="#3e2807" fill-opacity="1" data-original-color="#263238ff" stroke="none" stroke-opacity="1"/><path d="m286 256h-12c-2.207031 0-4-1.792969-4-4s1.792969-4 4-4h12c2.207031 0 4 1.792969 4 4s-1.792969 4-4 4zm0 0" fill="#3e2807" fill-opacity="1" data-original-color="#263238ff" stroke="none" stroke-opacity="1"/><path d="m182 208h-12c-2.207031 0-4-1.792969-4-4s1.792969-4 4-4h12c2.207031 0 4 1.792969 4 4s-1.792969 4-4 4zm0 0" fill="#3e2807" fill-opacity="1" data-original-color="#263238ff" stroke="none" stroke-opacity="1"/><path d="m182 232h-12c-2.207031 0-4-1.792969-4-4s1.792969-4 4-4h12c2.207031 0 4 1.792969 4 4s-1.792969 4-4 4zm0 0" fill="#3e2807" fill-opacity="1" data-original-color="#263238ff" stroke="none" stroke-opacity="1"/><path d="m182 256h-12c-2.207031 0-4-1.792969-4-4s1.792969-4 4-4h12c2.207031 0 4 1.792969 4 4s-1.792969 4-4 4zm0 0" fill="#3e2807" fill-opacity="1" data-original-color="#263238ff" stroke="none" stroke-opacity="1"/><path d="m235.785156 262.9375c-.792968 0-1.570312-.234375-2.234375-.679688-.941406-.640624-1.566406-1.640624-1.726562-2.769531-.289063-2.023437-1.894531-3.488281-3.824219-3.488281-1.9375 0-3.542969 1.472656-3.832031 3.496094-.160157 1.121094-.792969 2.128906-1.726563 2.761718-.9375.628907-2.121094.839844-3.210937.558594-12.832031-3.230468-22.824219-13.207031-26.046875-26.054687-.273438-1.097657-.070313-2.265625.558594-3.210938.632812-.941406 1.640624-1.566406 2.769531-1.726562 2.015625-.289063 3.488281-1.894531 3.488281-3.824219s-1.472656-3.535156-3.488281-3.824219c-1.128907-.160156-2.136719-.785156-2.769531-1.726562-.628907-.945313-.832032-2.113281-.558594-3.210938 3.222656-12.839843 13.207031-22.824219 26.046875-26.046875 1.097656-.269531 2.273437-.0625 3.210937.5625.933594.636719 1.566406 1.636719 1.726563 2.757813.289062 2.015625 1.894531 3.488281 3.832031 3.488281 1.929688 0 3.535156-1.464844 3.824219-3.488281.160156-1.128907.785156-2.128907 1.726562-2.769531.9375-.636719 2.121094-.847657 3.210938-.558594 12.839843 3.222656 22.832031 13.207031 26.0625 26.054687.273437 1.105469.070312 2.273438-.566407 3.210938-.632812.941406-1.640624 1.566406-2.769531 1.71875-2.015625.289062-3.488281 1.894531-3.488281 3.832031s1.472656 3.542969 3.488281 3.824219c1.128907.160156 2.136719.785156 2.769531 1.71875.636719.945312.839844 2.113281.566407 3.210937-3.222657 12.847656-13.214844 22.832032-26.0625 26.054688-.320313.085937-.648438.128906-.976563.128906zm-7.785156-14.9375c4.367188 0 8.183594 2.335938 10.246094 5.960938 7.1875-2.832032 12.875-8.511719 15.707031-15.703126-3.609375-2.066406-5.953125-5.890624-5.953125-10.257812s2.34375-8.191406 5.953125-10.246094c-2.832031-7.195312-8.511719-12.875-15.707031-15.707031-2.0625 3.617187-5.878906 5.953125-10.246094 5.953125s-8.183594-2.335938-10.246094-5.953125c-7.1875 2.832031-12.867187 8.519531-15.699218 15.714844 3.609374 2.0625 5.945312 5.878906 5.945312 10.238281s-2.335938 8.175781-5.945312 10.238281c2.832031 7.195313 8.503906 12.882813 15.699218 15.714844 2.0625-3.617187 5.878906-5.953125 10.246094-5.953125zm0 0" fill="#3e2807" fill-opacity="1" data-original-color="#263238ff" stroke="none" stroke-opacity="1"/><path d="m272.097656 165.28125c-.769531 0-1.53125-.21875-2.210937-.664062-24.894531-16.503907-58.832031-16.503907-83.765625 0-1.59375 1.039062-3.6875.839843-5.042969-.503907l-17.175781-17.175781c-1.558594-1.5625-1.558594-4.097656 0-5.65625 1.5625-1.5625 4.097656-1.5625 5.65625 0l14.914062 14.910156c26.269532-15.960937 60.824219-15.953125 87.0625 0l14.914063-14.910156c1.558593-1.5625 4.09375-1.5625 5.65625 0 1.558593 1.558594 1.558593 4.09375 0 5.65625l-17.175781 17.175781c-.777344.765625-1.800782 1.167969-2.832032 1.167969zm0 0" fill="#3e2807" fill-opacity="1" data-original-color="#263238ff" stroke="none" stroke-opacity="1"/><path d="m311.902344 293.28125c-1.023438 0-2.046875-.394531-2.832032-1.167969l-17.175781-17.175781c-1.34375-1.34375-1.550781-3.449219-.503906-5.035156 8.25-12.46875 12.609375-26.957032 12.609375-41.902344s-4.359375-29.433594-12.609375-41.886719c-1.046875-1.585937-.832031-3.6875.503906-5.035156l17.175781-17.175781c1.5625-1.558594 4.097657-1.558594 5.65625 0 1.5625 1.5625 1.5625 4.097656 0 5.65625l-14.910156 14.914062c7.984375 13.121094 12.183594 28.101563 12.183594 43.527344s-4.199219 30.40625-12.175781 43.535156l14.910156 14.914063c1.5625 1.558593 1.5625 4.09375 0 5.65625-.78125.78125-1.804687 1.175781-2.832031 1.175781zm0 0" fill="#3e2807" fill-opacity="1" data-original-color="#263238ff" stroke="none" stroke-opacity="1"/><path d="m289.273438 315.902344c-1.027344 0-2.050782-.390625-2.832032-1.167969l-14.914062-14.910156c-26.246094 15.960937-60.792969 15.96875-87.0625 0l-14.914063 14.910156c-1.558593 1.5625-4.09375 1.5625-5.65625 0-1.558593-1.558594-1.558593-4.09375 0-5.65625l17.175781-17.175781c1.355469-1.34375 3.449219-1.550782 5.042969-.503906 24.925781 16.503906 58.863281 16.496093 83.765625 0 1.59375-1.039063 3.695313-.839844 5.042969.503906l17.175781 17.175781c1.558594 1.5625 1.558594 4.097656 0 5.65625-.777344.777344-1.800781 1.167969-2.824218 1.167969zm0 0" fill="#3e2807" fill-opacity="1" data-original-color="#263238ff" stroke="none" stroke-opacity="1"/><path d="m144.105469 293.273438c-1.027344 0-2.050781-.394532-2.832031-1.167969-1.5625-1.5625-1.5625-4.097657 0-5.65625l14.910156-14.914063c-7.984375-13.136718-12.183594-28.109375-12.183594-43.535156 0-15.414062 4.199219-30.390625 12.183594-43.527344l-14.910156-14.914062c-1.5625-1.558594-1.5625-4.09375 0-5.65625 1.558593-1.558594 4.09375-1.558594 5.65625 0l17.175781 17.175781c1.34375 1.347656 1.550781 3.449219.503906 5.035156-8.25 12.460938-12.609375 26.949219-12.609375 41.886719 0 14.945312 4.359375 29.425781 12.617188 41.886719 1.046874 1.585937.832031 3.6875-.503907 5.035156l-17.175781 17.175781c-.785156.78125-1.808594 1.175782-2.832031 1.175782zm0 0" fill="#3e2807" fill-opacity="1" data-original-color="#263238ff" stroke="none" stroke-opacity="1"/></g></g></svg>