<svg id="Layer_1" enable-background="new 0 0 100 100" viewBox="0 0 100 100" xmlns="http://www.w3.org/2000/svg" width="300" height="300" version="1.1" xmlns:xlink="http://www.w3.org/1999/xlink" xmlns:svgjs="http://svgjs.dev/svgjs"><g transform="matrix(1,0,0,1,0,0)"><g><path d="m74.277 62.293h-4.714v-32.724c-.001-10.786-8.784-19.569-19.57-19.569s-19.556 8.783-19.556 19.569v32.724h-4.727c-.263 0-.487.224-.487.5v4.372c0 .263.224.487.487.487h2.7v17.909c0 2.45 1.988 4.438 4.451 4.438 2.449 0 4.438-1.988 4.438-4.438v-17.908h2.7c.263 0 .487-.224.487-.487v-4.372c0-.277-.224-.5-.487-.5h-4.714v-19.899c3.714 4.293 8.994 6.742 14.709 6.742 5.728 0 10.996-2.45 14.723-6.742v19.898h-4.714c-.277 0-.5.224-.5.5v4.372c0 .263.224.487.5.487h2.686v17.909c0 2.45 2.002 4.438 4.451 4.438s4.451-1.988 4.451-4.438v-17.908h2.686c.277 0 .5-.224.5-.487v-4.372c0-.277-.224-.501-.5-.501zm-42.851-26.561c.645 1.962 1.607 3.793 2.871 5.478v21.083h-2.871zm4.885 49.83c0 1.91-1.554 3.45-3.45 3.45-1.909 0-3.463-1.541-3.463-3.45v-17.751h6.914v17.751zm3.187-22.281v3.384h-13.287v-3.384zm10.495-15.131c-5.86 0-11.259-2.7-14.815-7.401-2.463-3.213-3.753-7.085-3.753-11.18 0-10.245 8.336-18.581 18.568-18.581 10.245 0 18.581 8.336 18.581 18.581v32.724h-2.871v-32.724c0-8.665-7.045-15.71-15.71-15.71s-15.71 7.045-15.71 15.71 7.045 15.71 15.71 15.71c6.756 0 12.497-4.28 14.723-10.272v5.86c-3.555 4.636-8.902 7.283-14.723 7.283zm14.723-18.581v.079c-.04 8.086-6.624 14.644-14.723 14.644-8.112 0-14.723-6.611-14.723-14.723s6.611-14.723 14.723-14.723c8.126 0 14.723 6.598 14.723 14.723zm5.886 55.993c0 1.91-1.554 3.45-3.463 3.45s-3.463-1.541-3.463-3.45v-17.751h6.927v17.751zm3.187-18.897h-13.3v-3.384h13.3z" fill="#3e2807" fill-opacity="1" data-original-color="#000000ff" stroke="none" stroke-opacity="1"/><path d="m68.575 29.569v32.724h-2.871v-32.724c0-8.665-7.045-15.71-15.71-15.71s-15.71 7.045-15.71 15.71 7.045 15.71 15.71 15.71c6.756 0 12.497-4.28 14.723-10.272v5.86c-3.556 4.635-8.902 7.282-14.723 7.282-5.86 0-11.259-2.7-14.815-7.401-2.463-3.213-3.753-7.085-3.753-11.18 0-10.245 8.336-18.581 18.568-18.581 10.245.001 18.581 8.336 18.581 18.582z" fill="#ffd493" fill-opacity="1" data-original-color="#e6e6ffff" stroke="none" stroke-opacity="1"/><path d="m60.489 63.281h13.3v3.384h-13.3z" fill="#e3a547" fill-opacity="1" data-original-color="#746e80ff" stroke="none" stroke-opacity="1"/><path d="m70.602 67.811v17.751c0 1.91-1.554 3.45-3.463 3.45s-3.463-1.541-3.463-3.45v-17.751z" fill="#e3a547" fill-opacity="1" data-original-color="#746e80ff" stroke="none" stroke-opacity="1"/><path d="m34.296 41.21v21.083h-2.871v-26.561c.646 1.962 1.607 3.792 2.871 5.478z" fill="#ffd493" fill-opacity="1" data-original-color="#e6e6ffff" stroke="none" stroke-opacity="1"/><g fill="#746e80"><path d="m26.211 63.281h13.287v3.384h-13.287z" fill="#e3a547" fill-opacity="1" data-original-color="#746e80ff" stroke="none" stroke-opacity="1"/><path d="m36.311 67.811v17.751c0 1.91-1.554 3.45-3.45 3.45-1.909 0-3.463-1.541-3.463-3.45v-17.751z" fill="#e3a547" fill-opacity="1" data-original-color="#746e80ff" stroke="none" stroke-opacity="1"/></g></g></g></svg>