<svg height="300" viewBox="0 0 456 456" width="300" xmlns="http://www.w3.org/2000/svg" version="1.1" xmlns:xlink="http://www.w3.org/1999/xlink" xmlns:svgjs="http://svgjs.dev/svgjs"><g transform="matrix(1,0,0,1,0,0)"><path d="m228 324c-5.742188 0-11.34375-.59375-16.808594-1.558594l-23.679687 71.03125c-1.726563 5.183594 2.128906 10.527344 7.59375 10.527344h28.894531c22.089844 0 40-17.910156 40-40v-47.039062c-11.128906 4.503906-23.257812 7.039062-36 7.039062zm0 0" fill="#e3a547" fill-opacity="1" data-original-color="#ffd740ff" stroke="none" stroke-opacity="1"/><path d="m228 132c5.742188 0 11.34375.59375 16.808594 1.558594l23.679687-71.03125c1.726563-5.183594-2.128906-10.527344-7.59375-10.527344h-28.894531c-22.089844 0-40 17.910156-40 40v47.039062c11.128906-4.503906 23.257812-7.039062 36-7.039062zm0 0" fill="#e3a547" fill-opacity="1" data-original-color="#ffd740ff" stroke="none" stroke-opacity="1"/><path d="m224 408h-28.894531c-3.90625 0-7.457031-1.816406-9.738281-4.984375-2.289063-3.167969-2.886719-7.113281-1.65625-10.816406l23.679687-71.03125c.714844-2.097657 2.976563-3.207031 5.066406-2.527344 2.09375.695313 3.222657 2.960937 2.527344 5.054687l-23.679687 71.03125c-.417969 1.234376-.207032 2.546876.542968 3.601563.769532 1.054687 1.945313 1.664063 3.25 1.664063h28.902344c19.847656 0 36-16.152344 36-36v-47.046876c0-2.210937 1.792969-4 4-4s4 1.789063 4 4v47.046876c0 24.273437-19.742188 44.007812-44 44.007812zm0 0" fill="#3e2807" fill-opacity="1" data-original-color="#263238ff" stroke="none" stroke-opacity="1"/><path d="m192 143.039062c-2.207031 0-4-1.792968-4-4v-47.039062c0-24.265625 19.742188-44 44-44h28.894531c3.90625 0 7.457031 1.816406 9.746094 4.984375 2.28125 3.167969 2.878906 7.105469 1.648437 10.808594l-23.679687 71.03125c-.707031 2.097656-2.953125 3.222656-5.066406 2.527343-2.09375-.695312-3.222657-2.960937-2.527344-5.054687l23.679687-71.03125c.417969-1.234375.207032-2.546875-.542968-3.601563-.769532-1.054687-1.945313-1.664062-3.25-1.664062h-28.902344c-19.847656 0-36 16.152344-36 36v47.039062c0 2.21875-1.792969 4-4 4zm0 0" fill="#3e2807" fill-opacity="1" data-original-color="#263238ff" stroke="none" stroke-opacity="1"/><path d="m132 228c0-5.742188.59375-11.34375 1.558594-16.808594l-71.03125-23.679687c-5.175782-1.726563-10.527344 2.128906-10.527344 7.585937v28.902344c0 22.089844 17.910156 40 40 40h47.039062c-4.503906-11.128906-7.039062-23.257812-7.039062-36zm0 0" fill="#e3a547" fill-opacity="1" data-original-color="#ffd740ff" stroke="none" stroke-opacity="1"/><path d="m324 228c0 5.742188-.59375 11.34375-1.558594 16.808594l71.03125 23.679687c5.175782 1.726563 10.527344-2.128906 10.527344-7.59375v-28.902343c0-22.089844-17.910156-40-40-40h-47.039062c4.503906 11.128906 7.039062 23.265624 7.039062 36.007812zm0 0" fill="#e3a547" fill-opacity="1" data-original-color="#ffd740ff" stroke="none" stroke-opacity="1"/><path d="m139.046875 268h-47.046875c-24.257812 0-44-19.734375-44-44v-28.902344c0-3.90625 1.824219-7.457031 4.984375-9.738281 3.167969-2.289063 7.113281-2.886719 10.816406-1.648437l71.03125 23.679687c2.097657.699219 3.222657 2.960937 2.527344 5.058594-.703125 2.09375-2.96875 3.238281-5.0625 2.527343l-71.03125-23.679687c-1.25-.410156-2.554687-.207031-3.601563.550781-1.054687.761719-1.664062 1.945313-1.664062 3.25v28.902344c0 19.847656 16.152344 36 36 36h47.046875c2.210937 0 4 1.792969 4 4s-1.789063 4-4 4zm0 0" fill="#3e2807" fill-opacity="1" data-original-color="#263238ff" stroke="none" stroke-opacity="1"/><path d="m396.039062 272.910156c-1.277343 0-2.566406-.207031-3.832031-.628906l-71.03125-23.679688c-2.097656-.699218-3.222656-2.960937-2.527343-5.058593.703124-2.09375 2.96875-3.222657 5.0625-2.527344l71.03125 23.679687c1.242187.394532 2.546874.199219 3.601562-.550781 1.054688-.761719 1.664062-1.945312 1.664062-3.25v-28.894531c0-19.847656-16.152343-36-36-36h-47.046874c-2.207032 0-4-1.792969-4-4s1.792968-4 4-4h47.039062c24.257812 0 44 19.734375 44 44v28.894531c0 3.90625-1.824219 7.457031-4.984375 9.738281-2.085937 1.503907-4.511719 2.277344-6.976563 2.277344zm0 0" fill="#3e2807" fill-opacity="1" data-original-color="#263238ff" stroke="none" stroke-opacity="1"/><path d="m160.121094 160.121094c4.0625-4.066406 8.4375-7.601563 12.992187-10.785156l-33.488281-66.96875c-2.441406-4.886719-8.953125-5.941407-12.816406-2.078126l-20.433594 20.429688c-15.621094 15.625-15.621094 40.945312 0 56.570312l33.265625 33.261719c4.679687-11.046875 11.472656-21.421875 20.480469-30.429687zm0 0" fill="#e3a547" fill-opacity="1" data-original-color="#ffd740ff" stroke="none" stroke-opacity="1"/><path d="m295.878906 295.878906c-4.0625 4.066406-8.4375 7.601563-12.992187 10.785156l33.488281 66.96875c2.441406 4.886719 8.953125 5.941407 12.816406 2.078126l20.433594-20.429688c15.621094-15.625 15.621094-40.945312 0-56.570312l-33.265625-33.261719c-4.679687 11.046875-11.472656 21.421875-20.480469 30.429687zm0 0" fill="#e3a547" fill-opacity="1" data-original-color="#ffd740ff" stroke="none" stroke-opacity="1"/><path d="m139.640625 194.550781c-1.023437 0-2.046875-.390625-2.832031-1.167969l-33.265625-33.261718c-17.152344-17.160156-17.152344-45.074219 0-62.226563l20.441406-20.429687c2.75-2.761719 6.550781-4.007813 10.40625-3.359375 3.855469.621093 7.074219 2.992187 8.816406 6.480469l33.488281 66.964843c.984376 1.976563.183594 4.378907-1.792968 5.371094-1.972656.972656-4.375.191406-5.367188-1.792969l-33.488281-66.976562c-.574219-1.167969-1.648437-1.953125-2.933594-2.160156-1.265625-.191407-2.539062.199218-3.472656 1.121093l-20.441406 20.429688c-14.03125 14.03125-14.03125 36.882812 0 50.914062l33.265625 33.261719c1.558594 1.5625 1.558594 4.097656 0 5.65625-.777344.792969-1.800782 1.175781-2.824219 1.175781zm0 0" fill="#3e2807" fill-opacity="1" data-original-color="#263238ff" stroke="none" stroke-opacity="1"/><path d="m323.574219 382.0625c-.644531 0-1.308594-.054688-1.972657-.160156-3.847656-.628906-7.066406-2.992188-8.808593-6.488282l-33.488281-66.964843c-.984376-1.976563-.183594-4.378907 1.792968-5.371094 1.980469-.972656 4.367188-.183594 5.367188 1.792969l33.488281 66.96875c.574219 1.167968 1.648437 1.953125 2.933594 2.160156 1.28125.207031 2.546875-.199219 3.472656-1.121094l20.441406-20.4375c14.03125-14.035156 14.03125-36.875 0-50.914062l-33.265625-33.261719c-1.558594-1.5625-1.558594-4.097656 0-5.65625 1.5625-1.5625 4.097656-1.5625 5.65625 0l33.265625 33.261719c17.152344 17.160156 17.152344 45.066406 0 62.226562l-20.441406 20.4375c-2.289063 2.296875-5.28125 3.527344-8.441406 3.527344zm0 0" fill="#3e2807" fill-opacity="1" data-original-color="#263238ff" stroke="none" stroke-opacity="1"/><path d="m295.878906 160.121094c4.066406 4.0625 7.601563 8.4375 10.785156 12.992187l66.96875-33.488281c4.886719-2.441406 5.941407-8.953125 2.078126-12.816406l-20.429688-20.433594c-15.625-15.621094-40.945312-15.621094-56.570312 0l-33.261719 33.265625c11.046875 4.679687 21.421875 11.464844 30.429687 20.480469zm0 0" fill="#e3a547" fill-opacity="1" data-original-color="#ffd740ff" stroke="none" stroke-opacity="1"/><path d="m160.121094 295.878906c-4.066406-4.0625-7.601563-8.4375-10.785156-12.992187l-66.96875 33.488281c-4.886719 2.441406-5.941407 8.953125-2.078126 12.816406l20.429688 20.433594c15.625 15.621094 40.945312 15.621094 56.570312 0l33.261719-33.265625c-11.046875-4.679687-21.421875-11.472656-30.429687-20.480469zm0 0" fill="#e3a547" fill-opacity="1" data-original-color="#ffd740ff" stroke="none" stroke-opacity="1"/><path d="m306.664062 177.113281c-1.464843 0-2.871093-.808593-3.574218-2.210937-.984375-1.972656-.1875-4.375 1.789062-5.367188l66.96875-33.488281c1.167969-.582031 1.953125-1.65625 2.167969-2.933594.214844-1.28125-.191406-2.546875-1.121094-3.472656l-20.4375-20.441406c-6.808593-6.800781-15.847656-10.535157-25.464843-10.535157-9.617188 0-18.65625 3.742188-25.457032 10.542969l-33.261718 33.265625c-1.5625 1.558594-4.097657 1.558594-5.65625 0-1.5625-1.5625-1.5625-4.097656 0-5.65625l33.261718-33.265625c8.304688-8.320312 19.359375-12.886719 31.113282-12.886719 11.761718 0 22.808593 4.574219 31.121093 12.886719l20.4375 20.441407c2.761719 2.761718 3.984375 6.550781 3.359375 10.40625-.621094 3.847656-2.988281 7.066406-6.484375 8.808593l-66.96875 33.488281c-.585937.28125-1.191406.417969-1.792969.417969zm0 0" fill="#3e2807" fill-opacity="1" data-original-color="#263238ff" stroke="none" stroke-opacity="1"/><path d="m129.007812 365.335938c-11.761718 0-22.808593-4.574219-31.121093-12.886719l-20.4375-20.433594c-2.769531-2.769531-3.984375-6.558594-3.359375-10.414063.628906-3.847656 2.988281-7.066406 6.484375-8.808593l66.96875-33.488281c1.992187-.976563 4.367187-.191407 5.367187 1.792968.984375 1.972656.1875 4.375-1.789062 5.367188l-66.96875 33.488281c-1.167969.582031-1.953125 1.65625-2.167969 2.933594-.207031 1.289062.191406 2.554687 1.121094 3.472656l20.4375 20.433594c6.808593 6.800781 15.839843 10.542969 25.464843 10.542969s18.65625-3.742188 25.457032-10.542969l33.261718-33.265625c1.5625-1.558594 4.097657-1.558594 5.65625 0 1.5625 1.5625 1.5625 4.097656 0 5.65625l-33.261718 33.265625c-8.304688 8.3125-19.359375 12.886719-31.113282 12.886719zm0 0" fill="#3e2807" fill-opacity="1" data-original-color="#263238ff" stroke="none" stroke-opacity="1"/><path d="m228 148c-44.183594 0-80 35.816406-80 80s35.816406 80 80 80 80-35.816406 80-80-35.816406-80-80-80zm0 120c-22.089844 0-40-17.910156-40-40s17.910156-40 40-40 40 17.910156 40 40-17.910156 40-40 40zm0 0" fill="#ffd740" fill-opacity="1" data-original-color="#40c4ffff" stroke="none" stroke-opacity="1"/><g fill="#263238"><path d="m228 312c-46.320312 0-84-37.679688-84-84s37.679688-84 84-84 84 37.679688 84 84-37.679688 84-84 84zm0-160c-41.902344 0-76 34.097656-76 76s34.097656 76 76 76 76-34.097656 76-76-34.097656-76-76-76zm0 120c-24.257812 0-44-19.734375-44-44s19.742188-44 44-44 44 19.734375 44 44-19.742188 44-44 44zm0-80c-19.847656 0-36 16.152344-36 36s16.152344 36 36 36 36-16.152344 36-36-16.152344-36-36-36zm0 0" fill="#3e2807" fill-opacity="1" data-original-color="#263238ff" stroke="none" stroke-opacity="1"/><path d="m4 232c-2.207031 0-4-1.792969-4-4 0-125.71875 102.28125-228 228-228 2.207031 0 4 1.792969 4 4s-1.792969 4-4 4c-121.304688 0-220 98.6875-220 220 0 2.207031-1.792969 4-4 4zm0 0" fill="#3e2807" fill-opacity="1" data-original-color="#263238ff" stroke="none" stroke-opacity="1"/><path d="m252 8h-8c-2.207031 0-4-1.792969-4-4s1.792969-4 4-4h8c2.207031 0 4 1.792969 4 4s-1.792969 4-4 4zm0 0" fill="#3e2807" fill-opacity="1" data-original-color="#263238ff" stroke="none" stroke-opacity="1"/><path d="m228 456c-2.207031 0-4-1.792969-4-4s1.792969-4 4-4c121.304688 0 220-98.6875 220-220 0-2.207031 1.792969-4 4-4s4 1.792969 4 4c0 125.71875-102.28125 228-228 228zm0 0" fill="#3e2807" fill-opacity="1" data-original-color="#263238ff" stroke="none" stroke-opacity="1"/><path d="m212 456h-8c-2.207031 0-4-1.792969-4-4s1.792969-4 4-4h8c2.207031 0 4 1.792969 4 4s-1.792969 4-4 4zm0 0" fill="#3e2807" fill-opacity="1" data-original-color="#263238ff" stroke="none" stroke-opacity="1"/><path d="m28 392c-2.207031 0-4-1.792969-4-4v-32c0-2.207031 1.792969-4 4-4s4 1.792969 4 4v32c0 2.207031-1.792969 4-4 4zm0 0" fill="#3e2807" fill-opacity="1" data-original-color="#263238ff" stroke="none" stroke-opacity="1"/><path d="m44 376h-32c-2.207031 0-4-1.792969-4-4s1.792969-4 4-4h32c2.207031 0 4 1.792969 4 4s-1.792969 4-4 4zm0 0" fill="#3e2807" fill-opacity="1" data-original-color="#263238ff" stroke="none" stroke-opacity="1"/><path d="m80 448c-2.207031 0-4-1.792969-4-4v-32c0-2.207031 1.792969-4 4-4s4 1.792969 4 4v32c0 2.207031-1.792969 4-4 4zm0 0" fill="#3e2807" fill-opacity="1" data-original-color="#263238ff" stroke="none" stroke-opacity="1"/><path d="m96 432h-32c-2.207031 0-4-1.792969-4-4s1.792969-4 4-4h32c2.207031 0 4 1.792969 4 4s-1.792969 4-4 4zm0 0" fill="#3e2807" fill-opacity="1" data-original-color="#263238ff" stroke="none" stroke-opacity="1"/><path d="m228 192c-2.207031 0-4-1.792969-4-4v-16c0-2.207031 1.792969-4 4-4s4 1.792969 4 4v16c0 2.207031-1.792969 4-4 4zm0 0" fill="#3e2807" fill-opacity="1" data-original-color="#263238ff" stroke="none" stroke-opacity="1"/><path d="m228 288c-2.207031 0-4-1.792969-4-4v-16c0-2.207031 1.792969-4 4-4s4 1.792969 4 4v16c0 2.207031-1.792969 4-4 4zm0 0" fill="#3e2807" fill-opacity="1" data-original-color="#263238ff" stroke="none" stroke-opacity="1"/><path d="m284 232h-16c-2.207031 0-4-1.792969-4-4s1.792969-4 4-4h16c2.207031 0 4 1.792969 4 4s-1.792969 4-4 4zm0 0" fill="#3e2807" fill-opacity="1" data-original-color="#263238ff" stroke="none" stroke-opacity="1"/><path d="m188 232h-16c-2.207031 0-4-1.792969-4-4s1.792969-4 4-4h16c2.207031 0 4 1.792969 4 4s-1.792969 4-4 4zm0 0" fill="#3e2807" fill-opacity="1" data-original-color="#263238ff" stroke="none" stroke-opacity="1"/></g><path d="m267.601562 267.601562-11.3125-11.320312" fill="#ffd740" fill-opacity="1" data-original-color="#40c4ffff" stroke="none" stroke-opacity="1"/><path d="m267.601562 271.601562c-1.027343 0-2.050781-.394531-2.832031-1.167968l-11.320312-11.320313c-1.5625-1.5625-1.5625-4.097656 0-5.65625 1.558593-1.5625 4.09375-1.5625 5.65625 0l11.320312 11.320313c1.558594 1.558594 1.558594 4.09375 0 5.65625-.777343.773437-1.800781 1.167968-2.824219 1.167968zm0 0" fill="#3e2807" fill-opacity="1" data-original-color="#263238ff" stroke="none" stroke-opacity="1"/><path d="m199.710938 199.710938-11.3125-11.3125" fill="#ffd740" fill-opacity="1" data-original-color="#40c4ffff" stroke="none" stroke-opacity="1"/><path d="m199.71875 203.710938c-1.023438 0-2.046875-.390626-2.832031-1.167969l-11.320313-11.3125c-1.558594-1.558594-1.558594-4.09375 0-5.65625 1.5625-1.558594 4.097656-1.558594 5.65625 0l11.320313 11.3125c1.5625 1.5625 1.5625 4.097656 0 5.65625-.773438.785156-1.800781 1.167969-2.824219 1.167969zm0 0" fill="#3e2807" fill-opacity="1" data-original-color="#263238ff" stroke="none" stroke-opacity="1"/><path d="m188.398438 267.601562 11.3125-11.320312" fill="#ffd740" fill-opacity="1" data-original-color="#40c4ffff" stroke="none" stroke-opacity="1"/><path d="m188.398438 271.601562c-1.023438 0-2.046876-.394531-2.832032-1.167968-1.558594-1.5625-1.558594-4.097656 0-5.65625l11.320313-11.320313c1.5625-1.5625 4.097656-1.5625 5.65625 0 1.5625 1.558594 1.5625 4.09375 0 5.65625l-11.320313 11.320313c-.773437.773437-1.796875 1.167968-2.824218 1.167968zm0 0" fill="#3e2807" fill-opacity="1" data-original-color="#263238ff" stroke="none" stroke-opacity="1"/><path d="m256.289062 199.710938 11.3125-11.3125" fill="#ffd740" fill-opacity="1" data-original-color="#40c4ffff" stroke="none" stroke-opacity="1"/><path d="m256.28125 203.710938c-1.023438 0-2.050781-.390626-2.832031-1.167969-1.5625-1.558594-1.5625-4.09375 0-5.65625l11.320312-11.3125c1.558594-1.558594 4.09375-1.558594 5.65625 0 1.558594 1.5625 1.558594 4.097656 0 5.65625l-11.320312 11.3125c-.777344.785156-1.800781 1.167969-2.824219 1.167969zm0 0" fill="#3e2807" fill-opacity="1" data-original-color="#263238ff" stroke="none" stroke-opacity="1"/></g></svg>