<svg height="300" viewBox="0 -52 512 512" width="300" xmlns="http://www.w3.org/2000/svg" version="1.1" xmlns:xlink="http://www.w3.org/1999/xlink" xmlns:svgjs="http://svgjs.dev/svgjs"><g transform="matrix(1,0,0,1,0,0)"><path d="m356 403.972656h-232c-11.046875 0-20-8.953125-20-20v-104c0-11.046875 8.953125-20 20-20h232c11.046875 0 20 8.953125 20 20v104c0 11.046875-8.953125 20-20 20zm0 0" fill="#e3a547" fill-opacity="1" data-original-color="#ffd740ff" stroke="none" stroke-opacity="1"/><path d="m356 407.972656h-232c-13.230469 0-24-10.769531-24-24v-104c0-13.234375 10.769531-24 24-24h232c13.230469 0 24 10.765625 24 24v104c0 13.230469-10.769531 24-24 24zm-232-144c-8.824219 0-16 7.175782-16 16v104c0 8.824219 7.175781 16 16 16h232c8.824219 0 16-7.175781 16-16v-104c0-8.824218-7.175781-16-16-16zm0 0" fill="#3e2807" fill-opacity="1" data-original-color="#263238ff" stroke="none" stroke-opacity="1"/><path d="m392 305.972656h20c4.414062 0 8 3.582032 8 8v36c0 4.414063-3.585938 8-8 8h-20" fill="#e3a547" fill-opacity="1" data-original-color="#ffd740ff" stroke="none" stroke-opacity="1"/><g fill="#263238"><path d="m412 361.972656h-20c-2.207031 0-4-1.792968-4-4 0-2.207031 1.792969-4 4-4h20c2.207031 0 4-1.792968 4-4v-36c0-2.207031-1.792969-4-4-4h-20c-2.207031 0-4-1.792968-4-4 0-2.207031 1.792969-4 4-4h20c6.617188 0 12 5.382813 12 12v36c0 6.617188-5.382812 12-12 12zm0 0" fill="#3e2807" fill-opacity="1" data-original-color="#263238ff" stroke="none" stroke-opacity="1"/><path d="m352 383.972656c-2.207031 0-4-1.792968-4-4v-96c0-2.207031 1.792969-4 4-4s4 1.792969 4 4v96c0 2.207032-1.792969 4-4 4zm0 0" fill="#3e2807" fill-opacity="1" data-original-color="#263238ff" stroke="none" stroke-opacity="1"/><path d="m128 383.972656c-2.207031 0-4-1.792968-4-4v-96c0-2.207031 1.792969-4 4-4s4 1.792969 4 4v96c0 2.207032-1.792969 4-4 4zm0 0" fill="#3e2807" fill-opacity="1" data-original-color="#263238ff" stroke="none" stroke-opacity="1"/><path d="m276 203.972656h-8c-2.207031 0-4-1.792968-4-4 0-2.207031 1.792969-4 4-4h8c2.207031 0 4 1.792969 4 4 0 2.207032-1.792969 4-4 4zm0 0" fill="#3e2807" fill-opacity="1" data-original-color="#263238ff" stroke="none" stroke-opacity="1"/><path d="m252 203.972656h-120c-2.207031 0-4-1.792968-4-4 0-2.207031 1.792969-4 4-4h120c2.207031 0 4 1.792969 4 4 0 2.207032-1.792969 4-4 4zm0 0" fill="#3e2807" fill-opacity="1" data-original-color="#263238ff" stroke="none" stroke-opacity="1"/><path d="m64 179.972656h-8c-2.207031 0-4-1.792968-4-4 0-2.207031 1.792969-4 4-4h8c2.207031 0 4 1.792969 4 4 0 2.207032-1.792969 4-4 4zm0 0" fill="#3e2807" fill-opacity="1" data-original-color="#263238ff" stroke="none" stroke-opacity="1"/><path d="m200 179.972656h-120c-2.207031 0-4-1.792968-4-4 0-2.207031 1.792969-4 4-4h120c2.207031 0 4 1.792969 4 4 0 2.207032-1.792969 4-4 4zm0 0" fill="#3e2807" fill-opacity="1" data-original-color="#263238ff" stroke="none" stroke-opacity="1"/><path d="m468 306.195312c-15.441406 0-28-12.558593-28-28 0-3.023437.511719-6.015624 1.527344-8.941406-11.03125-8.3125-17.527344-21.1875-17.527344-35.058594 0-24.261718 19.734375-44 44-44s44 19.738282 44 44c0 13.871094-6.496094 26.746094-17.527344 35.058594 1.015625 2.917969 1.527344 5.917969 1.527344 8.941406 0 15.441407-12.558594 28-28 28zm0-108c-19.847656 0-36 16.152344-36 36 0 12.257813 6.207031 23.570313 16.617188 30.25 1.703124 1.09375 2.320312 3.285157 1.4375 5.109376-1.367188 2.816406-2.054688 5.722656-2.054688 8.640624 0 11.023438 8.976562 20 20 20s20-8.976562 20-20c0-2.917968-.6875-5.824218-2.054688-8.648437-.882812-1.824219-.265624-4.015625 1.4375-5.109375 10.410157-6.671875 16.617188-17.984375 16.617188-30.242188 0-19.855468-16.152344-36-36-36zm0 0" fill="#3e2807" fill-opacity="1" data-original-color="#263238ff" stroke="none" stroke-opacity="1"/><path d="m388 190.195312c-16.023438 0-31.097656-6.238281-42.425781-17.574218-9.902344-9.90625-15.941407-22.808594-17.253907-36.707032-18.808593.800782-37.160156-6.398437-50.632812-19.863281-26.511719-26.511719-26.511719-69.65625 0-96.167969 26.503906-26.511718 69.65625-26.511718 96.167969 0 13.464843 13.472657 20.578125 31.730469 19.855469 50.632813 13.898437 1.3125 26.808593 7.351563 36.703124 17.257813 11.347657 11.328124 17.585938 26.390624 17.585938 42.421874s-6.238281 31.097657-17.574219 42.425782c-11.335937 11.328125-26.402343 17.574218-42.425781 17.574218zm-55.929688-62.542968c.976563 0 1.914063.351562 2.648438 1 .832031.734375 1.320312 1.785156 1.351562 2.894531.34375 13.410156 5.730469 25.984375 15.160157 35.417969 9.824219 9.824218 22.882812 15.230468 36.769531 15.230468s26.953125-5.40625 36.769531-15.230468c9.816407-9.824219 15.230469-22.878906 15.230469-36.769532 0-13.886718-5.40625-26.953124-15.230469-36.765624-9.433593-9.433594-22.007812-14.816407-35.417969-15.160157-1.113281-.035156-2.160156-.523437-2.894531-1.355469-.738281-.828124-1.089843-1.933593-.984375-3.039062 1.765625-17.96875-4.527344-35.582031-17.273437-48.335938-23.382813-23.390624-61.457031-23.390624-84.855469 0-23.390625 23.394532-23.390625 61.457032 0 84.855469 12.753906 12.746094 30.382812 19.035157 48.335938 17.28125.128906-.015625.265624-.023437.390624-.023437zm0 0" fill="#3e2807" fill-opacity="1" data-original-color="#263238ff" stroke="none" stroke-opacity="1"/><path d="m88 309.972656h-84c-2.207031 0-4-1.792968-4-4 0-2.207031 1.792969-4 4-4h84c2.207031 0 4 1.792969 4 4 0 2.207032-1.792969 4-4 4zm0 0" fill="#3e2807" fill-opacity="1" data-original-color="#263238ff" stroke="none" stroke-opacity="1"/><path d="m88 361.972656h-84c-2.207031 0-4-1.792968-4-4 0-2.207031 1.792969-4 4-4h84c2.207031 0 4 1.792969 4 4 0 2.207032-1.792969 4-4 4zm0 0" fill="#3e2807" fill-opacity="1" data-original-color="#263238ff" stroke="none" stroke-opacity="1"/></g></g></svg>