<svg xmlns="http://www.w3.org/2000/svg" version="1.1" xmlns:xlink="http://www.w3.org/1999/xlink" width="512" height="512" x="0" y="0" viewBox="0 0 502 502.624" style="enable-background:new 0 0 512 512" xml:space="preserve" class=""><g><path d="m451.625 168-168-168-49.578 49.574-32-16-32.16 32.16 16 32-95.84 95.84-32-16-32.16 32.16 16 32L.312 283.312l219.313 219.313 41.574-41.578 32 16 32.16-32.16-16-32 142.266-142.262zM205.199 53.047l16.922 8.457-24.305 24.305-8.457-16.922zm-144 144 16.922 8.457-24.305 24.305-8.457-16.922zm228.848 260.527-16.918-8.453 24.305-24.305 8.453 16.918zM435.625 264l-216 216L22.937 283.312 283.625 22.625l152 152zm0 0" fill="#e3a547" opacity="1" data-original="#000000" class=""></path><path d="m40.313 283.313 179.312 179.312 179.313-179.313L219.625 104zm155.312-132.688 60.688 60.688L243.625 224l-60.688-60.688zm-24 24 60.688 60.688L219.625 248l-60.688-60.688zm-24 24 60.688 60.688L195.625 272l-60.688-60.688zm-24 24 60.688 60.688L171.625 296l-60.688-60.688zm-24 24 60.688 60.688L147.625 320l-60.688-60.688zm-36.688 36.688 12.688-12.688 60.688 60.688L123.624 344zM219.625 440l-60.688-60.688 12.688-12.687 60.688 60.688zm24-24-60.688-60.688 12.688-12.687 60.688 60.688zm24-24-60.688-60.688 12.688-12.687 60.688 60.688zm24-24-60.688-60.688 12.688-12.687 60.688 60.688zm24-24-60.688-60.688 12.688-12.687 60.688 60.688zm24-24-60.688-60.688 12.688-12.687 60.688 60.688zm36.688-36.688L363.625 296l-60.688-60.688 12.688-12.687zm-72-72L147.625 368l-12.688-12.688 156.688-156.687zM267.625 200l-60.688-60.688 12.688-12.687 60.688 60.688zM232.313 91.313l168 168h19.312V176l-136-136zM403.625 240 254.937 91.312l28.688-28.687 120 120zm0 0" fill="#e3a547" opacity="1" data-original="#000000" class=""></path></g></svg>