<svg height="300" viewBox="-49 0 512 512" width="300" xmlns="http://www.w3.org/2000/svg" version="1.1" xmlns:xlink="http://www.w3.org/1999/xlink" xmlns:svgjs="http://svgjs.dev/svgjs"><g transform="matrix(1,0,0,1,0,0)"><path d="m414 256c0 114.324219-92.675781 207-207 207s-207-92.675781-207-207 92.675781-207 207-207 207 92.675781 207 207zm0 0" fill="#f0c48a" fill-opacity="0" data-original-color="#f0c48aff" stroke="none" stroke-opacity="1"/><path d="m223.90625 5.863281-72.980469 72.980469c-4.074219 4.074219-6.363281 9.601562-6.363281 15.363281v107.144531h43.066406v-89.304687c0-5.765625 2.285156-11.289063 6.363282-15.367187l60.367187-60.367188zm0 0" fill="#ffffff" fill-opacity="1" data-original-color="#ffffffff" stroke="none" stroke-opacity="1"/><path d="m214.347656 247.375h-108v212.734375h165.351563v-155.378906c0-31.675781-25.675781-57.355469-57.351563-57.355469zm28.613282 172.386719h-61.363282v-142.371094h22.980469c21.199219 0 38.382813 17.183594 38.382813 38.382813zm0 0" fill="#e3a547" fill-opacity="1" data-original-color="#fd919eff" stroke="none" stroke-opacity="1"/><path d="m218.085938 362.175781-13.507813-84.785156h-22.976563v98.359375h24.902344c7.214844 0 12.71875-6.449219 11.582032-13.574219zm0 0" fill="#e3a547" fill-opacity="1" data-original-color="#e8677dff" stroke="none" stroke-opacity="1"/><path d="m214.347656 247.375h-28.742187c31.675781 0 57.355469 25.679688 57.355469 57.355469v155.378906h28.738281v-155.378906c0-31.675781-25.675781-57.355469-57.351563-57.355469zm0 0" fill="#e3a547" fill-opacity="1" data-original-color="#e8677dff" stroke="none" stroke-opacity="1"/><path d="m204.578125 271.527344h-22.980469c-3.238281 0-5.863281 2.625-5.863281 5.863281v142.371094c0 3.234375 2.625 5.859375 5.863281 5.859375h61.363282c3.238281 0 5.863281-2.625 5.863281-5.859375v-103.988281c0-24.394532-19.847657-44.246094-44.246094-44.246094zm32.519531 142.371094h-49.636718v-130.644532h17.117187c17.933594 0 32.523437 14.589844 32.523437 32.519532v98.125zm0 0" fill="#3e2807" fill-opacity="1" data-original-color="#4c4372ff" stroke="none" stroke-opacity="1"/><path d="m128.53125 201.351562h77.023438v46.023438h-77.023438zm0 0" fill="#ffd493" fill-opacity="1" data-original-color="#d3e6f8ff" stroke="none" stroke-opacity="1"/><path d="m128.53125 460.109375h77.023438v46.027344h-77.023438zm0 0" fill="#ffd493" fill-opacity="1" data-original-color="#d3e6f8ff" stroke="none" stroke-opacity="1"/><path d="m181.597656 201.351562h23.957032v46.023438h-23.957032zm0 0" fill="#ffd493" fill-opacity="1" data-original-color="#a4cff2ff" stroke="none" stroke-opacity="1"/><path d="m181.597656 460.109375h23.957032v46.027344h-23.957032zm0 0" fill="#ffd493" fill-opacity="1" data-original-color="#a4cff2ff" stroke="none" stroke-opacity="1"/><path d="m240.933594 22.886719-66.207032 66.207031c-4.074218 4.074219-6.363281 9.601562-6.363281 15.363281v96.894531h19.265625v-89.304687c0-5.765625 2.285156-11.289063 6.363282-15.367187l60.367187-60.367188zm0 0" fill="#ffd493" fill-opacity="1" data-original-color="#d3e6f8ff" stroke="none" stroke-opacity="1"/><path d="m302.105469 131.058594-35.363281-61.25-35.363282 61.25c-15.714844 27.222656 3.929688 61.25 35.363282 61.25 31.433593 0 51.082031-34.027344 35.363281-61.25zm0 0" fill="#ffd493" fill-opacity="1" data-original-color="#d3e6f8ff" stroke="none" stroke-opacity="1"/><path d="m302.105469 131.058594-35.363281-61.25-9.445313 16.363281 25.914063 44.886719c14.074218 24.375-.207032 54.203125-25.914063 60.175781 3.003906.699219 6.15625 1.074219 9.445313 1.074219 31.433593 0 51.082031-34.027344 35.363281-61.25zm0 0" fill="#ffd493" fill-opacity="1" data-original-color="#a4cff2ff" stroke="none" stroke-opacity="1"/><g fill="#4c4372"><path d="m307.183594 128.125-35.363282-61.25c-1.046874-1.8125-2.980468-2.929688-5.078124-2.929688-2.09375 0-4.027344 1.117188-5.074219 2.929688l-35.363281 61.253906c-8.441407 14.617188-8.441407 32.074219 0 46.691406 8.4375 14.621094 23.558593 23.351563 40.4375 23.351563 16.882812 0 32-8.730469 40.441406-23.351563 8.441406-14.617187 8.441406-32.074218 0-46.695312zm-10.152344 40.835938c-6.324219 10.949218-17.644531 17.484374-30.289062 17.484374-12.640626 0-23.964844-6.535156-30.285157-17.484374-6.320312-10.949219-6.320312-24.023438 0-34.972657l30.285157-52.457031 30.289062 52.457031c6.320312 10.949219 6.320312 24.023438 0 34.972657zm0 0" fill="#3e2807" fill-opacity="1" data-original-color="#4c4372ff" stroke="none" stroke-opacity="1"/><path d="m214.347656 241.511719h-108c-3.238281 0-5.863281 2.625-5.863281 5.863281v212.738281c0 3.234375 2.625 5.859375 5.863281 5.859375h165.351563c3.238281 0 5.863281-2.625 5.863281-5.859375v-155.382812c0-34.859375-28.359375-63.21875-63.214844-63.21875zm51.488282 212.738281h-153.625v-201.011719h102.136718c28.390625 0 51.488282 23.101563 51.488282 51.492188zm0 0" fill="#3e2807" fill-opacity="1" data-original-color="#4c4372ff" stroke="none" stroke-opacity="1"/><path d="m205.554688 195.488281h-77.023438c-3.238281 0-5.863281 2.625-5.863281 5.863281v46.023438c0 3.238281 2.625 5.863281 5.863281 5.863281h77.023438c3.238281 0 5.863281-2.625 5.863281-5.863281v-46.023438c0-3.238281-2.625-5.863281-5.863281-5.863281zm-5.859376 46.023438h-65.300781v-34.296875h65.300781zm0 0" fill="#3e2807" fill-opacity="1" data-original-color="#4c4372ff" stroke="none" stroke-opacity="1"/><path d="m205.554688 454.25h-77.023438c-3.238281 0-5.863281 2.625-5.863281 5.863281v46.023438c0 3.238281 2.625 5.863281 5.863281 5.863281h77.023438c3.238281 0 5.863281-2.625 5.863281-5.863281v-46.023438c0-3.238281-2.625-5.863281-5.863281-5.863281zm-5.859376 46.023438h-65.300781v-34.300782h65.300781zm0 0" fill="#3e2807" fill-opacity="1" data-original-color="#4c4372ff" stroke="none" stroke-opacity="1"/><path d="m258.503906 32.167969-30.449218-30.449219c-1.101563-1.101562-2.589844-1.71875-4.148438-1.71875-1.554688 0-3.042969.617188-4.144531 1.71875l-72.980469 72.980469c-5.210938 5.210937-8.082031 12.140625-8.082031 19.507812v107.144531c0 3.238282 2.625 5.863282 5.863281 5.863282h43.0625c3.238281 0 5.863281-2.625 5.863281-5.863282v-89.304687c0-4.238281 1.652344-8.222656 4.648438-11.21875l60.367187-60.367187c2.289063-2.289063 2.289063-6.003907 0-8.292969zm-68.65625 60.367187c-5.210937 5.210938-8.082031 12.140625-8.082031 19.511719v83.441406h-31.339844v-101.28125c0-4.238281 1.648438-8.21875 4.644531-11.21875l68.835938-68.835937 22.160156 22.160156zm0 0" fill="#3e2807" fill-opacity="1" data-original-color="#4c4372ff" stroke="none" stroke-opacity="1"/><path d="m223.875 361.253906-13.507812-84.785156c-.453126-2.847656-2.90625-4.941406-5.789063-4.941406h-22.980469c-3.238281 0-5.863281 2.625-5.863281 5.863281v98.359375c0 3.238281 2.625 5.863281 5.863281 5.863281h24.90625c5.15625 0 10.03125-2.25 13.382813-6.171875 3.34375-3.925781 4.800781-9.09375 3.988281-14.1875zm-12.910156 6.574219c-1.132813 1.328125-2.71875 2.058594-4.460938 2.058594h-19.042968v-86.632813h12.113281l12.722656 79.84375c.273437 1.722656-.199219 3.40625-1.332031 4.730469zm0 0" fill="#3e2807" fill-opacity="1" data-original-color="#4c4372ff" stroke="none" stroke-opacity="1"/></g></g></svg>