<svg height="300" viewBox="-52 0 512 512" width="300" xmlns="http://www.w3.org/2000/svg" version="1.1" xmlns:xlink="http://www.w3.org/1999/xlink" xmlns:svgjs="http://svgjs.dev/svgjs"><g transform="matrix(1,0,0,1,0,0)"><path d="m300 266.335938c-15.464844 0-28 12.535156-28 28v40h-40v1.664062c0 15.464844-12.535156 28-28 28s-28-12.535156-28-28v-1.664062h-40v-40c0-15.464844-12.535156-28-28-28s-28 12.535156-28 28v136c0 15.464843 12.535156 28 28 28s28-12.535157 28-28v-40h40v40c0 15.464843 12.535156 28 28 28s28-12.535157 28-28v-40h40v40c0 15.464843 12.535156 28 28 28s28-12.535157 28-28v-136c0-15.464844-12.535156-28-28-28zm0 0" fill="#e3a547" fill-opacity="1" data-original-color="#40c4ffff" stroke="none" stroke-opacity="1"/><path d="m300 462.335938c-17.648438 0-32-14.351563-32-32v-36h-32v36c0 17.648437-14.351562 32-32 32s-32-14.351563-32-32v-36h-32v36c0 17.648437-14.351562 32-32 32s-32-14.351563-32-32v-136c0-17.648438 14.351562-32 32-32s32 14.351562 32 32v36h20c2.207031 0 4 1.792968 4 4 0 2.207031-1.792969 4-4 4h-24c-2.207031 0-4-1.792969-4-4v-40c0-13.230469-10.769531-24-24-24s-24 10.769531-24 24v136c0 13.230468 10.769531 24 24 24s24-10.769532 24-24v-40c0-2.207032 1.792969-4 4-4h40c2.207031 0 4 1.792968 4 4v40c0 13.230468 10.769531 24 24 24s24-10.769532 24-24v-40c0-2.207032 1.792969-4 4-4h40c2.207031 0 4 1.792968 4 4v40c0 13.230468 10.769531 24 24 24s24-10.769532 24-24v-136c0-13.230469-10.769531-24-24-24s-24 10.769531-24 24v40c0 2.207031-1.792969 4-4 4h-24c-2.207031 0-4-1.792969-4-4 0-2.207032 1.792969-4 4-4h20v-36c0-17.648438 14.351562-32 32-32s32 14.351562 32 32v136c0 17.648437-14.351562 32-32 32zm0 0" fill="#3e2807" fill-opacity="1" data-original-color="#263238ff" stroke="none" stroke-opacity="1"/><path d="m204 368c-17.648438 0-32-14.351562-32-32v-148c0-2.207031 1.792969-4 4-4s4 1.792969 4 4v148c0 13.230469 10.769531 24 24 24s24-10.769531 24-24v-148c0-2.207031 1.792969-4 4-4s4 1.792969 4 4v148c0 17.648438-14.351562 32-32 32zm0 0" fill="#3e2807" fill-opacity="1" data-original-color="#263238ff" stroke="none" stroke-opacity="1"/><path d="m352 512h-296c-24.265625 0-44-19.734375-44-44v-208c0-24.265625 19.734375-44 44-44h104c2.207031 0 4 1.792969 4 4s-1.792969 4-4 4h-104c-19.847656 0-36 16.152344-36 36v208c0 19.847656 16.152344 36 36 36h296c19.847656 0 36-16.152344 36-36v-208c0-19.847656-16.152344-36-36-36h-104c-2.207031 0-4-1.792969-4-4s1.792969-4 4-4h104c24.265625 0 44 19.734375 44 44v208c0 24.265625-19.734375 44-44 44zm0 0" fill="#3e2807" fill-opacity="1" data-original-color="#263238ff" stroke="none" stroke-opacity="1"/><path d="m244 140v12c0 11.046875-8.953125 20-20 20h-40c-11.046875 0-20-8.953125-20-20v-12l-16-12c-10.070312-7.550781-16-19.40625-16-32v-32c0-33.136719 26.863281-60 60-60h24c33.136719 0 60 26.863281 60 60v32c0 12.59375-5.929688 24.449219-16 32zm0 0" fill="#e3a547" fill-opacity="1" data-original-color="#ff5252ff" stroke="none" stroke-opacity="1"/><path d="m224 176h-40c-13.230469 0-24-10.769531-24-24v-10l-14.398438-10.800781c-11.027343-8.261719-17.601562-21.421875-17.601562-35.199219v-32c0-35.289062 28.710938-64 64-64h24c35.289062 0 64 28.710938 64 64v32c0 13.777344-6.574219 26.9375-17.601562 35.199219l-14.398438 10.800781v10c0 13.230469-10.769531 24-24 24zm-32-168c-30.878906 0-56 25.121094-56 56v32c0 11.273438 5.382812 22.03125 14.398438 28.800781l16 12c1.007812.75 1.601562 1.941407 1.601562 3.199219v12c0 8.824219 7.175781 16 16 16h40c8.824219 0 16-7.175781 16-16v-12c0-1.257812.59375-2.449219 1.601562-3.199219l16-12c9.015626-6.769531 14.398438-17.527343 14.398438-28.800781v-32c0-30.878906-25.121094-56-56-56zm0 0" fill="#3e2807" fill-opacity="1" data-original-color="#263238ff" stroke="none" stroke-opacity="1"/><path d="m216 28c19.847656 0 36 16.152344 36 36" fill="#e3a547" fill-opacity="1" data-original-color="#ff5252ff" stroke="none" stroke-opacity="1"/><g fill="#263238"><path d="m252 68c-2.207031 0-4-1.792969-4-4 0-17.648438-14.351562-32-32-32-2.207031 0-4-1.792969-4-4s1.792969-4 4-4c22.054688 0 40 17.945312 40 40 0 2.207031-1.792969 4-4 4zm0 0" fill="#3e2807" fill-opacity="1" data-original-color="#263238ff" stroke="none" stroke-opacity="1"/><path d="m12 180h-8c-2.207031 0-4-1.792969-4-4s1.792969-4 4-4h8c2.207031 0 4 1.792969 4 4s-1.792969 4-4 4zm0 0" fill="#3e2807" fill-opacity="1" data-original-color="#263238ff" stroke="none" stroke-opacity="1"/><path d="m124 180h-96c-2.207031 0-4-1.792969-4-4s1.792969-4 4-4h96c2.207031 0 4 1.792969 4 4s-1.792969 4-4 4zm0 0" fill="#3e2807" fill-opacity="1" data-original-color="#263238ff" stroke="none" stroke-opacity="1"/><path d="m404 180h-8c-2.207031 0-4-1.792969-4-4s1.792969-4 4-4h8c2.207031 0 4 1.792969 4 4s-1.792969 4-4 4zm0 0" fill="#3e2807" fill-opacity="1" data-original-color="#263238ff" stroke="none" stroke-opacity="1"/><path d="m380 180h-96c-2.207031 0-4-1.792969-4-4s1.792969-4 4-4h96c2.207031 0 4 1.792969 4 4s-1.792969 4-4 4zm0 0" fill="#3e2807" fill-opacity="1" data-original-color="#263238ff" stroke="none" stroke-opacity="1"/><path d="m32 416h-16c-2.207031 0-4-1.792969-4-4v-96c0-2.207031 1.792969-4 4-4h16c6.617188 0 12 5.382812 12 12v80c0 6.617188-5.382812 12-12 12zm-12-8h12c2.207031 0 4-1.792969 4-4v-80c0-2.207031-1.792969-4-4-4h-12zm0 0" fill="#3e2807" fill-opacity="1" data-original-color="#263238ff" stroke="none" stroke-opacity="1"/><path d="m392 416h-16c-6.617188 0-12-5.382812-12-12v-80c0-6.617188 5.382812-12 12-12h16c2.207031 0 4 1.792969 4 4v96c0 2.207031-1.792969 4-4 4zm-16-96c-2.207031 0-4 1.792969-4 4v80c0 2.207031 1.792969 4 4 4h12v-88zm0 0" fill="#3e2807" fill-opacity="1" data-original-color="#263238ff" stroke="none" stroke-opacity="1"/></g></g></svg>