<svg width="20" height="21" viewBox="0 0 20 21" fill="none" xmlns="http://www.w3.org/2000/svg">
<mask id="mask0_412_219" style="mask-type:luminance" maskUnits="userSpaceOnUse" x="0" y="0" width="20" height="21">
<path d="M20 0.5H0V20.5H20V0.5Z" fill="white"/>
</mask>
<g mask="url(#mask0_412_219)">
<path d="M19.6 10.7273C19.6 10.0182 19.5364 9.33642 19.4182 8.68182H10V12.55H15.3818C15.15 13.8 14.4455 14.8591 13.3864 15.5682V18.0773H16.6182C18.5091 16.3364 19.6 13.7727 19.6 10.7273Z" fill="#4285F4"/>
<path d="M10 20.5C12.7 20.5 14.9636 19.6045 16.6181 18.0773L13.3863 15.5682C12.4909 16.1682 11.3454 16.5227 10 16.5227C7.3954 16.5227 5.1909 14.7636 4.4045 12.4H1.0636V14.9909C2.7091 18.2591 6.0909 20.5 10 20.5Z" fill="#34A853"/>
<path d="M4.4045 12.4C4.2045 11.8 4.0909 11.1591 4.0909 10.5C4.0909 9.84089 4.2045 9.19999 4.4045 8.59999V6.00909H1.0636C0.3864 7.35909 0 8.88639 0 10.5C0 12.1136 0.3864 13.6409 1.0636 14.9909L4.4045 12.4Z" fill="#FBBC04"/>
<path d="M10 4.4773C11.4681 4.4773 12.7863 4.9818 13.8227 5.9727L16.6909 3.1045C14.9591 1.4909 12.6954 0.5 10 0.5C6.0909 0.5 2.7091 2.7409 1.0636 6.0091L4.4045 8.6C5.1909 6.2364 7.3954 4.4773 10 4.4773Z" fill="#E94235"/>
</g>
</svg>
