<svg height="300" viewBox="-36 0 512 512" width="300" xmlns="http://www.w3.org/2000/svg" version="1.1" xmlns:xlink="http://www.w3.org/1999/xlink" xmlns:svgjs="http://svgjs.dev/svgjs"><g transform="matrix(1,0,0,1,0,0)"><path d="m340 156.320312c0 66.273438-53.726562 120-120 120s-120-53.726562-120-120c0-66.273437 53.726562-120 120-120s120 53.726563 120 120zm0 0" fill="#ffd740" fill-opacity="1" data-original-color="#ffd740ff" stroke="none" stroke-opacity="1"/><path d="m300 272h-160c-6.617188 0-12 5.382812-12 12v20c0 2.207031 1.792969 4 4 4h176c2.207031 0 4-1.792969 4-4v-20c0-6.617188-5.382812-12-12-12zm4 28h-168v-16c0-2.207031 1.800781-4 4-4h160c2.199219 0 4 1.792969 4 4zm0 0" fill="#3e2807" fill-opacity="1" data-original-color="#263238ff" stroke="none" stroke-opacity="1"/><path d="m328 304h-216c-11.046875 0-20 8.953125-20 20v48h256v-48c0-11.046875-8.953125-20-20-20zm0 0" fill="#e3a547" fill-opacity="1" data-original-color="#40c4ffff" stroke="none" stroke-opacity="1"/><g fill="#263238"><path d="m328 300h-216c-13.230469 0-24 10.769531-24 24v48c0 2.207031 1.792969 4 4 4h256c2.207031 0 4-1.792969 4-4v-48c0-13.230469-10.769531-24-24-24zm16 68h-248v-44c0-8.824219 7.175781-16 16-16h216c8.824219 0 16 7.175781 16 16zm0 0" fill="#3e2807" fill-opacity="1" data-original-color="#263238ff" stroke="none" stroke-opacity="1"/><path d="m284 384c-2.207031 0-4 1.792969-4 4v120c0 2.207031 1.792969 4 4 4s4-1.792969 4-4v-120c0-2.207031-1.792969-4-4-4zm0 0" fill="#3e2807" fill-opacity="1" data-original-color="#263238ff" stroke="none" stroke-opacity="1"/><path d="m156 384c-2.207031 0-4 1.792969-4 4v120c0 2.207031 1.792969 4 4 4s4-1.792969 4-4v-120c0-2.207031-1.792969-4-4-4zm0 0" fill="#3e2807" fill-opacity="1" data-original-color="#263238ff" stroke="none" stroke-opacity="1"/><path d="m266.632812 52.921875-12.984374-7.792969c-3.855469-2.320312-6.578126-6.175781-7.464844-10.585937l-3.128906-15.632813c-2.191407-10.957031-11.886719-18.910156-23.054688-18.910156s-20.863281 7.953125-23.054688 18.902344l-3.136718 15.640625c-.878906 4.410156-3.59375 8.265625-7.457032 10.585937l-12.992187 7.792969c-13.175781 7.910156-21.359375 22.367187-21.359375 37.726563v169.351562c0 2.207031 1.792969 4 4 4s4-1.792969 4-4v-169.351562c0-12.570313 6.695312-24.402344 17.480469-30.871094l12.992187-7.792969c5.800782-3.480469 9.863282-9.265625 11.183594-15.871094l3.136719-15.640625c1.4375-7.226562 7.832031-12.472656 15.207031-12.472656 7.367188 0 13.777344 5.246094 15.214844 12.480469l3.128906 15.640625c1.328125 6.605468 5.410156 12.390625 11.183594 15.871094l12.992187 7.792968c10.785157 6.472656 17.480469 18.292969 17.480469 30.871094v169.34375c0 2.207031 1.792969 4 4 4s4-1.792969 4-4v-169.351562c0-15.367188-8.183594-29.824219-21.367188-37.726563zm0 0" fill="#3e2807" fill-opacity="1" data-original-color="#263238ff" stroke="none" stroke-opacity="1"/><path d="m380 368h-320c-2.207031 0-4 1.792969-4 4s1.792969 4 4 4h320c2.207031 0 4-1.792969 4-4s-1.792969-4-4-4zm0 0" fill="#3e2807" fill-opacity="1" data-original-color="#263238ff" stroke="none" stroke-opacity="1"/><path d="m284 424h-128c-2.207031 0-4 1.792969-4 4s1.792969 4 4 4h128c2.207031 0 4-1.792969 4-4s-1.792969-4-4-4zm0 0" fill="#3e2807" fill-opacity="1" data-original-color="#263238ff" stroke="none" stroke-opacity="1"/><path d="m240 424h-40c-2.207031 0-4 1.792969-4 4v56c0 6.617188 5.382812 12 12 12h24c6.617188 0 12-5.382812 12-12v-56c0-2.207031-1.792969-4-4-4zm-4 60c0 2.207031-1.800781 4-4 4h-24c-2.199219 0-4-1.792969-4-4v-52h32zm0 0" fill="#3e2807" fill-opacity="1" data-original-color="#263238ff" stroke="none" stroke-opacity="1"/><path d="m254.777344 204.320312h-69.546875c-6.613281 0-12 5.382813-12 12v7.839844c0 6.617188 5.386719 12 12 12h69.546875c6.613281 0 12-5.382812 12-12v-7.839844c0-6.625-5.386719-12-12-12zm4 19.839844c0 2.207032-1.800782 4-4 4h-69.546875c-2.199219 0-4-1.792968-4-4v-7.839844c0-2.207031 1.800781-4 4-4h69.546875c2.199218 0 4 1.792969 4 4zm0 0" fill="#3e2807" fill-opacity="1" data-original-color="#263238ff" stroke="none" stroke-opacity="1"/><path d="m220 100c-13.230469 0-24 10.769531-24 24v84.320312c0 2.207032 1.792969 4 4 4s4-1.792968 4-4v-84.320312c0-8.824219 7.175781-16 16-16s16 7.175781 16 16v20.320312c0 2.207032 1.792969 4 4 4s4-1.792968 4-4v-20.320312c0-13.230469-10.769531-24-24-24zm0 0" fill="#3e2807" fill-opacity="1" data-original-color="#263238ff" stroke="none" stroke-opacity="1"/><path d="m240 228.160156c-2.207031 0-4 1.792969-4 4v27.839844c0 2.207031 1.792969 4 4 4s4-1.792969 4-4v-27.839844c0-2.207031-1.792969-4-4-4zm0 0" fill="#3e2807" fill-opacity="1" data-original-color="#263238ff" stroke="none" stroke-opacity="1"/><path d="m200 228.160156c-2.207031 0-4 1.792969-4 4v27.839844c0 2.207031 1.792969 4 4 4s4-1.792969 4-4v-27.839844c0-2.207031-1.792969-4-4-4zm0 0" fill="#3e2807" fill-opacity="1" data-original-color="#263238ff" stroke="none" stroke-opacity="1"/><path d="m256 156.320312h-32c-2.207031 0-4 1.792969-4 4 0 2.207032 1.792969 4 4 4h32c2.207031 0 4-1.792968 4-4 0-2.207031-1.792969-4-4-4zm0 0" fill="#3e2807" fill-opacity="1" data-original-color="#263238ff" stroke="none" stroke-opacity="1"/><path d="m240 172.320312c-2.207031 0-4 1.792969-4 4v32c0 2.207032 1.792969 4 4 4s4-1.792968 4-4v-32c0-2.214843-1.792969-4-4-4zm0 0" fill="#3e2807" fill-opacity="1" data-original-color="#263238ff" stroke="none" stroke-opacity="1"/><path d="m101.265625 64.199219-11.609375-3.863281c-4.6875-1.566407-8.425781-5.304688-9.984375-10l-3.871094-11.609376c-1.105469-3.269531-6.503906-3.253906-7.59375 0l-3.863281 11.609376c-1.558594 4.6875-5.296875 8.433593-9.992188 9.992187l-11.617187 3.871094c-1.628906.554687-2.734375 2.082031-2.734375 3.800781s1.105469 3.246094 2.734375 3.792969l11.609375 3.871093c4.695312 1.558594 8.433594 5.296876 9.992188 9.992188l3.863281 11.609375c.542969 1.628906 2.074219 2.734375 3.800781 2.734375 1.71875 0 3.246094-1.105469 3.800781-2.734375l3.871094-11.609375c1.558594-4.6875 5.296875-8.425781 9.984375-9.992188l11.609375-3.871093c1.628906-.546875 2.734375-2.074219 2.734375-3.792969s-1.105469-3.246094-2.734375-3.800781zm-14.136719 3.878906c-7.066406 2.355469-12.6875 7.984375-15.050781 15.050781l-.078125.230469-.070312-.230469c-2.363282-7.074218-7.984376-12.695312-15.058594-15.050781l-.222656-.078125.222656-.070312c7.074218-2.355469 12.695312-7.984376 15.058594-15.050782l.070312-.230468.078125.230468c2.363281 7.066406 7.976563 12.6875 15.050781 15.058594l.222656.0625zm0 0" fill="#3e2807" fill-opacity="1" data-original-color="#263238ff" stroke="none" stroke-opacity="1"/><path d="m413.265625 252.199219-11.609375-3.863281c-4.6875-1.566407-8.425781-5.304688-9.984375-10l-3.871094-11.609376c-1.097656-3.269531-6.496093-3.253906-7.59375 0l-3.863281 11.609376c-1.558594 4.6875-5.296875 8.433593-9.992188 9.992187l-11.609374 3.863281c-1.636719.5625-2.742188 2.089844-2.742188 3.808594s1.105469 3.246094 2.734375 3.792969l11.609375 3.871093c4.695312 1.558594 8.433594 5.296876 9.992188 9.992188l3.863281 11.609375c.554687 1.628906 2.074219 2.734375 3.800781 2.734375 1.71875 0 3.246094-1.105469 3.800781-2.734375l3.871094-11.609375c1.558594-4.6875 5.296875-8.425781 9.984375-9.992188l11.609375-3.871093c1.628906-.546875 2.734375-2.074219 2.734375-3.792969s-1.105469-3.246094-2.734375-3.800781zm-14.136719 3.878906c-7.066406 2.355469-12.6875 7.984375-15.050781 15.050781l-.078125.230469-.070312-.230469c-2.363282-7.074218-7.984376-12.695312-15.058594-15.050781l-.222656-.078125.222656-.070312c7.074218-2.355469 12.695312-7.984376 15.058594-15.050782l.070312-.230468.078125.230468c2.363281 7.066406 7.976563 12.6875 15.050781 15.058594l.222656.0625zm0 0" fill="#3e2807" fill-opacity="1" data-original-color="#263238ff" stroke="none" stroke-opacity="1"/><path d="m12 448h-8c-2.207031 0-4 1.792969-4 4s1.792969 4 4 4h8c2.207031 0 4-1.792969 4-4s-1.792969-4-4-4zm0 0" fill="#3e2807" fill-opacity="1" data-original-color="#263238ff" stroke="none" stroke-opacity="1"/><path d="m84 448h-56c-2.207031 0-4 1.792969-4 4s1.792969 4 4 4h56c2.207031 0 4-1.792969 4-4s-1.792969-4-4-4zm0 0" fill="#3e2807" fill-opacity="1" data-original-color="#263238ff" stroke="none" stroke-opacity="1"/><path d="m436 448h-8c-2.207031 0-4 1.792969-4 4s1.792969 4 4 4h8c2.207031 0 4-1.792969 4-4s-1.792969-4-4-4zm0 0" fill="#3e2807" fill-opacity="1" data-original-color="#263238ff" stroke="none" stroke-opacity="1"/><path d="m412 448h-56c-2.207031 0-4 1.792969-4 4s1.792969 4 4 4h56c2.207031 0 4-1.792969 4-4s-1.792969-4-4-4zm0 0" fill="#3e2807" fill-opacity="1" data-original-color="#263238ff" stroke="none" stroke-opacity="1"/><path d="m220 456c-2.207031 0-4 1.792969-4 4v16c0 2.207031 1.792969 4 4 4s4-1.792969 4-4v-16c0-2.207031-1.792969-4-4-4zm0 0" fill="#3e2807" fill-opacity="1" data-original-color="#263238ff" stroke="none" stroke-opacity="1"/></g></g></svg>