<svg height="300" viewBox="-19 0 486 486" width="300" xmlns="http://www.w3.org/2000/svg" version="1.1" xmlns:xlink="http://www.w3.org/1999/xlink" xmlns:svgjs="http://svgjs.dev/svgjs"><g transform="matrix(1,0,0,1,0,0)"><path d="m344.199219 223.734375c-6.40625 0-12.4375-2.496094-16.96875-7.03125l-57.941407-57.941406c-4.527343-4.53125-7.03125-10.5625-7.03125-16.96875 0-6.410157 2.496094-12.441407 7.03125-16.96875 9.0625-9.070313 24.871094-9.070313 33.933594 0l57.945313 57.945312c4.527343 4.527344 7.03125 10.558594 7.03125 16.964844 0 6.410156-2.496094 12.441406-7.03125 16.96875-4.519531 4.535156-10.550781 7.03125-16.96875 7.03125zm-57.941407-97.933594c-4.273437 0-8.289062 1.664063-11.3125 4.6875-3.023437 3.023438-4.6875 7.039063-4.6875 11.3125 0 4.269531 1.664063 8.289063 4.6875 11.3125l57.941407 57.941407c6.058593 6.050781 16.601562 6.035156 22.625 0 3.023437-3.023438 4.6875-7.039063 4.6875-11.320313 0-4.277344-1.664063-8.285156-4.6875-11.308594l-57.945313-57.945312c-3.023437-3.015625-7.039062-4.679688-11.308594-4.679688zm0 0" fill="#3e2807" fill-opacity="1" data-original-color="#263238ff" stroke="none" stroke-opacity="1"/><path d="m140 82h-88c-4.414062 0-8-3.585938-8-8v-32c0-4.414062 3.585938-8 8-8h88c4.414062 0 8 3.585938 8 8v32c0 4.414062-3.585938 8-8 8zm0 0" fill="#ffd740" fill-opacity="1" data-original-color="#40c4ffff" stroke="none" stroke-opacity="1"/><path d="m140 86h-88c-6.617188 0-12-5.382812-12-12v-32c0-6.617188 5.382812-12 12-12h88c6.617188 0 12 5.382812 12 12v32c0 6.617188-5.382812 12-12 12zm-88-48c-2.199219 0-4 1.792969-4 4v32c0 2.207031 1.800781 4 4 4h88c2.199219 0 4-1.792969 4-4v-32c0-2.207031-1.800781-4-4-4zm0 0" fill="#3e2807" fill-opacity="1" data-original-color="#263238ff" stroke="none" stroke-opacity="1"/><path d="m232 434h-120c-11.046875 0-20-8.953125-20-20v-164c0-22.089844 17.910156-40 40-40h80c22.089844 0 40 17.910156 40 40v164c0 11.046875-8.953125 20-20 20zm0 0" fill="#e3a547" fill-opacity="1" data-original-color="#ffd740ff" stroke="none" stroke-opacity="1"/><path d="m232 438h-120c-13.230469 0-24-10.769531-24-24v-164c0-24.265625 19.742188-44 44-44h80c24.257812 0 44 19.734375 44 44v164c0 13.230469-10.769531 24-24 24zm-100-224c-19.847656 0-36 16.152344-36 36v164c0 8.824219 7.175781 16 16 16h120c8.824219 0 16-7.175781 16-16v-164c0-19.847656-16.152344-36-36-36zm0 0" fill="#3e2807" fill-opacity="1" data-original-color="#263238ff" stroke="none" stroke-opacity="1"/><path d="m364 486h-280c-24.257812 0-44-19.734375-44-44v-336c0-6.617188 5.382812-12 12-12h88c6.617188 0 12 5.382812 12 12v8c0 2.207031-1.792969 4-4 4s-4-1.792969-4-4v-8c0-2.207031-1.800781-4-4-4h-88c-2.199219 0-4 1.792969-4 4v336c0 19.847656 16.152344 36 36 36h280c19.847656 0 36-16.152344 36-36v-239.433594c0-9.613281-3.742188-18.65625-10.542969-25.453125l-80.5625-80.570312c-6.804687-6.800781-15.847656-10.542969-25.460937-10.542969h-62.066406c-4.757813 0-9.238282 2.097656-12.296876 5.761719l-34 40.804687c-.757812.914063-1.878906 1.441406-3.070312 1.441406h-80c-2.207031 0-4-1.792968-4-4 0-2.207031 1.792969-4 4-4h78.128906l32.808594-39.367187c4.574219-5.488281 11.292969-8.632813 18.4375-8.632813h62.066406c11.75 0 22.796875 4.578126 31.117188 12.886719l80.5625 80.570313c8.304687 8.296875 12.878906 19.34375 12.878906 31.101562v239.433594c0 24.265625-19.742188 44-44 44zm0 0" fill="#3e2807" fill-opacity="1" data-original-color="#263238ff" stroke="none" stroke-opacity="1"/><path d="m404 438h-56c-6.617188 0-12-5.382812-12-12v-16c0-6.617188 5.382812-12 12-12h56c2.207031 0 4 1.792969 4 4v32c0 2.207031-1.792969 4-4 4zm-56-32c-2.199219 0-4 1.792969-4 4v16c0 2.207031 1.800781 4 4 4h52v-24zm0 0" fill="#3e2807" fill-opacity="1" data-original-color="#263238ff" stroke="none" stroke-opacity="1"/><path d="m404 366h-56c-6.617188 0-12-5.382812-12-12v-16c0-6.617188 5.382812-12 12-12h56c2.207031 0 4 1.792969 4 4v32c0 2.207031-1.792969 4-4 4zm-56-32c-2.199219 0-4 1.792969-4 4v16c0 2.207031 1.800781 4 4 4h52v-24zm0 0" fill="#3e2807" fill-opacity="1" data-original-color="#263238ff" stroke="none" stroke-opacity="1"/><path d="m404 294h-56c-6.617188 0-12-5.382812-12-12v-16c0-6.617188 5.382812-12 12-12h56c2.207031 0 4 1.792969 4 4v32c0 2.207031-1.792969 4-4 4zm-56-32c-2.199219 0-4 1.792969-4 4v16c0 2.207031 1.800781 4 4 4h52v-24zm0 0" fill="#3e2807" fill-opacity="1" data-original-color="#263238ff" stroke="none" stroke-opacity="1"/><path d="m199.847656 370.113281c13.257813-12.855469 15.992188-33.113281 6.617188-49.023437l-34.464844-58.480469-34.464844 58.480469c-9.375 15.910156-6.640625 36.167968 6.617188 49.023437 15.519531 15.039063 40.175781 15.039063 55.695312 0zm0 0" fill="#ffffff" fill-opacity="1" data-original-color="#ffffffff" stroke="none" stroke-opacity="1"/><g fill="#263238"><path d="m172 385.472656c-11.023438 0-22.039062-4.160156-30.625-12.488281-14.640625-14.183594-17.632812-36.359375-7.277344-53.929687l34.460938-58.480469c1.441406-2.4375 5.457031-2.4375 6.890625 0l34.460937 58.480469c10.355469 17.5625 7.363282 39.738281-7.277344 53.929687-8.59375 8.328125-19.609374 12.488281-30.632812 12.488281zm0-114.984375-31.015625 52.632813c-8.472656 14.367187-6.015625 32.511718 5.953125 44.117187 14.0625 13.617188 36.0625 13.625 50.125 0 11.96875-11.605469 14.425781-29.75 5.953125-44.117187zm27.839844 99.625h.082031zm0 0" fill="#3e2807" fill-opacity="1" data-original-color="#263238ff" stroke="none" stroke-opacity="1"/><path d="m439.230469 24h-32c-2.207031 0-4-1.792969-4-4s1.792969-4 4-4h32c2.210937 0 4 1.792969 4 4s-1.78125 4-4 4zm0 0" fill="#3e2807" fill-opacity="1" data-original-color="#263238ff" stroke="none" stroke-opacity="1"/><path d="m423.230469 40c-2.207031 0-4-1.792969-4-4v-32c0-2.207031 1.792969-4 4-4 2.210937 0 4 1.792969 4 4v32c0 2.207031-1.78125 4-4 4zm0 0" fill="#3e2807" fill-opacity="1" data-original-color="#263238ff" stroke="none" stroke-opacity="1"/><path d="m383.230469 80h-32c-2.207031 0-4-1.792969-4-4s1.792969-4 4-4h32c2.210937 0 4 1.792969 4 4s-1.78125 4-4 4zm0 0" fill="#3e2807" fill-opacity="1" data-original-color="#263238ff" stroke="none" stroke-opacity="1"/><path d="m367.230469 96c-2.207031 0-4-1.792969-4-4v-32c0-2.207031 1.792969-4 4-4 2.210937 0 4 1.792969 4 4v32c0 2.207031-1.78125 4-4 4zm0 0" fill="#3e2807" fill-opacity="1" data-original-color="#263238ff" stroke="none" stroke-opacity="1"/><path d="m444 348.183594c-2.207031 0-4-1.792969-4-4v-7.871094c0-2.207031 1.792969-4 4-4s4 1.792969 4 4v7.871094c0 2.214844-1.792969 4-4 4zm0 0" fill="#3e2807" fill-opacity="1" data-original-color="#263238ff" stroke="none" stroke-opacity="1"/><path d="m444 446c-2.207031 0-4-1.792969-4-4v-82.0625c0-2.210938 1.792969-4 4-4s4 1.789062 4 4v82.0625c0 2.207031-1.792969 4-4 4zm0 0" fill="#3e2807" fill-opacity="1" data-original-color="#263238ff" stroke="none" stroke-opacity="1"/><path d="m4 232.0625c-2.207031 0-4-1.789062-4-4v-8c0-2.207031 1.792969-4 4-4s4 1.792969 4 4v8c0 2.210938-1.792969 4-4 4zm0 0" fill="#3e2807" fill-opacity="1" data-original-color="#263238ff" stroke="none" stroke-opacity="1"/><path d="m4 208.0625c-2.207031 0-4-1.789062-4-4v-80c0-2.207031 1.792969-4 4-4s4 1.792969 4 4v80c0 2.210938-1.792969 4-4 4zm0 0" fill="#3e2807" fill-opacity="1" data-original-color="#263238ff" stroke="none" stroke-opacity="1"/><path d="m76 86c-2.207031 0-4-1.792969-4-4v-48c0-2.207031 1.792969-4 4-4s4 1.792969 4 4v48c0 2.207031-1.792969 4-4 4zm0 0" fill="#3e2807" fill-opacity="1" data-original-color="#263238ff" stroke="none" stroke-opacity="1"/><path d="m116 86c-2.207031 0-4-1.792969-4-4v-48c0-2.207031 1.792969-4 4-4s4 1.792969 4 4v48c0 2.207031-1.792969 4-4 4zm0 0" fill="#3e2807" fill-opacity="1" data-original-color="#263238ff" stroke="none" stroke-opacity="1"/></g></g></svg>