<svg height="300" viewBox="-22 0 455 456" width="300" xmlns="http://www.w3.org/2000/svg" version="1.1" xmlns:xlink="http://www.w3.org/1999/xlink" xmlns:svgjs="http://svgjs.dev/svgjs"><g transform="matrix(1,0,0,1,0,0)"><g fill="#263238"><path d="m240.5 456h-136c-35.289062 0-64-28.710938-64-64v-288c0-57.34375 46.65625-104 104-104h56c57.34375 0 104 46.65625 104 104v288c0 35.289062-28.710938 64-64 64zm-96-448c-52.9375 0-96 43.0625-96 96v288c0 30.871094 25.121094 56 56 56h136c30.878906 0 56-25.128906 56-56v-288c0-52.9375-43.0625-96-96-96zm0 0" fill="#3e2807" fill-opacity="1" data-original-color="#263238ff" stroke="none" stroke-opacity="1"/><path d="m44.5 156c-.664062 0-1.335938-.167969-1.9375-.496094-1.269531-.703125-2.0625-2.046875-2.0625-3.503906v-48c0-57.34375 46.65625-104 104-104h56c57.34375 0 104 46.65625 104 104v48c0 1.457031-.792969 2.800781-2.0625 3.503906-1.28125.710938-2.832031.671875-4.066406-.121094l-.832032-.519531c-75.949218-47.4375-174.117187-47.449219-250.078124.007813l-.832032.519531c-.648437.410156-1.394531.609375-2.128906.609375zm100-148c-52.9375 0-96 43.0625-96 96v40.871094c76-44.78125 172.007812-44.800782 248 0v-40.871094c0-52.9375-43.0625-96-96-96zm0 0" fill="#3e2807" fill-opacity="1" data-original-color="#263238ff" stroke="none" stroke-opacity="1"/><path d="m276.5 116.359375c-2.207031 0-4-1.792969-4-4v-8.359375c0-39.703125-32.304688-72-72-72-2.207031 0-4-1.792969-4-4s1.792969-4 4-4c44.113281 0 80 35.886719 80 80v8.359375c0 2.207031-1.792969 4-4 4zm0 0" fill="#3e2807" fill-opacity="1" data-original-color="#263238ff" stroke="none" stroke-opacity="1"/><path d="m240.5 456h-136c-16.664062 0-32.464844-6.40625-44.480469-18.039062-1.566406-1.511719-1.632812-4-.152343-5.59375l36.960937-39.792969c1.449219-1.574219 3.855469-1.71875 5.496094-.351563 2.960937 2.472656 6.480469 3.777344 10.175781 3.777344h120c3.695312 0 7.214844-1.304688 10.175781-3.777344 1.632813-1.359375 4.046875-1.207031 5.496094.351563l36.960937 39.792969c1.488282 1.59375 1.414063 4.082031-.152343 5.59375-12.015625 11.632812-27.816407 18.039062-44.480469 18.039062zm-172.007812-21.167969c10.097656 8.511719 22.734374 13.167969 36.007812 13.167969h136c13.273438 0 25.921875-4.648438 36.007812-13.167969l-31.816406-34.246093c-3.703125 2.246093-7.855468 3.414062-12.191406 3.414062h-120c-4.335938 0-8.488281-1.167969-12.191406-3.414062zm0 0" fill="#3e2807" fill-opacity="1" data-original-color="#263238ff" stroke="none" stroke-opacity="1"/><path d="m250.003906 206.496094c-.191406 0-.375-.015625-.566406-.039063-1.25-.175781-2.335938-.9375-2.945312-2.050781-2.832032-5.183594-8.191407-8.40625-13.992188-8.40625h-120c-5.800781 0-11.160156 3.222656-13.992188 8.414062-.601562 1.113282-1.6875 1.867188-2.945312 2.050782-1.238281.160156-2.503906-.234375-3.398438-1.136719l-50.496093-50.496094c-.863281-.855469-1.289063-2.070312-1.144531-3.28125.136718-1.207031.816406-2.285156 1.847656-2.933593l.832031-.519532c78.535156-49.066406 180.03125-49.066406 258.578125 0l.839844.527344c1.03125.648438 1.710937 1.726562 1.847656 2.933594.136719 1.210937-.289062 2.417968-1.152344 3.273437l-50.496094 50.496094c-.746093.761719-1.769531 1.167969-2.816406 1.167969zm-137.503906-18.496094h120c6.992188 0 13.535156 3.089844 18.039062 8.296875l43.554688-43.542969c-74.304688-44.625-168.867188-44.632812-243.1875 0l43.546875 43.542969c4.511719-5.207031 11.054687-8.296875 18.046875-8.296875zm0 0" fill="#3e2807" fill-opacity="1" data-original-color="#263238ff" stroke="none" stroke-opacity="1"/><path d="m92.5 304h-48c-2.207031 0-4-1.792969-4-4s1.792969-4 4-4h48c2.207031 0 4 1.792969 4 4s-1.792969 4-4 4zm0 0" fill="#3e2807" fill-opacity="1" data-original-color="#263238ff" stroke="none" stroke-opacity="1"/><path d="m300.5 304h-48c-2.207031 0-4-1.792969-4-4s1.792969-4 4-4h48c2.207031 0 4 1.792969 4 4s-1.792969 4-4 4zm0 0" fill="#3e2807" fill-opacity="1" data-original-color="#263238ff" stroke="none" stroke-opacity="1"/><path d="m232.5 404h-120c-13.230469 0-24-10.769531-24-24v-168c0-13.230469 10.769531-24 24-24h120c13.230469 0 24 10.769531 24 24v168c0 13.230469-10.769531 24-24 24zm-120-208c-8.824219 0-16 7.175781-16 16v168c0 8.824219 7.175781 16 16 16h120c8.824219 0 16-7.175781 16-16v-168c0-8.824219-7.175781-16-16-16zm0 0" fill="#3e2807" fill-opacity="1" data-original-color="#263238ff" stroke="none" stroke-opacity="1"/><path d="m212.5 260h-80c-6.617188 0-12-5.382812-12-12v-24c0-6.617188 5.382812-12 12-12h80c6.617188 0 12 5.382812 12 12v24c0 6.617188-5.382812 12-12 12zm-80-40c-2.207031 0-4 1.800781-4 4v24c0 2.199219 1.792969 4 4 4h80c2.207031 0 4-1.800781 4-4v-24c0-2.199219-1.792969-4-4-4zm0 0" fill="#3e2807" fill-opacity="1" data-original-color="#263238ff" stroke="none" stroke-opacity="1"/></g><path d="m316.5 209.105469 70.886719 82.703125c2.371093 2.765625 5.738281 4.183594 9.113281 4.183594 2.769531 0 5.542969-.953126 7.808594-2.886719 5.03125-4.3125 5.617187-11.890625 1.304687-16.921875l-89.113281-103.960938" fill="#e3a547" fill-opacity="1" data-original-color="#ff5252ff" stroke="none" stroke-opacity="1"/><path d="m396.5 300c-4.679688 0-9.113281-2.039062-12.152344-5.585938l-70.886718-82.703124c-1.441407-1.671876-1.25-4.199219.429687-5.640626 1.671875-1.414062 4.203125-1.230468 5.640625.441407l70.890625 82.703125c2.757813 3.210937 8.03125 3.625 11.277344.855468 1.625-1.390624 2.609375-3.328124 2.769531-5.460937.160156-2.136719-.511719-4.195313-1.90625-5.824219l-89.09375-103.953125c-1.441406-1.671875-1.25-4.199219.429688-5.640625 1.671874-1.421875 4.203124-1.230468 5.640624.441406l89.113282 103.960938c2.785156 3.238281 4.136718 7.375 3.808594 11.636719-.328126 4.257812-2.296876 8.144531-5.546876 10.921875-2.902343 2.480468-6.597656 3.847656-10.414062 3.847656zm0 0" fill="#3e2807" fill-opacity="1" data-original-color="#263238ff" stroke="none" stroke-opacity="1"/><path d="m4.5 240c-2.207031 0-4-1.792969-4-4v-16c0-2.207031 1.792969-4 4-4s4 1.792969 4 4v16c0 2.207031-1.792969 4-4 4zm0 0" fill="#3e2807" fill-opacity="1" data-original-color="#263238ff" stroke="none" stroke-opacity="1"/><path d="m4.5 416c-2.207031 0-4-1.792969-4-4v-160c0-2.207031 1.792969-4 4-4s4 1.792969 4 4v160c0 2.207031-1.792969 4-4 4zm0 0" fill="#3e2807" fill-opacity="1" data-original-color="#263238ff" stroke="none" stroke-opacity="1"/></g></svg>