<svg version="1.1" id="Capa_1" xmlns="http://www.w3.org/2000/svg" xmlns:xlink="http://www.w3.org/1999/xlink" x="0px" y="0px" viewBox="0 0 512 512" style="enable-background:new 0 0 512 512;" xml:space="preserve" width="300" height="300" xmlns:svgjs="http://svgjs.dev/svgjs"><g transform="matrix(1,0,0,1,0,0)"><g>
	<path style="" d="M128,256V42.667H25.6V256H128z" fill="#e3a547" fill-opacity="1" data-original-color="#78b9ebff" stroke="none" stroke-opacity="1"/>
	<rect x="384" y="256" style="" width="102.4" height="213.333" fill="#e3a547" fill-opacity="1" data-original-color="#78b9ebff" stroke="none" stroke-opacity="1"/>
	<path style="" d="M486.4,145.067c0-75.409-61.124-136.533-136.533-136.533h-8.533&#10;&#9;&#9;c-75.409,0-136.533,61.124-136.533,136.533V358.4c0,18.85-15.283,34.133-34.133,34.133h-8.533&#10;&#9;&#9;c-18.85,0-34.133-15.283-34.133-34.133V256H76.8l0,0H25.6v110.933c0,75.409,61.124,136.533,136.533,136.533h8.533&#10;&#9;&#9;c75.409,0,136.533-61.124,136.533-136.533V153.6c0-18.85,15.283-34.133,34.133-34.133h8.533c18.85,0,34.133,15.283,34.133,34.133&#10;&#9;&#9;V256h102.4V145.067z M435.2,213.333v-68.267c-0.051-47.104-38.229-85.282-85.333-85.333h-8.533&#10;&#9;&#9;c-47.104,0.051-85.282,38.229-85.333,85.333v221.867c-0.051,47.104-38.229,85.282-85.333,85.333h-8.533&#10;&#9;&#9;c-47.104-0.051-85.282-38.229-85.333-85.333l0,0c0.051,47.104,38.229,85.282,85.333,85.333h8.533&#10;&#9;&#9;c47.104-0.051,85.282-38.229,85.333-85.333V145.067c0.051-47.104,38.229-85.282,85.333-85.333h8.533&#10;&#9;&#9;c47.104,0.051,85.282,38.229,85.333,85.333V213.333z" fill="#e3a547" fill-opacity="1" data-original-color="#78b9ebff" stroke="none" stroke-opacity="1"/>
</g><g>
	<polygon style="" points="384,469.333 366.933,469.333 366.933,503.467 503.467,503.467 503.467,469.333 &#10;&#9;&#9;486.4,469.333 &#9;" fill="#ffd493" fill-opacity="1" data-original-color="#0a87ebff" stroke="none" stroke-opacity="1"/>
	<polygon style="" points="145.067,42.667 145.067,8.533 8.533,8.533 8.533,42.667 25.6,42.667 128,42.667 &#9;" fill="#ffd493" fill-opacity="1" data-original-color="#0a87ebff" stroke="none" stroke-opacity="1"/>
</g><g>
	<path style="" d="M426.667,145.067v68.267h17.067v-68.267c-0.06-51.814-42.052-93.807-93.867-93.867h-8.533&#10;&#9;&#9;c-51.814,0.06-93.807,42.052-93.867,93.867v221.867c-0.051,42.394-34.406,76.749-76.8,76.8h-8.533&#10;&#9;&#9;c-42.394-0.051-76.749-34.406-76.8-76.8v-68.267H68.267v68.267c0.06,51.814,42.052,93.807,93.867,93.867h8.533&#10;&#9;&#9;c51.814-0.06,93.807-42.052,93.867-93.867V145.067c0.051-42.394,34.406-76.749,76.8-76.8h8.533&#10;&#9;&#9;C392.26,68.318,426.615,102.673,426.667,145.067z" fill="#3e2807" fill-opacity="1" data-original-color="#231f20ff" stroke="none" stroke-opacity="1"/>
	<path style="" d="M494.933,460.8V145.067C494.848,64.981,429.952,0.085,349.867,0h-8.533&#10;&#9;&#9;c-80.085,0.085-144.981,64.981-145.067,145.067V358.4c0,14.14-11.46,25.6-25.6,25.6h-8.533c-14.14,0-25.6-11.46-25.6-25.6V51.2&#10;&#9;&#9;H153.6V0H0v51.2h17.067v315.733C17.152,447.019,82.048,511.915,162.133,512h8.533c80.085-0.085,144.981-64.981,145.067-145.067&#10;&#9;&#9;V153.6c0-14.14,11.46-25.6,25.6-25.6h8.533c14.14,0,25.6,11.46,25.6,25.6v307.2H358.4V512H512v-51.2H494.933z M17.067,17.067&#10;&#9;&#9;h119.467v17.067H17.067V17.067z M119.467,51.2v196.267H34.133V51.2H119.467z M349.867,110.933h-8.533&#10;&#9;&#9;c-23.552,0.026-42.641,19.115-42.667,42.667v213.333c-0.077,70.656-57.344,127.923-128,128h-8.533&#10;&#9;&#9;c-70.656-0.077-127.923-57.344-128-128v-102.4h34.133V281.6h17.067v-17.067h34.133V358.4c0.026,23.552,19.115,42.641,42.667,42.667&#10;&#9;&#9;h8.533c23.552-0.026,42.641-19.115,42.667-42.667V145.067c0.077-70.656,57.344-127.923,128-128h8.533&#10;&#9;&#9;c70.656,0.077,127.923,57.344,128,128v102.4h-34.133V230.4h-17.067v17.067h-34.133V153.6&#10;&#9;&#9;C392.508,130.048,373.419,110.959,349.867,110.933z M392.533,264.533h85.333V460.8h-85.333V264.533z M494.933,494.933H375.467&#10;&#9;&#9;v-17.067h119.467V494.933z" fill="#3e2807" fill-opacity="1" data-original-color="#231f20ff" stroke="none" stroke-opacity="1"/>
</g><g>
</g><g>
</g><g>
</g><g>
</g><g>
</g><g>
</g><g>
</g><g>
</g><g>
</g><g>
</g><g>
</g><g>
</g><g>
</g><g>
</g><g>
</g></g></svg>