<svg height="300" viewBox="-7 0 487 488" width="300" xmlns="http://www.w3.org/2000/svg" version="1.1" xmlns:xlink="http://www.w3.org/1999/xlink" xmlns:svgjs="http://svgjs.dev/svgjs"><g transform="matrix(1,0,0,1,0,0)"><path d="m460.5 108h-448c-4.414062 0-8 3.585938-8 8v32c0 4.414062 3.585938 8 8 8h448c4.414062 0 8-3.585938 8-8v-32c0-4.414062-3.585938-8-8-8zm0 0" fill="#e3a547" fill-opacity="1" data-original-color="#40c4ffff" stroke="none" stroke-opacity="1"/><path d="m460.5 160h-448c-6.617188 0-12-5.382812-12-12v-32c0-6.617188 5.382812-12 12-12h448c6.617188 0 12 5.382812 12 12v32c0 6.625-5.382812 12-12 12zm-448-48c-2.199219 0-4 1.792969-4 4v32c0 2.207031 1.800781 4 4 4h448c2.199219 0 4-1.792969 4-4v-32c0-2.207031-1.800781-4-4-4zm0 0" fill="#3e2807" fill-opacity="1" data-original-color="#263238ff" stroke="none" stroke-opacity="1"/><path d="m256.5 96c-1.328125 0-2.632812-.664062-3.390625-1.878906l-17.648437-28.242188c-.738282-1.175781-2.007813-1.878906-3.402344-1.878906h-151.117188c-1.394531 0-2.664062.703125-3.402344 1.878906l-17.648437 28.242188c-1.167969 1.878906-3.648437 2.4375-5.503906 1.269531-1.871094-1.167969-2.445313-3.636719-1.269531-5.511719l17.648437-28.238281c2.199219-3.527344 6.007813-5.640625 10.175781-5.640625h151.125c4.167969 0 7.976563 2.105469 10.175782 5.640625l17.648437 28.238281c1.167969 1.875.601563 4.34375-1.269531 5.511719-.65625.417969-1.394532.609375-2.121094.609375zm0 0" fill="#3e2807" fill-opacity="1" data-original-color="#263238ff" stroke="none" stroke-opacity="1"/><path d="m148.5 20h-64c-4.414062 0-8 3.585938-8 8v32h80v-32c0-4.414062-3.585938-8-8-8zm0 0" fill="#ffd740" fill-opacity="1" data-original-color="#ffd740ff" stroke="none" stroke-opacity="1"/><g fill="#263238"><path d="m156.5 64h-80c-2.207031 0-4-1.792969-4-4v-32c0-6.617188 5.382812-12 12-12h64c6.617188 0 12 5.382812 12 12v32c0 2.214844-1.792969 4-4 4zm-76-8h72v-28c0-2.207031-1.800781-4-4-4h-64c-2.199219 0-4 1.792969-4 4zm0 0" fill="#3e2807" fill-opacity="1" data-original-color="#263238ff" stroke="none" stroke-opacity="1"/><path d="m16.5 392c-2.207031 0-4-1.785156-4-4v-216c0-2.207031 1.792969-4 4-4s4 1.792969 4 4v216c0 2.214844-1.792969 4-4 4zm0 0" fill="#3e2807" fill-opacity="1" data-original-color="#263238ff" stroke="none" stroke-opacity="1"/><path d="m456.5 392c-2.207031 0-4-1.792969-4-4v-216c0-2.207031 1.792969-4 4-4s4 1.792969 4 4v216c0 2.214844-1.792969 4-4 4zm0 0" fill="#3e2807" fill-opacity="1" data-original-color="#263238ff" stroke="none" stroke-opacity="1"/><path d="m56.5 392c-2.207031 0-4-1.785156-4-4v-216c0-2.207031 1.792969-4 4-4s4 1.792969 4 4v216c0 2.214844-1.792969 4-4 4zm0 0" fill="#3e2807" fill-opacity="1" data-original-color="#263238ff" stroke="none" stroke-opacity="1"/><path d="m96.5 392c-2.207031 0-4-1.792969-4-4v-216c0-2.207031 1.792969-4 4-4s4 1.792969 4 4v216c0 2.214844-1.792969 4-4 4zm0 0" fill="#3e2807" fill-opacity="1" data-original-color="#263238ff" stroke="none" stroke-opacity="1"/><path d="m136.5 392c-2.207031 0-4-1.792969-4-4v-216c0-2.207031 1.792969-4 4-4s4 1.792969 4 4v216c0 2.214844-1.792969 4-4 4zm0 0" fill="#3e2807" fill-opacity="1" data-original-color="#263238ff" stroke="none" stroke-opacity="1"/><path d="m176.5 392c-2.207031 0-4-1.792969-4-4v-216c0-2.207031 1.792969-4 4-4s4 1.792969 4 4v216c0 2.214844-1.792969 4-4 4zm0 0" fill="#3e2807" fill-opacity="1" data-original-color="#263238ff" stroke="none" stroke-opacity="1"/><path d="m216.5 392c-2.207031 0-4-1.792969-4-4v-216c0-2.207031 1.792969-4 4-4s4 1.792969 4 4v216c0 2.214844-1.792969 4-4 4zm0 0" fill="#3e2807" fill-opacity="1" data-original-color="#263238ff" stroke="none" stroke-opacity="1"/><path d="m256.5 392c-2.207031 0-4-1.792969-4-4v-216c0-2.207031 1.792969-4 4-4s4 1.792969 4 4v216c0 2.214844-1.792969 4-4 4zm0 0" fill="#3e2807" fill-opacity="1" data-original-color="#263238ff" stroke="none" stroke-opacity="1"/><path d="m296.5 392c-2.207031 0-4-1.792969-4-4v-216c0-2.207031 1.792969-4 4-4s4 1.792969 4 4v216c0 2.214844-1.792969 4-4 4zm0 0" fill="#3e2807" fill-opacity="1" data-original-color="#263238ff" stroke="none" stroke-opacity="1"/><path d="m336.5 392c-2.207031 0-4-1.792969-4-4v-216c0-2.207031 1.792969-4 4-4s4 1.792969 4 4v216c0 2.214844-1.792969 4-4 4zm0 0" fill="#3e2807" fill-opacity="1" data-original-color="#263238ff" stroke="none" stroke-opacity="1"/><path d="m376.5 392c-2.207031 0-4-1.792969-4-4v-216c0-2.207031 1.792969-4 4-4s4 1.792969 4 4v216c0 2.214844-1.792969 4-4 4zm0 0" fill="#3e2807" fill-opacity="1" data-original-color="#263238ff" stroke="none" stroke-opacity="1"/><path d="m416.5 392c-2.207031 0-4-1.792969-4-4v-216c0-2.207031 1.792969-4 4-4s4 1.792969 4 4v216c0 2.214844-1.792969 4-4 4zm0 0" fill="#3e2807" fill-opacity="1" data-original-color="#263238ff" stroke="none" stroke-opacity="1"/></g><path d="m460.5 404h-448c-4.414062 0-8 3.585938-8 8v32c0 4.414062 3.585938 8 8 8h448c4.414062 0 8-3.585938 8-8v-32c0-4.414062-3.585938-8-8-8zm0 0" fill="#e3a547" fill-opacity="1" data-original-color="#40c4ffff" stroke="none" stroke-opacity="1"/><path d="m460.5 456h-448c-6.617188 0-12-5.382812-12-12v-32c0-6.617188 5.382812-12 12-12h448c6.617188 0 12 5.382812 12 12v32c0 6.625-5.382812 12-12 12zm-448-48c-2.199219 0-4 1.792969-4 4v32c0 2.207031 1.800781 4 4 4h448c2.199219 0 4-1.792969 4-4v-32c0-2.207031-1.800781-4-4-4zm0 0" fill="#3e2807" fill-opacity="1" data-original-color="#263238ff" stroke="none" stroke-opacity="1"/><path d="m432.5 428c0 8.835938-7.164062 16-16 16s-16-7.164062-16-16 7.164062-16 16-16 16 7.164062 16 16zm0 0" fill="#ffffff" fill-opacity="1" data-original-color="#ffffffff" stroke="none" stroke-opacity="1"/><path d="m416.5 448c-11.03125 0-20-8.976562-20-20s8.96875-20 20-20 20 8.976562 20 20-8.96875 20-20 20zm0-32c-6.617188 0-12 5.382812-12 12s5.382812 12 12 12 12-5.375 12-12-5.382812-12-12-12zm0 0" fill="#3e2807" fill-opacity="1" data-original-color="#263238ff" stroke="none" stroke-opacity="1"/><path d="m260.5 132c0 13.253906-10.746094 24-24 24s-24-10.746094-24-24 10.746094-24 24-24 24 10.746094 24 24zm0 0" fill="#ffffff" fill-opacity="1" data-original-color="#ffffffff" stroke="none" stroke-opacity="1"/><path d="m236.5 160c-15.441406 0-28-12.558594-28-28s12.558594-28 28-28 28 12.558594 28 28-12.558594 28-28 28zm0-48c-11.03125 0-20 8.976562-20 20s8.96875 20 20 20 20-8.976562 20-20-8.96875-20-20-20zm0 0" fill="#3e2807" fill-opacity="1" data-original-color="#263238ff" stroke="none" stroke-opacity="1"/><path d="m172.5 488h-8c-2.207031 0-4-1.792969-4-4s1.792969-4 4-4h8c2.207031 0 4 1.792969 4 4s-1.792969 4-4 4zm0 0" fill="#3e2807" fill-opacity="1" data-original-color="#263238ff" stroke="none" stroke-opacity="1"/><path d="m308.5 488h-120c-2.207031 0-4-1.792969-4-4s1.792969-4 4-4h120c2.207031 0 4 1.792969 4 4s-1.792969 4-4 4zm0 0" fill="#3e2807" fill-opacity="1" data-original-color="#263238ff" stroke="none" stroke-opacity="1"/><path d="m332.5 40c-2.207031 0-4-1.792969-4-4v-32c0-2.207031 1.792969-4 4-4s4 1.792969 4 4v32c0 2.214844-1.792969 4-4 4zm0 0" fill="#3e2807" fill-opacity="1" data-original-color="#263238ff" stroke="none" stroke-opacity="1"/><path d="m348.5 24h-32c-2.207031 0-4-1.792969-4-4s1.792969-4 4-4h32c2.207031 0 4 1.792969 4 4s-1.792969 4-4 4zm0 0" fill="#3e2807" fill-opacity="1" data-original-color="#263238ff" stroke="none" stroke-opacity="1"/><path d="m396.5 72c-2.207031 0-4-1.792969-4-4v-32c0-2.207031 1.792969-4 4-4s4 1.792969 4 4v32c0 2.214844-1.792969 4-4 4zm0 0" fill="#3e2807" fill-opacity="1" data-original-color="#263238ff" stroke="none" stroke-opacity="1"/><path d="m412.5 56h-32c-2.207031 0-4-1.792969-4-4s1.792969-4 4-4h32c2.207031 0 4 1.792969 4 4s-1.792969 4-4 4zm0 0" fill="#3e2807" fill-opacity="1" data-original-color="#263238ff" stroke="none" stroke-opacity="1"/></g></svg>