<svg height="300" viewBox="0 -32 488 488" width="300" xmlns="http://www.w3.org/2000/svg" version="1.1" xmlns:xlink="http://www.w3.org/1999/xlink" xmlns:svgjs="http://svgjs.dev/svgjs"><g transform="matrix(1,0,0,1,0,0)"><path d="m309.40625 251.425781c-1.023438 0-2.046875-.394531-2.832031-1.167969-1.558594-1.5625-1.558594-4.097656 0-5.65625l120.914062-120.914062c4.464844-4.46875 5.878907-11.167969 3.617188-17.0625l-9.167969-23.839844-32.738281-32.734375-23.847657-9.167969c-5.878906-2.28125-12.589843-.859374-17.054687 3.613282l-120.921875 120.90625c-1.558594 1.558594-4.09375 1.558594-5.65625 0-1.558594-1.5625-1.558594-4.097656 0-5.65625l120.921875-120.921875c6.695313-6.703125 16.742187-8.832031 25.582031-5.429688l24.640625 9.476563c.519531.203125.992188.515625 1.394531.90625l33.933594 33.945312c.402344.390625.703125.871094.90625 1.390625l9.476563 24.640625c3.402343 8.839844 1.265625 18.886719-5.429688 25.589844l-120.914062 120.914062c-.773438.773438-1.796875 1.167969-2.824219 1.167969zm0 0" fill="#3e2807" fill-opacity="1" data-original-color="#263238ff" stroke="none" stroke-opacity="1"/><path d="m207.574219 349.25-62.222657 62.222656c-7.808593 7.808594-20.472656 7.808594-28.289062 0l-56.566406-56.566406c-7.808594-7.808594-7.808594-20.472656 0-28.289062l62.222656-62.222657" fill="#e3a547" fill-opacity="1" data-original-color="#ffd740ff" stroke="none" stroke-opacity="1"/><path d="m131.207031 421.328125c-6.40625 0-12.4375-2.496094-16.96875-7.023437l-56.566406-56.566407c-4.527344-4.539062-7.03125-10.5625-7.03125-16.96875 0-6.410156 2.496094-12.441406 7.03125-16.976562l62.222656-62.222657c1.5625-1.5625 4.097657-1.5625 5.65625 0 1.5625 1.558594 1.5625 4.09375 0 5.65625l-62.222656 62.222657c-3.023437 3.023437-4.6875 7.039062-4.6875 11.320312s1.664063 8.289063 4.6875 11.3125l56.566406 56.566407c6.050781 6.039062 16.578125 6.039062 22.625 0l62.222657-62.222657c1.5625-1.5625 4.097656-1.5625 5.65625 0 1.5625 1.558594 1.5625 4.09375 0 5.65625l-62.222657 62.222657c-4.527343 4.527343-10.550781 7.023437-16.96875 7.023437zm0 0" fill="#3e2807" fill-opacity="1" data-original-color="#263238ff" stroke="none" stroke-opacity="1"/><path d="m303.742188 310.335938c-3.070313 0-6.140626-1.167969-8.484376-3.511719l-130.097656-130.109375c-2.265625-2.265625-3.511718-5.28125-3.511718-8.488282 0-3.203124 1.246093-6.21875 3.511718-8.488281l11.3125-11.3125c4.671875-4.679687 12.296875-4.679687 16.96875 0l130.101563 130.109375c4.679687 4.683594 4.679687 12.296875 0 16.976563l-11.3125 11.3125c-2.34375 2.335937-5.40625 3.511719-8.488281 3.511719zm-2.832032-9.167969c1.570313 1.570312 4.113282 1.5625 5.664063 0l11.3125-11.3125c1.5625-1.558594 1.5625-4.09375 0-5.664063l-130.101563-130.101562c-1.5625-1.5625-4.097656-1.5625-5.65625 0l-11.3125 11.3125c-.761718.757812-1.167968 1.757812-1.167968 2.832031 0 1.070313.414062 2.070313 1.167968 2.824219zm0 0" fill="#3e2807" fill-opacity="1" data-original-color="#263238ff" stroke="none" stroke-opacity="1"/><path d="m224.550781 343.59375-96.167969-96.167969c-6.246093-6.25-6.246093-16.375 0-22.625l33.945313-33.945312c6.246094-6.246094 16.375-6.246094 22.625 0l96.167969 96.167969c6.246094 6.25 6.246094 16.378906 0 22.625l-33.945313 33.945312c-6.246093 6.246094-16.375 6.246094-22.625 0zm0 0" fill="#e3a547" fill-opacity="1" data-original-color="#4db6acff" stroke="none" stroke-opacity="1"/><path d="m235.855469 352.273438c-5.121094 0-10.238281-1.953126-14.144531-5.847657l-96.160157-96.167969c-3.78125-3.777343-5.855469-8.800781-5.855469-14.144531s2.082032-10.367187 5.855469-14.144531l33.945313-33.945312c7.535156-7.550782 20.710937-7.558594 28.28125 0l96.167968 96.167968c7.796876 7.800782 7.796876 20.488282 0 28.289063l-33.9375 33.945312c-3.894531 3.894531-9.023437 5.847657-14.152343 5.847657zm-8.480469-11.503907c4.6875 4.6875 12.289062 4.671875 16.976562 0l33.9375-33.945312c4.679688-4.679688 4.679688-12.296875 0-16.976563l-96.160156-96.160156c-4.527344-4.527344-12.441406-4.519531-16.96875 0l-33.945312 33.945312c-2.261719 2.265626-3.511719 5.28125-3.511719 8.488282 0 3.207031 1.25 6.214844 3.511719 8.488281zm0 0" fill="#3e2807" fill-opacity="1" data-original-color="#263238ff" stroke="none" stroke-opacity="1"/><path d="m264.152344 274.058594c-1.0625 0-2.082032-.425782-2.832032-1.167969l-62.222656-62.226563c-1.5625-1.558593-1.5625-4.09375 0-5.65625l22.621094-22.621093c1.5625-1.5625 4.097656-1.5625 5.65625 0l62.226562 62.222656c1.558594 1.558594 1.558594 4.09375 0 5.65625l-22.625 22.632813c-.753906.734374-1.769531 1.160156-2.824218 1.160156zm-56.578125-66.234375 56.570312 56.570312 16.96875-16.976562-56.570312-56.570313zm0 0" fill="#3e2807" fill-opacity="1" data-original-color="#263238ff" stroke="none" stroke-opacity="1"/><path d="m462.136719 15.496094-5.65625-5.65625c-7.808594-7.808594-20.472657-7.808594-28.289063 0l-36.765625 36.769531 33.941407 33.945313 36.769531-36.769532c7.816406-7.816406 7.816406-20.480468 0-28.289062zm0 0" fill="#e3a547" fill-opacity="1" data-original-color="#4db6acff" stroke="none" stroke-opacity="1"/><g fill="#263238"><path d="m425.367188 84.554688c-1.0625 0-2.078126-.425782-2.832032-1.167969l-33.933594-33.945313c-1.5625-1.558594-1.5625-4.097656 0-5.65625l36.765626-36.769531c9.359374-9.351563 24.585937-9.359375 33.945312 0l5.65625 5.65625c9.351562 9.351563 9.351562 24.585937 0 33.945313l-36.777344 36.769531c-.742187.742187-1.757812 1.167969-2.824218 1.167969zm-28.277344-37.945313 28.277344 28.289063 33.945312-33.945313c6.230469-6.238281 6.230469-16.390625 0-22.632813l-5.65625-5.65625c-6.242188-6.246093-16.410156-6.238281-22.632812 0zm0 0" fill="#3e2807" fill-opacity="1" data-original-color="#263238ff" stroke="none" stroke-opacity="1"/><path d="m54.839844 421.136719c-1.023438 0-2.046875-.390625-2.832032-1.167969l-19.800781-19.800781c-4.527343-4.527344-7.03125-10.558594-7.03125-16.96875 0-6.40625 2.496094-12.4375 7.03125-16.964844l19.800781-19.800781c1.558594-1.5625 4.097657-1.5625 5.65625 0 1.558594 1.558594 1.558594 4.09375 0 5.65625l-19.800781 19.800781c-3.023437 3.023437-4.6875 7.039063-4.6875 11.308594 0 4.273437 1.664063 8.289062 4.6875 11.3125l19.800781 19.800781c1.558594 1.558594 1.558594 4.097656 0 5.65625-.777343.777344-1.800781 1.167969-2.824218 1.167969zm0 0" fill="#3e2807" fill-opacity="1" data-original-color="#263238ff" stroke="none" stroke-opacity="1"/><path d="m68.984375 406.992188c-1.054687 0-2.074219-.414063-2.832031-1.167969-.914063-.910157-1.328125-2.207031-1.121094-3.488281l5.65625-33.941407c.242188-1.480469 1.296875-2.699219 2.726562-3.152343 1.417969-.464844 2.984376-.082032 4.050782.984374l28.289062 28.277344c1.0625 1.058594 1.4375 2.625.980469 4.050782-.460937 1.429687-1.679687 2.476562-3.160156 2.726562l-33.941407 5.664062c-.207031.03125-.433593.046876-.648437.046876zm8.328125-29.613282-3.464844 20.75 20.753906-3.464844zm0 0" fill="#3e2807" fill-opacity="1" data-original-color="#263238ff" stroke="none" stroke-opacity="1"/><path d="m190.609375 370.226562c-.847656 0-1.707031-.273437-2.433594-.824218l-96.167969-73.539063c-1.761718-1.335937-2.085937-3.847656-.75-5.605469 1.351563-1.761718 3.847657-2.082031 5.605469-.746093l96.167969 73.539062c1.761719 1.335938 2.089844 3.847657.753906 5.605469-.785156 1.023438-1.96875 1.570312-3.175781 1.570312zm0 0" fill="#3e2807" fill-opacity="1" data-original-color="#263238ff" stroke="none" stroke-opacity="1"/><path d="m207.574219 353.25c-.847657 0-1.703125-.273438-2.429688-.824219l-96.167969-73.535156c-1.761718-1.335937-2.089843-3.851563-.753906-5.609375 1.34375-1.761719 3.855469-2.089844 5.609375-.746094l96.167969 73.539063c1.761719 1.335937 2.089844 3.847656.753906 5.605469-.785156 1.035156-1.96875 1.570312-3.179687 1.570312zm0 0" fill="#3e2807" fill-opacity="1" data-original-color="#263238ff" stroke="none" stroke-opacity="1"/><path d="m156.671875 404.160156c-.847656 0-1.703125-.269531-2.433594-.824218l-96.167969-73.535157c-1.757812-1.335937-2.085937-3.847656-.75-5.609375 1.34375-1.757812 3.855469-2.078125 5.609376-.742187l96.167968 73.535156c1.757813 1.335937 2.085938 3.847656.75 5.609375-.785156 1.03125-1.976562 1.566406-3.175781 1.566406zm0 0" fill="#3e2807" fill-opacity="1" data-original-color="#263238ff" stroke="none" stroke-opacity="1"/><path d="m173.640625 387.191406c-.847656 0-1.703125-.269531-2.433594-.824218l-96.167969-73.542969c-1.757812-1.335938-2.085937-3.847657-.75-5.605469 1.34375-1.761719 3.855469-2.089844 5.605469-.746094l96.167969 73.535156c1.761719 1.335938 2.089844 3.847657.753906 5.609376-.785156 1.03125-1.976562 1.574218-3.175781 1.574218zm0 0" fill="#3e2807" fill-opacity="1" data-original-color="#263238ff" stroke="none" stroke-opacity="1"/><path d="m428.191406 132.632812c-1.023437 0-2.046875-.390624-2.832031-1.167968l-84.847656-84.855469c-1.558594-1.558594-1.558594-4.097656 0-5.65625 1.558593-1.558594 4.097656-1.558594 5.65625 0l84.847656 84.847656c1.558594 1.558594 1.558594 4.097657 0 5.65625-.777344.785157-1.800781 1.175781-2.824219 1.175781zm0 0" fill="#3e2807" fill-opacity="1" data-original-color="#263238ff" stroke="none" stroke-opacity="1"/><path d="m388.601562 172.234375c-1.027343 0-2.050781-.394531-2.832031-1.167969l-84.847656-84.855468c-1.5625-1.5625-1.5625-4.097657 0-5.65625 1.558594-1.5625 4.09375-1.5625 5.652344 0l84.851562 84.847656c1.558594 1.558594 1.558594 4.09375 0 5.65625-.777343.78125-1.800781 1.175781-2.824219 1.175781zm0 0" fill="#3e2807" fill-opacity="1" data-original-color="#263238ff" stroke="none" stroke-opacity="1"/><path d="m408.398438 152.433594c-1.023438 0-2.046876-.394532-2.832032-1.167969l-84.847656-84.855469c-1.558594-1.5625-1.558594-4.097656 0-5.65625 1.5625-1.5625 4.097656-1.5625 5.65625 0l84.847656 84.855469c1.5625 1.558594 1.5625 4.09375 0 5.65625-.773437.773437-1.796875 1.167969-2.824218 1.167969zm0 0" fill="#3e2807" fill-opacity="1" data-original-color="#263238ff" stroke="none" stroke-opacity="1"/><path d="m462.144531 47.785156c-1.023437 0-2.046875-.390625-2.832031-1.167968l-33.945312-33.945313c-1.558594-1.558594-1.558594-4.09375 0-5.65625 1.5625-1.558594 4.097656-1.558594 5.65625 0l33.945312 33.945313c1.558594 1.558593 1.558594 4.097656 0 5.65625-.785156.777343-1.800781 1.167968-2.824219 1.167968zm0 0" fill="#3e2807" fill-opacity="1" data-original-color="#263238ff" stroke="none" stroke-opacity="1"/><path d="m439.503906 70.410156c-1.023437 0-2.046875-.394531-2.832031-1.167968l-33.9375-33.945313c-1.558594-1.558594-1.558594-4.097656 0-5.65625 1.5625-1.558594 4.097656-1.558594 5.65625 0l33.9375 33.945313c1.558594 1.558593 1.558594 4.09375 0 5.65625-.777344.773437-1.800781 1.167968-2.824219 1.167968zm0 0" fill="#3e2807" fill-opacity="1" data-original-color="#263238ff" stroke="none" stroke-opacity="1"/><path d="m124 62.65625h-8c-2.207031 0-4-1.792969-4-4s1.792969-4 4-4h8c2.207031 0 4 1.792969 4 4s-1.792969 4-4 4zm0 0" fill="#3e2807" fill-opacity="1" data-original-color="#263238ff" stroke="none" stroke-opacity="1"/><path d="m100 62.65625h-96c-2.207031 0-4-1.792969-4-4s1.792969-4 4-4h96c2.207031 0 4 1.792969 4 4s-1.792969 4-4 4zm0 0" fill="#3e2807" fill-opacity="1" data-original-color="#263238ff" stroke="none" stroke-opacity="1"/><path d="m56 38.65625h-8c-2.207031 0-4-1.792969-4-4s1.792969-4 4-4h8c2.207031 0 4 1.792969 4 4s-1.792969 4-4 4zm0 0" fill="#3e2807" fill-opacity="1" data-original-color="#263238ff" stroke="none" stroke-opacity="1"/><path d="m168 38.65625h-96c-2.207031 0-4-1.792969-4-4s1.792969-4 4-4h96c2.207031 0 4 1.792969 4 4s-1.792969 4-4 4zm0 0" fill="#3e2807" fill-opacity="1" data-original-color="#263238ff" stroke="none" stroke-opacity="1"/><path d="m468 367.976562c-2.207031 0-4-1.792968-4-4v-32c0-2.207031 1.792969-4 4-4s4 1.792969 4 4v32c0 2.207032-1.792969 4-4 4zm0 0" fill="#3e2807" fill-opacity="1" data-original-color="#263238ff" stroke="none" stroke-opacity="1"/><path d="m484 351.976562h-32c-2.207031 0-4-1.792968-4-4 0-2.207031 1.792969-4 4-4h32c2.207031 0 4 1.792969 4 4 0 2.207032-1.792969 4-4 4zm0 0" fill="#3e2807" fill-opacity="1" data-original-color="#263238ff" stroke="none" stroke-opacity="1"/><path d="m412 423.976562c-2.207031 0-4-1.792968-4-4v-32c0-2.207031 1.792969-4 4-4s4 1.792969 4 4v32c0 2.207032-1.792969 4-4 4zm0 0" fill="#3e2807" fill-opacity="1" data-original-color="#263238ff" stroke="none" stroke-opacity="1"/><path d="m428 407.976562h-32c-2.207031 0-4-1.792968-4-4 0-2.207031 1.792969-4 4-4h32c2.207031 0 4 1.792969 4 4 0 2.207032-1.792969 4-4 4zm0 0" fill="#3e2807" fill-opacity="1" data-original-color="#263238ff" stroke="none" stroke-opacity="1"/></g></g></svg>