<svg height="300" viewBox="0 0 488 488" width="300" xmlns="http://www.w3.org/2000/svg" version="1.1" xmlns:xlink="http://www.w3.org/1999/xlink" xmlns:svgjs="http://svgjs.dev/svgjs"><g transform="matrix(1,0,0,1,0,0)"><path d="m228 488h-8c-2.207031 0-4-1.792969-4-4s1.792969-4 4-4h8c2.207031 0 4 1.792969 4 4s-1.792969 4-4 4zm0 0" fill="#263238" fill-opacity="1" data-original-color="#263238ff" stroke="none" stroke-opacity="1"/><path d="m244 368c-10.910156 0-22.039062-1.542969-33.0625-4.59375-1.738281-.476562-2.9375-2.054688-2.9375-3.855469v-39.679687c-17.527344-8.320313-31.550781-22.335938-39.871094-39.863282h-39.679687c-1.800781 0-3.378907-1.199218-3.855469-2.9375-3.050781-11.023437-4.59375-22.148437-4.59375-33.0625 0-10.910156 1.542969-22.039062 4.59375-33.0625.476562-1.738281 2.054688-2.9375 3.855469-2.9375h39.679687c13.886719-29.246093 43.382813-48 75.871094-48s61.984375 18.753907 75.871094 48h39.679687c1.800781 0 3.378907 1.199219 3.855469 2.9375 3.050781 11.023438 4.59375 22.152344 4.59375 33.0625 0 10.914063-1.542969 22.039063-4.59375 33.0625-.476562 1.738282-2.054688 2.9375-3.855469 2.9375h-39.679687c-8.320313 17.527344-22.335938 31.542969-39.871094 39.863282v39.679687c0 1.800781-1.199219 3.378907-2.9375 3.855469-11.023438 3.050781-22.152344 4.59375-33.0625 4.59375zm-28-11.527344c18.734375 4.6875 37.265625 4.6875 56 0v-39.167968c0-1.59375.945312-3.023438 2.398438-3.664063 17.601562-7.703125 31.539062-21.640625 39.242187-39.242187.640625-1.453126 2.070313-2.398438 3.664063-2.398438h39.167968c2.34375-9.367188 3.527344-18.769531 3.527344-28s-1.183594-18.632812-3.527344-28h-39.167968c-1.59375 0-3.023438-.945312-3.664063-2.398438-12.121094-27.707031-39.449219-45.601562-69.640625-45.601562s-57.519531 17.894531-69.640625 45.601562c-.640625 1.453126-2.070313 2.398438-3.664063 2.398438h-39.167968c-2.34375 9.367188-3.527344 18.769531-3.527344 28s1.183594 18.632812 3.527344 28h39.167968c1.59375 0 3.023438.945312 3.664063 2.398438 7.695313 17.601562 21.632813 31.539062 39.242187 39.234374 1.453126.640626 2.398438 2.070313 2.398438 3.664063zm0 0" fill="#263238" fill-opacity="1" data-original-color="#263238ff" stroke="none" stroke-opacity="1"/><path d="m244 36c-114.871094 0-208 93.128906-208 208s93.128906 208 208 208 208-93.128906 208-208-93.128906-208-208-208zm32 346.472656v-6.472656c-10.671875 2.601562-21.414062 4-32 4s-21.328125-1.390625-32-4v6.472656c0 14.039063-14.070312 23.65625-27.207031 18.703125-45.121094-17-80.96875-52.847656-97.96875-97.96875-4.953125-13.136719 4.664062-27.207031 18.703125-27.207031h6.472656c-2.601562-10.671875-4-21.414062-4-32s1.390625-21.328125 4-32h-6.488281c-13.777344 0-23.71875-13.710938-18.910157-26.625 23.773438-63.871094 85.246094-109.375 157.398438-109.375s133.625 45.503906 157.398438 109.375c4.808593 12.914062-5.132813 26.625-18.910157 26.625h-6.488281c2.601562 10.671875 4 21.414062 4 32s-1.390625 21.328125-4 32h6.472656c14.039063 0 23.65625 14.070312 18.703125 27.207031-17 45.121094-52.847656 80.96875-97.96875 97.96875-13.136719 4.953125-27.207031-4.664062-27.207031-18.703125zm0 0" fill="#e3a547" fill-opacity="1" data-original-color="#ff5252ff" stroke="none" stroke-opacity="1"/><g fill="#263238"><path d="m244 456c-116.894531 0-212-95.105469-212-212s95.105469-212 212-212 212 95.105469 212 212-95.105469 212-212 212zm0-416c-112.488281 0-204 91.511719-204 204s91.511719 204 204 204 204-91.511719 204-204-91.511719-204-204-204zm-52.078125 366.480469c-2.882813 0-5.769531-.511719-8.539063-1.558594-46.304687-17.441406-82.855468-54-100.304687-100.304687-2.796875-7.433594-1.78125-15.761719 2.730469-22.289063 4.542968-6.566406 11.734375-10.335937 19.71875-10.335937h6.472656c2.207031 0 4 1.792968 4 4 0 2.207031-1.792969 4-4 4h-6.472656c-5.320313 0-10.113282 2.511718-13.144532 6.886718-3.0625 4.425782-3.726562 9.855469-1.824218 14.914063 16.632812 44.144531 51.496094 79 95.640625 95.640625 5.046875 1.894531 10.480469 1.230468 14.914062-1.824219 4.375-3.035156 6.886719-7.824219 6.886719-13.144531v-6.464844c0-2.207031 1.792969-4 4-4s4 1.792969 4 4v6.472656c0 7.984375-3.769531 15.167969-10.335938 19.71875-4.097656 2.832032-8.894531 4.289063-13.742187 4.289063zm104.15625 0c-4.847656 0-9.652344-1.457031-13.742187-4.289063-6.566407-4.542968-10.335938-11.734375-10.335938-19.71875v-6.472656c0-2.207031 1.792969-4 4-4s4 1.792969 4 4v6.472656c0 5.320313 2.511719 10.113282 6.886719 13.144532 4.433593 3.054687 9.867187 3.734374 14.914062 1.824218 44.144531-16.632812 79-51.496094 95.640625-95.640625 1.902344-5.046875 1.238282-10.488281-1.824218-14.914062-3.03125-4.375-7.824219-6.886719-13.144532-6.886719h-6.472656c-2.207031 0-4-1.792969-4-4s1.792969-4 4-4h6.472656c7.984375 0 15.167969 3.769531 19.71875 10.335938 4.511719 6.519531 5.527344 14.847656 2.730469 22.289062-17.441406 46.304688-54 82.855469-100.304687 100.304688-2.769532 1.039062-5.65625 1.550781-8.539063 1.550781zm86.410156-190.480469h-6.488281c-2.207031 0-4-1.792969-4-4s1.792969-4 4-4h6.488281c5.296875 0 10.265625-2.609375 13.304688-6.984375 2.96875-4.273437 3.648437-9.464844 1.863281-14.246094-23.785156-63.867187-85.527344-106.769531-153.65625-106.769531s-129.871094 42.902344-153.65625 106.769531c-1.785156 4.789063-1.105469 9.984375 1.863281 14.246094 3.03125 4.367187 8.007813 6.984375 13.304688 6.984375h6.488281c2.207031 0 4 1.792969 4 4s-1.792969 4-4 4h-6.488281c-7.910157 0-15.335938-3.894531-19.871094-10.414062-4.488281-6.457032-5.503906-14.328126-2.792969-21.609376 24.945313-66.976562 89.703125-111.976562 161.152344-111.976562s136.207031 45 161.152344 111.984375c2.703125 7.28125 1.6875 15.152344-2.792969 21.609375-4.527344 6.511719-11.960937 10.40625-19.871094 10.40625zm0 0" fill="#263238" fill-opacity="1" data-original-color="#263238ff" stroke="none" stroke-opacity="1"/><path d="m276 264h-64c-6.617188 0-12-5.382812-12-12v-16c0-6.617188 5.382812-12 12-12h64c6.617188 0 12 5.382812 12 12v16c0 6.617188-5.382812 12-12 12zm-64-32c-2.207031 0-4 1.792969-4 4v16c0 2.207031 1.792969 4 4 4h64c2.207031 0 4-1.792969 4-4v-16c0-2.207031-1.792969-4-4-4zm0 0" fill="#263238" fill-opacity="1" data-original-color="#263238ff" stroke="none" stroke-opacity="1"/><path d="m4 248c-2.207031 0-4-1.792969-4-4 0-134.542969 109.457031-244 244-244 2.207031 0 4 1.792969 4 4s-1.792969 4-4 4c-130.136719 0-236 105.863281-236 236 0 2.207031-1.792969 4-4 4zm0 0" fill="#263238" fill-opacity="1" data-original-color="#263238ff" stroke="none" stroke-opacity="1"/><path d="m268 8h-8c-2.207031 0-4-1.792969-4-4s1.792969-4 4-4h8c2.207031 0 4 1.792969 4 4s-1.792969 4-4 4zm0 0" fill="#263238" fill-opacity="1" data-original-color="#263238ff" stroke="none" stroke-opacity="1"/><path d="m244 488c-2.207031 0-4-1.792969-4-4s1.792969-4 4-4c130.136719 0 236-105.863281 236-236 0-2.207031 1.792969-4 4-4s4 1.792969 4 4c0 134.542969-109.457031 244-244 244zm0 0" fill="#263238" fill-opacity="1" data-original-color="#263238ff" stroke="none" stroke-opacity="1"/><path d="m412 40c-2.207031 0-4-1.792969-4-4v-32c0-2.207031 1.792969-4 4-4s4 1.792969 4 4v32c0 2.207031-1.792969 4-4 4zm0 0" fill="#263238" fill-opacity="1" data-original-color="#263238ff" stroke="none" stroke-opacity="1"/><path d="m428 24h-32c-2.207031 0-4-1.792969-4-4s1.792969-4 4-4h32c2.207031 0 4 1.792969 4 4s-1.792969 4-4 4zm0 0" fill="#263238" fill-opacity="1" data-original-color="#263238ff" stroke="none" stroke-opacity="1"/><path d="m468 96c-2.207031 0-4-1.792969-4-4v-32c0-2.207031 1.792969-4 4-4s4 1.792969 4 4v32c0 2.207031-1.792969 4-4 4zm0 0" fill="#263238" fill-opacity="1" data-original-color="#263238ff" stroke="none" stroke-opacity="1"/><path d="m484 80h-32c-2.207031 0-4-1.792969-4-4s1.792969-4 4-4h32c2.207031 0 4 1.792969 4 4s-1.792969 4-4 4zm0 0" fill="#263238" fill-opacity="1" data-original-color="#263238ff" stroke="none" stroke-opacity="1"/></g></g></svg>