<svg height="300" viewBox="-48 0 472 472" width="300" xmlns="http://www.w3.org/2000/svg" version="1.1" xmlns:xlink="http://www.w3.org/1999/xlink" xmlns:svgjs="http://svgjs.dev/svgjs"><g transform="matrix(1,0,0,1,0,0)"><path d="m84 52h64v32h-64zm0 0" fill="#e3a547" fill-opacity="1" data-original-color="#ffd740ff" stroke="none" stroke-opacity="1"/><path d="m228 52h64v32h-64zm0 0" fill="#e3a547" fill-opacity="1" data-original-color="#ffd740ff" stroke="none" stroke-opacity="1"/><path d="m292 420h-67.375c-6.175781 14.113281-20.230469 24-36.625 24-16.390625 0-30.445312-9.886719-36.621094-24h-67.378906v-32h67.378906c6.175782-14.113281 20.230469-24 36.621094-24 16.394531 0 30.449219 9.886719 36.625 24h67.375zm0 0" fill="#e3a547" fill-opacity="1" data-original-color="#ffd740ff" stroke="none" stroke-opacity="1"/><path d="m204 348h-32v-224h32zm0 0" fill="#e3a547" fill-opacity="1" data-original-color="#ffd740ff" stroke="none" stroke-opacity="1"/><path d="m148 88h-64c-2.207031 0-4-1.792969-4-4s1.792969-4 4-4h64c2.210938 0 4 1.792969 4 4s-1.789062 4-4 4zm0 0" fill="#3e2807" fill-opacity="1" data-original-color="#263238ff" stroke="none" stroke-opacity="1"/><path d="m292 88h-64c-2.207031 0-4-1.792969-4-4s1.792969-4 4-4h64c2.210938 0 4 1.792969 4 4s-1.789062 4-4 4zm0 0" fill="#3e2807" fill-opacity="1" data-original-color="#263238ff" stroke="none" stroke-opacity="1"/><path d="m292 56h-64c-2.207031 0-4-1.792969-4-4s1.792969-4 4-4h64c2.210938 0 4 1.792969 4 4s-1.789062 4-4 4zm0 0" fill="#3e2807" fill-opacity="1" data-original-color="#263238ff" stroke="none" stroke-opacity="1"/><path d="m148 56h-64c-2.207031 0-4-1.792969-4-4s1.792969-4 4-4h64c2.210938 0 4 1.792969 4 4s-1.789062 4-4 4zm0 0" fill="#3e2807" fill-opacity="1" data-original-color="#263238ff" stroke="none" stroke-opacity="1"/><path d="m208 108h-40c-11.046875 0-20-8.953125-20-20v-40c0-11.046875 8.953125-20 20-20h40c11.050781 0 20 8.953125 20 20v40c0 11.046875-8.949219 20-20 20zm0 0" fill="#e3a547" fill-opacity="1" data-original-color="#40c4ffff" stroke="none" stroke-opacity="1"/><g fill="#263238"><path d="m208 112h-40c-13.230469 0-24-10.769531-24-24v-40c0-13.230469 10.769531-24 24-24h40c13.234375 0 24 10.769531 24 24v40c0 13.230469-10.765625 24-24 24zm-40-80c-8.820312 0-16 7.175781-16 16v40c0 8.824219 7.179688 16 16 16h40c8.824219 0 16-7.175781 16-16v-40c0-8.824219-7.175781-16-16-16zm0 0" fill="#3e2807" fill-opacity="1" data-original-color="#263238ff" stroke="none" stroke-opacity="1"/><path d="m280 376c-2.207031 0-4-1.792969-4-4v-127.414062l-23.832031-79.441407c-.109375-.367187-.167969-.753906-.167969-1.144531v-64c0-2.207031 1.792969-4 4-4 2.210938 0 4 1.792969 4 4v63.414062l23.832031 79.441407c.113281.367187.167969.753906.167969 1.144531v128c0 2.207031-1.789062 4-4 4zm0 0" fill="#3e2807" fill-opacity="1" data-original-color="#263238ff" stroke="none" stroke-opacity="1"/><path d="m96 376c-2.207031 0-4-1.792969-4-4v-128c0-.390625.058594-.777344.167969-1.152344l23.832031-79.433594v-63.414062c0-2.207031 1.792969-4 4-4 2.210938 0 4 1.792969 4 4v64c0 .390625-.054688.777344-.167969 1.152344l-23.832031 79.433594v127.414062c0 2.207031-1.789062 4-4 4zm0 0" fill="#3e2807" fill-opacity="1" data-original-color="#263238ff" stroke="none" stroke-opacity="1"/><path d="m292 392h-67.375c-1.582031 0-3.023438-.945312-3.664062-2.390625-5.75-13.128906-18.6875-21.609375-32.960938-21.609375-14.269531 0-27.207031 8.480469-32.957031 21.609375-.640625 1.453125-2.082031 2.390625-3.664063 2.390625h-67.378906c-2.207031 0-4-1.792969-4-4s1.792969-4 4-4h64.84375c7.503906-14.664062 22.582031-24 39.15625-24 16.578125 0 31.65625 9.335938 39.160156 24h64.839844c2.210938 0 4 1.792969 4 4s-1.789062 4-4 4zm0 0" fill="#3e2807" fill-opacity="1" data-original-color="#263238ff" stroke="none" stroke-opacity="1"/><path d="m188 448c-16.566406 0-31.664062-9.335938-39.15625-24h-64.84375c-2.207031 0-4-1.792969-4-4s1.792969-4 4-4h67.378906c1.582032 0 3.023438.945312 3.664063 2.390625 5.742187 13.128906 18.679687 21.609375 32.957031 21.609375 14.28125 0 27.21875-8.480469 32.960938-21.609375.640624-1.453125 2.082031-2.390625 3.664062-2.390625h67.375c2.210938 0 4 1.792969 4 4s-1.789062 4-4 4h-64.839844c-7.496094 14.664062-22.589844 24-39.160156 24zm0 0" fill="#3e2807" fill-opacity="1" data-original-color="#263238ff" stroke="none" stroke-opacity="1"/><path d="m204 352c-2.207031 0-4-1.792969-4-4v-224c0-2.207031 1.792969-4 4-4 2.210938 0 4 1.792969 4 4v224c0 2.207031-1.789062 4-4 4zm0 0" fill="#3e2807" fill-opacity="1" data-original-color="#263238ff" stroke="none" stroke-opacity="1"/><path d="m172 352c-2.207031 0-4-1.792969-4-4v-224c0-2.207031 1.792969-4 4-4 2.210938 0 4 1.792969 4 4v224c0 2.207031-1.789062 4-4 4zm0 0" fill="#3e2807" fill-opacity="1" data-original-color="#263238ff" stroke="none" stroke-opacity="1"/><path d="m208 112h-40c-2.207031 0-4-1.792969-4-4v-32c0-6.617188 5.386719-12 12-12h24c6.617188 0 12 5.382812 12 12v32c0 2.207031-1.789062 4-4 4zm-36-8h32v-28c0-2.207031-1.796875-4-4-4h-24c-2.199219 0-4 1.792969-4 4zm0 0" fill="#3e2807" fill-opacity="1" data-original-color="#263238ff" stroke="none" stroke-opacity="1"/><path d="m48 136h-24c-13.230469 0-24-10.769531-24-24v-88c0-13.230469 10.769531-24 24-24h24c13.234375 0 24 10.769531 24 24v88c0 13.230469-10.765625 24-24 24zm-24-128c-8.820312 0-16 7.175781-16 16v88c0 8.824219 7.179688 16 16 16h24c8.824219 0 16-7.175781 16-16v-88c0-8.824219-7.175781-16-16-16zm0 0" fill="#3e2807" fill-opacity="1" data-original-color="#263238ff" stroke="none" stroke-opacity="1"/></g><path d="m4 36 20-8" fill="#e3a547" fill-opacity="1" data-original-color="#40c4ffff" stroke="none" stroke-opacity="1"/><path d="m4 40c-1.582031 0-3.085938-.953125-3.710938-2.511719-.824218-2.046875.167969-4.375 2.226563-5.199219l20-8c2.046875-.832031 4.375.175782 5.191406 2.230469.816407 2.054688-.167969 4.375-2.226562 5.199219l-20 8c-.480469.191406-.984375.28125-1.480469.28125zm0 0" fill="#3e2807" fill-opacity="1" data-original-color="#263238ff" stroke="none" stroke-opacity="1"/><path d="m4 76 20-8" fill="#e3a547" fill-opacity="1" data-original-color="#40c4ffff" stroke="none" stroke-opacity="1"/><path d="m4 80c-1.582031 0-3.085938-.953125-3.710938-2.511719-.824218-2.046875.167969-4.375 2.226563-5.199219l20-8c2.046875-.832031 4.375.175782 5.191406 2.230469.824219 2.046875-.167969 4.375-2.226562 5.199219l-20 8c-.480469.191406-.984375.28125-1.480469.28125zm0 0" fill="#3e2807" fill-opacity="1" data-original-color="#263238ff" stroke="none" stroke-opacity="1"/><path d="m4 116 20-8" fill="#e3a547" fill-opacity="1" data-original-color="#40c4ffff" stroke="none" stroke-opacity="1"/><path d="m4 120c-1.582031 0-3.085938-.953125-3.710938-2.511719-.824218-2.046875.167969-4.375 2.226563-5.199219l20-8c2.046875-.824218 4.375.175782 5.191406 2.230469.824219 2.046875-.167969 4.375-2.226562 5.199219l-20 8c-.480469.191406-.984375.28125-1.480469.28125zm0 0" fill="#3e2807" fill-opacity="1" data-original-color="#263238ff" stroke="none" stroke-opacity="1"/><path d="m48 472h-24c-13.230469 0-24-10.769531-24-24v-88c0-13.230469 10.769531-24 24-24h24c13.234375 0 24 10.769531 24 24v88c0 13.230469-10.765625 24-24 24zm-24-128c-8.820312 0-16 7.175781-16 16v88c0 8.824219 7.179688 16 16 16h24c8.824219 0 16-7.175781 16-16v-88c0-8.824219-7.175781-16-16-16zm0 0" fill="#3e2807" fill-opacity="1" data-original-color="#263238ff" stroke="none" stroke-opacity="1"/><path d="m4 372 20-8" fill="#e3a547" fill-opacity="1" data-original-color="#40c4ffff" stroke="none" stroke-opacity="1"/><path d="m4 376c-1.582031 0-3.085938-.953125-3.710938-2.511719-.824218-2.046875.167969-4.375 2.226563-5.199219l20-8c2.046875-.832031 4.375.175782 5.191406 2.230469.824219 2.046875-.167969 4.375-2.226562 5.199219l-20 8c-.480469.191406-.984375.28125-1.480469.28125zm0 0" fill="#3e2807" fill-opacity="1" data-original-color="#263238ff" stroke="none" stroke-opacity="1"/><path d="m4 412 20-8" fill="#e3a547" fill-opacity="1" data-original-color="#40c4ffff" stroke="none" stroke-opacity="1"/><path d="m4 416c-1.582031 0-3.085938-.953125-3.710938-2.511719-.824218-2.046875.167969-4.375 2.226563-5.199219l20-8c2.046875-.824218 4.375.175782 5.191406 2.230469.824219 2.046875-.167969 4.375-2.226562 5.199219l-20 8c-.480469.191406-.984375.28125-1.480469.28125zm0 0" fill="#3e2807" fill-opacity="1" data-original-color="#263238ff" stroke="none" stroke-opacity="1"/><path d="m4 452 20-8" fill="#e3a547" fill-opacity="1" data-original-color="#40c4ffff" stroke="none" stroke-opacity="1"/><path d="m4 456c-1.582031 0-3.085938-.953125-3.710938-2.511719-.824218-2.046875.167969-4.375 2.226563-5.199219l20-8c2.046875-.824218 4.375.175782 5.191406 2.230469.816407 2.054688-.167969 4.375-2.226562 5.199219l-20 8c-.480469.191406-.984375.28125-1.480469.28125zm0 0" fill="#3e2807" fill-opacity="1" data-original-color="#263238ff" stroke="none" stroke-opacity="1"/><path d="m352 136h-24c-13.230469 0-24-10.769531-24-24v-88c0-13.230469 10.769531-24 24-24h24c13.234375 0 24 10.769531 24 24v88c0 13.230469-10.765625 24-24 24zm-24-128c-8.820312 0-16 7.175781-16 16v88c0 8.824219 7.179688 16 16 16h24c8.824219 0 16-7.175781 16-16v-88c0-8.824219-7.175781-16-16-16zm0 0" fill="#3e2807" fill-opacity="1" data-original-color="#263238ff" stroke="none" stroke-opacity="1"/><path d="m372 36-20-8" fill="#e3a547" fill-opacity="1" data-original-color="#40c4ffff" stroke="none" stroke-opacity="1"/><path d="m372 40c-.492188 0-1-.089844-1.484375-.289062l-20-8c-2.058594-.824219-3.050781-3.152344-2.226563-5.199219.824219-2.046875 3.160157-3.054688 5.191407-2.230469l20 8c2.058593.824219 3.050781 3.152344 2.226562 5.199219-.617187 1.566406-2.121093 2.519531-3.707031 2.519531zm0 0" fill="#3e2807" fill-opacity="1" data-original-color="#263238ff" stroke="none" stroke-opacity="1"/><path d="m372 76-20-8" fill="#e3a547" fill-opacity="1" data-original-color="#40c4ffff" stroke="none" stroke-opacity="1"/><path d="m372 80c-.492188 0-1-.089844-1.484375-.289062l-20-8c-2.058594-.824219-3.050781-3.152344-2.226563-5.199219.824219-2.054688 3.160157-3.0625 5.191407-2.230469l20 8c2.058593.824219 3.050781 3.152344 2.226562 5.199219-.617187 1.566406-2.121093 2.519531-3.707031 2.519531zm0 0" fill="#3e2807" fill-opacity="1" data-original-color="#263238ff" stroke="none" stroke-opacity="1"/><path d="m372 116-20-8" fill="#e3a547" fill-opacity="1" data-original-color="#40c4ffff" stroke="none" stroke-opacity="1"/><path d="m372 120c-.492188 0-1-.089844-1.484375-.289062l-20-8c-2.058594-.824219-3.050781-3.152344-2.226563-5.199219.824219-2.054688 3.160157-3.046875 5.191407-2.230469l20 8c2.058593.824219 3.050781 3.152344 2.226562 5.199219-.617187 1.566406-2.121093 2.519531-3.707031 2.519531zm0 0" fill="#3e2807" fill-opacity="1" data-original-color="#263238ff" stroke="none" stroke-opacity="1"/><path d="m352 472h-24c-13.230469 0-24-10.769531-24-24v-88c0-13.230469 10.769531-24 24-24h24c13.234375 0 24 10.769531 24 24v88c0 13.230469-10.765625 24-24 24zm-24-128c-8.820312 0-16 7.175781-16 16v88c0 8.824219 7.179688 16 16 16h24c8.824219 0 16-7.175781 16-16v-88c0-8.824219-7.175781-16-16-16zm0 0" fill="#3e2807" fill-opacity="1" data-original-color="#263238ff" stroke="none" stroke-opacity="1"/><path d="m372 372-20-8" fill="#e3a547" fill-opacity="1" data-original-color="#40c4ffff" stroke="none" stroke-opacity="1"/><path d="m372 376c-.492188 0-1-.089844-1.484375-.289062l-20-8c-2.058594-.824219-3.050781-3.152344-2.226563-5.199219.824219-2.046875 3.160157-3.054688 5.191407-2.230469l20 8c2.058593.824219 3.050781 3.152344 2.226562 5.199219-.617187 1.566406-2.121093 2.519531-3.707031 2.519531zm0 0" fill="#3e2807" fill-opacity="1" data-original-color="#263238ff" stroke="none" stroke-opacity="1"/><path d="m372 412-20-8" fill="#e3a547" fill-opacity="1" data-original-color="#40c4ffff" stroke="none" stroke-opacity="1"/><path d="m372 416c-.492188 0-1-.089844-1.484375-.289062l-20-8c-2.058594-.824219-3.050781-3.152344-2.226563-5.199219.824219-2.054688 3.160157-3.046875 5.191407-2.230469l20 8c2.058593.824219 3.050781 3.152344 2.226562 5.199219-.617187 1.566406-2.121093 2.519531-3.707031 2.519531zm0 0" fill="#3e2807" fill-opacity="1" data-original-color="#263238ff" stroke="none" stroke-opacity="1"/><path d="m372 452-20-8" fill="#e3a547" fill-opacity="1" data-original-color="#40c4ffff" stroke="none" stroke-opacity="1"/><path d="m372 456c-.492188 0-1-.089844-1.484375-.289062l-20-8c-2.058594-.824219-3.050781-3.152344-2.226563-5.199219.824219-2.046875 3.160157-3.046875 5.191407-2.230469l20 8c2.058593.824219 3.050781 3.152344 2.226562 5.199219-.617187 1.566406-2.121093 2.519531-3.707031 2.519531zm0 0" fill="#3e2807" fill-opacity="1" data-original-color="#263238ff" stroke="none" stroke-opacity="1"/><path d="m36 300c-2.207031 0-4-1.792969-4-4v-8c0-2.207031 1.792969-4 4-4 2.210938 0 4 1.792969 4 4v8c0 2.207031-1.789062 4-4 4zm0 0" fill="#3e2807" fill-opacity="1" data-original-color="#263238ff" stroke="none" stroke-opacity="1"/><path d="m36 276c-2.207031 0-4-1.792969-4-4v-96c0-2.207031 1.792969-4 4-4 2.210938 0 4 1.792969 4 4v96c0 2.207031-1.789062 4-4 4zm0 0" fill="#3e2807" fill-opacity="1" data-original-color="#263238ff" stroke="none" stroke-opacity="1"/><path d="m340 300c-2.207031 0-4-1.792969-4-4v-8c0-2.207031 1.792969-4 4-4 2.210938 0 4 1.792969 4 4v8c0 2.207031-1.789062 4-4 4zm0 0" fill="#3e2807" fill-opacity="1" data-original-color="#263238ff" stroke="none" stroke-opacity="1"/><path d="m340 276c-2.207031 0-4-1.792969-4-4v-96c0-2.207031 1.792969-4 4-4 2.210938 0 4 1.792969 4 4v96c0 2.207031-1.789062 4-4 4zm0 0" fill="#3e2807" fill-opacity="1" data-original-color="#263238ff" stroke="none" stroke-opacity="1"/></g></svg>