<svg height="300" viewBox="0 -1 512.00044 512" width="300" xmlns="http://www.w3.org/2000/svg" version="1.1" xmlns:xlink="http://www.w3.org/1999/xlink" xmlns:svgjs="http://svgjs.dev/svgjs"><g transform="matrix(1,0,0,1,0,0)"><path d="m55.441406 372.457031c-23.429687 23.433594-23.433594 61.359375 0 84.792969 37.707032 37.707031 102.355469 10.777344 102.355469-42.398438 0-53.207031-64.683594-80.066406-102.355469-42.394531zm0 0" fill="#ffd493" fill-opacity="1" data-original-color="#e4eaf8ff" stroke="none" stroke-opacity="1"/><path d="m85.695312 457.25c-23.4375-23.433594-23.433593-61.359375 0-84.792969 8.011719-8.011719 17.246094-13.09375 26.820313-15.636719-19.09375-4.941406-40.648437-.785156-57.074219 15.636719-23.429687 23.433594-23.433594 61.359375 0 84.792969 16.433594 16.433594 37.984375 20.585938 57.074219 15.640625-9.570313-2.539063-18.804687-7.625-26.820313-15.640625zm0 0" fill="#ffd493" fill-opacity="1" data-original-color="#c7d2e5ff" stroke="none" stroke-opacity="1"/><path d="m438.921875 73.765625c-47.449219-47.449219-124.65625-47.449219-172.105469 0-47.449218 47.449219-47.449218 124.65625 0 172.109375 47.449219 47.449219 124.65625 47.445312 172.105469 0 47.449219-47.453125 47.449219-124.660156 0-172.109375zm0 0" fill="#ffd493" fill-opacity="1" data-original-color="#e4eaf8ff" stroke="none" stroke-opacity="1"/><path d="m297.066406 245.875c-47.449218-47.453125-47.449218-124.65625 0-172.109375 19.878906-19.878906 44.980469-31.421875 70.925782-34.648437-35.988282-4.46875-73.605469 7.078124-101.175782 34.648437-47.453125 47.449219-47.453125 124.65625 0 172.109375 27.570313 27.570312 65.1875 39.117188 101.175782 34.644531-25.945313-3.222656-51.046876-14.765625-70.925782-34.644531zm0 0" fill="#ffd493" fill-opacity="1" data-original-color="#c7d2e5ff" stroke="none" stroke-opacity="1"/><path d="m34.164062 478.527344c-34.765624-34.765625-35.109374-91.113282-1.035156-126.304688 212.710938-304.671875 199.4375-287.171875 212.140625-299.875 59.296875-59.292968 155.773438-59.292968 215.070313 0 59.292968 59.296875 59.292968 155.777344 0 215.070313-12.695313 12.695312 6.042968-1.4375-299.875 212.140625-35.191406 34.078125-91.539063 33.730468-126.300782-1.03125zm403.632813-403.636719c-46.863281-46.863281-123.121094-46.863281-169.984375 0-16.886719 16.886719-204.671875 292.390625-211.109375 298.828125-22.679687 22.679688-22.679687 59.585938 0 82.265625 22.683594 22.679687 59.585937 22.679687 82.265625 0 6.421875-6.421875 282.265625-194.546875 298.828125-211.109375 46.867187-46.863281 46.867187-123.117188 0-169.984375zm0 0" fill="#e3a547" fill-opacity="1" data-original-color="#feca57ff" stroke="none" stroke-opacity="1"/><path d="m64.414062 478.527344c-34.765624-34.765625-35.109374-91.113282-1.035156-126.304688 212.710938-304.671875 199.4375-287.171875 212.140625-299.875 25.804688-25.800781 58.652344-40.371094 92.410157-43.714844-43.816407-4.34375-89.167969 10.226563-122.660157 43.714844-12.703125 12.703125.570313-4.796875-212.140625 299.878906-34.078125 35.191407-33.730468 91.535157 1.035156 126.300782 21.410157 21.410156 51.007813 29.746094 78.808594 25.042968-17.792968-3.007812-34.855468-11.339843-48.558594-25.042968zm0 0" fill="#e3a547" fill-opacity="1" data-original-color="#f4b537ff" stroke="none" stroke-opacity="1"/><path d="m116.171875 396.515625c-10.125-10.128906-26.546875-10.128906-36.671875 0-10.128906 10.125-10.128906 26.546875 0 36.671875 10.125 10.128906 26.546875 10.128906 36.671875 0 10.128906-10.125 10.128906-26.546875 0-36.671875zm0 0" fill="#576574" fill-opacity="1" data-original-color="#576574ff" stroke="none" stroke-opacity="1"/><path d="m109.753906 433.191406c-10.128906-10.128906-10.128906-26.550781 0-36.675781 1.011719-1.011719 2.085938-1.917969 3.210938-2.726563-10.132813-7.296874-24.347656-6.390624-33.464844 2.726563-10.125 10.125-10.125 26.546875 0 36.675781 9.117188 9.113282 23.332031 10.019532 33.464844 2.722656-1.125-.808593-2.199219-1.710937-3.210938-2.722656zm0 0" fill="#3e4b5a" fill-opacity="1" data-original-color="#3e4b5aff" stroke="none" stroke-opacity="1"/><path d="m394.199219 118.484375c-22.828125-22.828125-59.839844-22.828125-82.671875 0-22.828125 22.832031-22.828125 59.84375 0 82.671875 22.832031 22.828125 59.84375 22.828125 82.671875 0s22.828125-59.839844 0-82.671875zm0 0" fill="#576574" fill-opacity="1" data-original-color="#576574ff" stroke="none" stroke-opacity="1"/><path d="m341.785156 118.484375c7.53125-7.53125 16.609375-12.5625 26.207032-15.125-19.5-5.203125-41.160157-.171875-56.457032 15.125-22.832031 22.828125-22.832031 59.839844 0 82.671875 15.296875 15.296875 36.960938 20.328125 56.457032 15.121094-9.597657-2.5625-18.675782-7.589844-26.207032-15.121094-22.828125-22.832031-22.828125-59.84375 0-82.671875zm0 0" fill="#3e4b5a" fill-opacity="1" data-original-color="#3e4b5aff" stroke="none" stroke-opacity="1"/><path d="m371.203125 141.484375c-10.128906-10.128906-26.546875-10.128906-36.675781 0-10.128906 10.125-10.128906 26.546875 0 36.671875 10.128906 10.128906 26.546875 10.128906 36.675781 0 10.125-10.125 10.125-26.546875 0-36.671875zm0 0" fill="#3e4b5a" fill-opacity="1" data-original-color="#3e4b5aff" stroke="none" stroke-opacity="1"/><path d="m364.78125 178.15625c-10.125-10.125-10.125-26.546875 0-36.675781 1.011719-1.007813 2.089844-1.914063 3.210938-2.726563-10.132813-7.292968-24.34375-6.386718-33.460938 2.726563-10.128906 10.128906-10.128906 26.550781 0 36.675781 9.117188 9.117188 23.328125 10.023438 33.460938 2.726562-1.121094-.808593-2.199219-1.714843-3.210938-2.726562zm0 0" fill="#374451" fill-opacity="1" data-original-color="#374451ff" stroke="none" stroke-opacity="1"/><path d="m73.890625 390.5c-13.066406 13.070312-13.066406 34.21875 0 47.28125 13.066406 13.066406 34.214844 13.070312 47.28125 0 13.035156-13.035156 13.035156-34.246094 0-47.28125s-34.246094-13.03125-47.28125 0zm36.675781 36.675781c-11.652344 11.65625-31.46875 3.246094-31.46875-13.035156 0-16.460937 19.964844-24.535156 31.46875-13.035156 7.183594 7.191406 7.183594 18.882812 0 26.070312zm0 0" fill="#3e2807" fill-opacity="1" data-original-color="#000000ff" stroke="none" stroke-opacity="1"/><path d="m376.203125 135.46875c-13.066406-13.066406-34.214844-13.070312-47.285156 0-13.03125 13.035156-13.03125 34.246094 0 47.28125 13.070312 13.066406 34.21875 13.066406 47.28125 0 13.066406-13.066406 13.070312-34.214844.003906-47.28125zm-10.609375 36.675781c-7.203125 7.203125-18.863281 7.203125-26.066406-.003906-7.1875-7.1875-7.1875-18.878906 0-26.066406 7.203125-7.203125 18.859375-7.203125 26.066406 0 7.199219 7.203125 7.210938 18.859375 0 26.070312zm0 0" fill="#3e2807" fill-opacity="1" data-original-color="#000000ff" stroke="none" stroke-opacity="1"/><path d="m352.558594 83.972656c4.144531 0 7.5-3.355468 7.5-7.5v-5.953125c0-4.140625-3.355469-7.5-7.5-7.5-4.140625 0-7.5 3.359375-7.5 7.5v5.953125c0 4.144532 3.359375 7.5 7.5 7.5zm0 0" fill="#3e2807" fill-opacity="1" data-original-color="#000000ff" stroke="none" stroke-opacity="1"/><path d="m352.558594 234.242188c-4.140625 0-7.5 3.359374-7.5 7.5v5.953124c0 4.144532 3.359375 7.5 7.5 7.5 4.144531 0 7.5-3.355468 7.5-7.5v-5.953124c0-4.140626-3.355469-7.5-7.5-7.5zm0 0" fill="#3e2807" fill-opacity="1" data-original-color="#000000ff" stroke="none" stroke-opacity="1"/><path d="m416.320312 105.957031 4.1875-4.183593c2.925782-2.933594 2.925782-7.679688 0-10.609376-2.933593-2.925781-7.679687-2.925781-10.609374 0l-4.183594 4.183594c-2.929688 2.929688-2.929688 7.679688 0 10.609375 2.929687 2.925781 7.675781 2.925781 10.605468 0zm0 0" fill="#3e2807" fill-opacity="1" data-original-color="#000000ff" stroke="none" stroke-opacity="1"/><path d="m295.222656 227.054688 4.195313-4.199219c2.929687-2.929688 2.929687-7.675781 0-10.605469-2.929688-2.929688-7.675781-2.929688-10.605469 0l-4.195312 4.195312c-2.929688 2.929688-2.929688 7.679688 0 10.609376 2.929687 2.925781 7.675781 2.925781 10.605468 0zm0 0" fill="#3e2807" fill-opacity="1" data-original-color="#000000ff" stroke="none" stroke-opacity="1"/><path d="m435.195312 166.609375h5.953126c4.144531 0 7.5-3.359375 7.5-7.5 0-4.144531-3.355469-7.5-7.5-7.5h-5.953126c-4.144531 0-7.5 3.355469-7.5 7.5 0 4.140625 3.355469 7.5 7.5 7.5zm0 0" fill="#3e2807" fill-opacity="1" data-original-color="#000000ff" stroke="none" stroke-opacity="1"/><path d="m263.972656 166.609375h5.953125c4.144531 0 7.5-3.359375 7.5-7.5 0-4.144531-3.355469-7.5-7.5-7.5h-5.953125c-4.144531 0-7.5 3.355469-7.5 7.5 0 4.140625 3.355469 7.5 7.5 7.5zm0 0" fill="#3e2807" fill-opacity="1" data-original-color="#000000ff" stroke="none" stroke-opacity="1"/><path d="m416.308594 212.25c-2.929688-2.929688-7.679688-2.929688-10.609375 0-2.925781 2.929688-2.925781 7.675781 0 10.605469l4.199219 4.199219c2.929687 2.925781 7.675781 2.925781 10.605468 0 2.929688-2.929688 2.929688-7.679688 0-10.609376zm0 0" fill="#3e2807" fill-opacity="1" data-original-color="#000000ff" stroke="none" stroke-opacity="1"/><path d="m288.800781 105.957031c2.929688 2.929688 7.679688 2.925781 10.605469 0 2.929688-2.929687 2.929688-7.679687 0-10.609375l-4.183594-4.183594c-2.929687-2.929687-7.679687-2.929687-10.605468 0-2.929688 2.929688-2.929688 7.675782 0 10.605469zm0 0" fill="#3e2807" fill-opacity="1" data-original-color="#000000ff" stroke="none" stroke-opacity="1"/><path d="m334.207031.0507812c-37.757812 4.3203128-68.769531 20.2187498-96.070312 47.1210938-10.996094 10.816406-7.632813 7.425781-211.128907 298.898437-36.503906 38.167969-36.019531 98.820313 1.542969 136.382813 37.027344 37.027344 97.730469 38.511719 136.382813 1.542969 305.894531-213.5625 287.109375-199.378906 300.402344-212.652344 62.21875-62.21875 62.21875-163.457031 0-225.675781-25.671876-25.671875-58.320313-41.441407-94.414063-45.605469-4.113281-.484375-7.835937 2.476562-8.308594 6.59375-.476562 4.113281 2.476563 7.835938 6.589844 8.308594 32.695313 3.773437 62.269531 18.054687 85.523437 41.3125 56.371094 56.367187 56.371094 148.089844 0 204.460937-18.089843 18.117188-294.359374 206.789063-299.789062 212.054688-32.167969 31.148437-84.105469 30.726562-115.777344-.949219-31.675781-31.671875-32.097656-83.609375-.949218-115.777344.277343-.289062.53125-.597656.761718-.925781 211.226563-302.546875 199.21875-286.8125 211.292969-298.863281 23.285156-23.289063 52.902344-37.578125 85.648437-41.324219 4.113282-.472656 7.066407-4.1875 6.597657-8.304687-.46875-4.117188-4.1875-7.070313-8.304688-6.5976568zm0 0" fill="#3e2807" fill-opacity="1" data-original-color="#000000ff" stroke="none" stroke-opacity="1"/><path d="m256.71875 74.730469c-12.472656 14.152343-128.5 181.921875-139.417969 197.675781-32.328125 46.632812-62.871093 90.691406-66.320312 94.742188-25.238281 25.359374-26.351563 67.367187-.089844 93.632812 26.757813 26.753906 71.042969 25.707031 96.367187-3.335938 28.152344-20.53125 198.863282-137.523437 265.578126-185.753906 10.792968-5.769531 20.929687-13.195312 30.023437-22.285156 50.246094-50.253906 49.367187-131.765625-.066406-181.195312-56.253907-56.253907-146.042969-44.550782-186.074219 6.519531zm-119.796875 371.734375c-1.945313 1.449218-3.089844 2.367187-3.5625 2.835937-19.757813 19.757813-51.902344 19.757813-71.660156 0-19.367188-19.367187-20.085938-51.304687-.199219-71.191406 19.867188-19.867187 52.195312-19.867187 72.0625 0 18.675781 18.675781 19.792969 48.355469 3.359375 68.355469zm24.886719-17.683594c4.828125-21.363281-1.039063-44.679688-17.636719-61.277344-16.953125-16.953125-40.914063-22.722656-62.644531-17.324218 32.078125-45.855469 97.792968-141.347657 144.453125-207.476563-4.871094 37.925781 7.214843 77.636719 36.285156 106.703125 28.320313 28.320312 67.011719 40.761719 104.6875 36.527344-65.601563 46.253906-159.074219 110.625-205.144531 142.847656zm105.996094-343.9375c21.667968-24.703125 52.417968-38.378906 84.757812-38.378906 28.855469 0 57.71875 10.988281 79.6875 32.953125 43.925781 43.925781 43.753906 114.960937-.0625 158.777343-2.582031 2.582032-12.59375 10.105469-27.335938 20.753907-42.5 22.226562-96.316406 15.511719-131.976562-20.152344-37.90625-37.90625-43.109375-96.316406-15.617188-139.851563 4.257813-5.824218 7.820313-10.59375 10.546876-14.101562zm0 0" fill="#3e2807" fill-opacity="1" data-original-color="#000000ff" stroke="none" stroke-opacity="1"/><path d="m352.5625 225.035156c29.398438 0 54.890625-19.300781 63.171875-46.945312 1.191406-3.96875-1.0625-8.148438-5.03125-9.339844-3.964844-1.1875-8.148437 1.066406-9.335937 5.035156-10.96875 36.605469-57.433594 48.761719-84.835938 21.355469-19.871094-19.867187-19.871094-52.195313 0-72.0625 26.742188-26.746094 72.664062-15.964844 84.457031 20.183594 1.28125 3.9375 5.511719 6.085937 9.453125 4.804687 3.941406-1.285156 6.089844-5.519531 4.804688-9.457031-15.246094-46.746094-74.667969-60.796875-109.324219-26.140625-41.421875 41.421875-11.964844 112.566406 46.640625 112.566406zm0 0" fill="#3e2807" fill-opacity="1" data-original-color="#000000ff" stroke="none" stroke-opacity="1"/></g></svg>