<svg height="300" viewBox="0 -20 512 512" width="300" xmlns="http://www.w3.org/2000/svg" version="1.1" xmlns:xlink="http://www.w3.org/1999/xlink" xmlns:svgjs="http://svgjs.dev/svgjs"><g transform="matrix(1,0,0,1,0,0)"><path d="m440 472h-160c-13.230469 0-24-10.769531-24-24v-96c0-2.207031 1.792969-4 4-4s4 1.792969 4 4v96c0 8.824219 7.175781 16 16 16h160c8.824219 0 16-7.175781 16-16v-43.199219c0-2.207031 1.792969-4 4-4s4 1.792969 4 4v43.199219c0 13.230469-10.769531 24-24 24zm0 0" fill="#3e2807" fill-opacity="1" data-original-color="#263238ff" stroke="none" stroke-opacity="1"/><path d="m212 440c-116.894531 0-212-95.105469-212-212s95.105469-212 212-212 212 95.105469 212 212-95.105469 212-212 212zm0-416c-112.488281 0-204 91.511719-204 204s91.511719 204 204 204 204-91.511719 204-204-91.511719-204-204-204zm0 0" fill="#3e2807" fill-opacity="1" data-original-color="#263238ff" stroke="none" stroke-opacity="1"/><path d="m212 360c-72.785156 0-132-59.214844-132-132s59.214844-132 132-132 132 59.214844 132 132-59.214844 132-132 132zm0-256c-68.375 0-124 55.625-124 124s55.625 124 124 124 124-55.625 124-124-55.625-124-124-124zm0 0" fill="#3e2807" fill-opacity="1" data-original-color="#263238ff" stroke="none" stroke-opacity="1"/><path d="m212 376c-81.609375 0-148-66.390625-148-148s66.390625-148 148-148 148 66.390625 148 148-66.390625 148-148 148zm0-288c-77.191406 0-140 62.808594-140 140s62.808594 140 140 140 140-62.808594 140-140-62.808594-140-140-140zm0 0" fill="#3e2807" fill-opacity="1" data-original-color="#263238ff" stroke="none" stroke-opacity="1"/><path d="m317.34375 265.726562-42.695312-24.648437c.878906-4.222656 1.351562-8.597656 1.351562-13.078125s-.472656-8.855469-1.34375-13.078125l42.695312-24.648437c-4.582031-12.785157-11.34375-24.511719-19.96875-34.664063l-42.796874 24.710937c-6.488282-5.800781-14.128907-10.304687-22.585938-13.089843v-49.351563c-6.503906-1.167968-13.160156-1.878906-20-1.878906s-13.503906.710938-20 1.878906v49.351563c-8.457031 2.785156-16.097656 7.289062-22.585938 13.089843l-42.796874-24.710937c-8.617188 10.152344-15.386719 21.878906-19.96875 34.664063l42.695312 24.648437c-.871094 4.222656-1.34375 8.597656-1.34375 13.078125s.472656 8.855469 1.34375 13.078125l-42.695312 24.648437c4.582031 12.785157 11.34375 24.511719 19.960937 34.664063l42.796875-24.710937c6.488281 5.800781 14.136719 10.304687 22.585938 13.089843v49.351563c6.503906 1.167968 13.167968 1.878906 20.007812 1.878906s13.496094-.710938 20-1.878906v-49.351563c8.457031-2.785156 16.097656-7.289062 22.585938-13.089843l42.796874 24.710937c8.617188-10.152344 15.386719-21.878906 19.960938-34.664063zm-105.34375-5.726562c-17.671875 0-32-14.328125-32-32s14.328125-32 32-32 32 14.328125 32 32-14.328125 32-32 32zm0 0" fill="#e3a547" fill-opacity="1" data-original-color="#ffd740ff" stroke="none" stroke-opacity="1"/><g fill="#263238"><path d="m232 342.121094c-2.207031 0-4-1.792969-4-4v-49.34375c0-1.730469 1.113281-3.257813 2.753906-3.800782 7.820313-2.570312 14.941406-6.695312 21.167969-12.273437 1.292969-1.152344 3.175781-1.335937 4.664063-.488281l42.796874 24.714844c1.914063 1.101562 2.570313 3.550781 1.464844 5.460937-1.113281 1.90625-3.558594 2.5625-5.464844 1.464844l-40.34375-23.296875c-5.75 4.738281-12.136718 8.441406-19.039062 11.042968v46.519532c0 2.207031-1.792969 4-4 4zm-40 0c-2.207031 0-4-1.792969-4-4v-46.519532c-6.902344-2.601562-13.289062-6.304687-19.039062-11.042968l-40.34375 23.296875c-1.914063 1.097656-4.359376.457031-5.464844-1.464844-1.105469-1.910156-.449219-4.359375 1.464844-5.460937l42.796874-24.714844c1.496094-.855469 3.378907-.664063 4.664063.488281 6.226563 5.570313 13.347656 9.695313 21.167969 12.273437 1.640625.542969 2.753906 2.070313 2.753906 3.800782v49.34375c0 2.207031-1.792969 4-4 4zm125.34375-72.394532c-.679688 0-1.367188-.167968-2-.535156l-42.695312-24.648437c-1.496094-.863281-2.273438-2.589844-1.921876-4.277344.847657-4.035156 1.273438-8.152344 1.273438-12.265625s-.425781-8.230469-1.265625-12.265625c-.351563-1.6875.425781-3.414063 1.921875-4.277344l42.695312-24.648437c1.90625-1.113282 4.359376-.457032 5.464844 1.464844 1.105469 1.910156.449219 4.359374-1.464844 5.460937l-40.246093 23.234375c.589843 3.648438.894531 7.351562.894531 11.03125s-.304688 7.382812-.894531 11.023438l40.246093 23.234374c1.914063 1.101563 2.570313 3.550782 1.464844 5.460938-.746094 1.289062-2.089844 2.007812-3.472656 2.007812zm-210.6875 0c-1.382812 0-2.726562-.710937-3.472656-2-1.105469-1.910156-.449219-4.359374 1.464844-5.460937l40.246093-23.234375c-.589843-3.648438-.894531-7.351562-.894531-11.03125s.304688-7.382812.894531-11.023438l-40.246093-23.234374c-1.914063-1.101563-2.570313-3.550782-1.464844-5.460938 1.105468-1.914062 3.542968-2.578125 5.464844-1.464844l42.695312 24.648438c1.496094.863281 2.273438 2.589844 1.921875 4.277344-.839844 4.027343-1.265625 8.144531-1.265625 12.257812s.425781 8.230469 1.265625 12.265625c.351563 1.6875-.425781 3.414063-1.921875 4.277344l-42.695312 24.648437c-.625.359375-1.3125.535156-1.992188.535156zm105.34375-5.726562c-19.847656 0-36-16.152344-36-36s16.152344-36 36-36 36 16.152344 36 36-16.152344 36-36 36zm0-64c-15.441406 0-28 12.558594-28 28s12.558594 28 28 28 28-12.558594 28-28-12.558594-28-28-28zm42.585938-15.679688c-.960938 0-1.914063-.34375-2.664063-1.015624-6.234375-5.570313-13.363281-9.695313-21.167969-12.273438-1.640625-.542969-2.753906-2.070312-2.753906-3.800781v-49.351563c0-2.207031 1.792969-4 4-4s4 1.792969 4 4v46.519532c6.894531 2.601562 13.28125 6.304687 19.039062 11.035156l40.34375-23.296875c1.90625-1.105469 4.351563-.457031 5.464844 1.464843 1.105469 1.910157.449219 4.359376-1.464844 5.460938l-42.796874 24.714844c-.617188.367187-1.3125.542968-2 .542968zm-85.171876 0c-.6875 0-1.375-.175781-2-.535156l-42.796874-24.714844c-1.914063-1.101562-2.570313-3.550781-1.464844-5.460937 1.105468-1.914063 3.550781-2.570313 5.464844-1.464844l40.34375 23.296875c5.757812-4.738281 12.144531-8.433594 19.039062-11.035156v-46.519531c0-2.207031 1.792969-4 4-4s4 1.792969 4 4v49.351562c0 1.730469-1.113281 3.257813-2.753906 3.800781-7.8125 2.570313-14.933594 6.695313-21.167969 12.273438-.75.664062-1.703125 1.007812-2.664063 1.007812zm0 0" fill="#3e2807" fill-opacity="1" data-original-color="#263238ff" stroke="none" stroke-opacity="1"/><path d="m212 40c-2.207031 0-4-1.792969-4-4v-16c0-2.207031 1.792969-4 4-4s4 1.792969 4 4v16c0 2.207031-1.792969 4-4 4zm0 0" fill="#3e2807" fill-opacity="1" data-original-color="#263238ff" stroke="none" stroke-opacity="1"/><path d="m212 440c-2.207031 0-4-1.792969-4-4v-16c0-2.207031 1.792969-4 4-4s4 1.792969 4 4v16c0 2.207031-1.792969 4-4 4zm0 0" fill="#3e2807" fill-opacity="1" data-original-color="#263238ff" stroke="none" stroke-opacity="1"/><path d="m420 232h-16c-2.207031 0-4-1.792969-4-4s1.792969-4 4-4h16c2.207031 0 4 1.792969 4 4s-1.792969 4-4 4zm0 0" fill="#3e2807" fill-opacity="1" data-original-color="#263238ff" stroke="none" stroke-opacity="1"/><path d="m20 232h-16c-2.207031 0-4-1.792969-4-4s1.792969-4 4-4h16c2.207031 0 4 1.792969 4 4s-1.792969 4-4 4zm0 0" fill="#3e2807" fill-opacity="1" data-original-color="#263238ff" stroke="none" stroke-opacity="1"/><path d="m347.769531 96.230469c-1.027343 0-2.050781-.390625-2.832031-1.167969-1.5625-1.558594-1.5625-4.09375 0-5.65625l11.308594-11.308594c1.5625-1.5625 4.097656-1.5625 5.65625 0 1.5625 1.558594 1.5625 4.09375 0 5.65625l-11.308594 11.308594c-.777344.777344-1.800781 1.167969-2.824219 1.167969zm0 0" fill="#3e2807" fill-opacity="1" data-original-color="#263238ff" stroke="none" stroke-opacity="1"/><path d="m64.921875 379.078125c-1.027344 0-2.050781-.390625-2.832031-1.167969-1.5625-1.558594-1.5625-4.09375 0-5.652344l11.308594-11.3125c1.5625-1.5625 4.097656-1.5625 5.65625 0 1.5625 1.558594 1.5625 4.09375 0 5.65625l-11.3125 11.308594c-.773438.777344-1.796876 1.167969-2.820313 1.167969zm0 0" fill="#3e2807" fill-opacity="1" data-original-color="#263238ff" stroke="none" stroke-opacity="1"/><path d="m359.078125 379.078125c-1.023437 0-2.046875-.390625-2.832031-1.167969l-11.308594-11.308594c-1.5625-1.5625-1.5625-4.097656 0-5.65625 1.558594-1.5625 4.09375-1.5625 5.65625 0l11.308594 11.3125c1.5625 1.558594 1.5625 4.09375 0 5.652344-.773438.777344-1.796875 1.167969-2.824219 1.167969zm0 0" fill="#3e2807" fill-opacity="1" data-original-color="#263238ff" stroke="none" stroke-opacity="1"/><path d="m76.230469 96.230469c-1.023438 0-2.046875-.390625-2.832031-1.167969l-11.308594-11.308594c-1.5625-1.5625-1.5625-4.097656 0-5.65625 1.558594-1.5625 4.09375-1.5625 5.652344 0l11.3125 11.308594c1.5625 1.5625 1.5625 4.097656 0 5.65625-.773438.777344-1.796876 1.167969-2.824219 1.167969zm0 0" fill="#3e2807" fill-opacity="1" data-original-color="#263238ff" stroke="none" stroke-opacity="1"/><path d="m285.480469 54.617188c-.511719 0-1.03125-.097657-1.527344-.304688-2.042969-.839844-3.007813-3.183594-2.167969-5.222656l6.117188-14.785156c.839844-2.039063 3.203125-3 5.226562-2.167969 2.039063.839843 3.007813 3.183593 2.167969 5.222656l-6.121094 14.785156c-.640625 1.542969-2.136719 2.472657-3.695312 2.472657zm0 0" fill="#3e2807" fill-opacity="1" data-original-color="#263238ff" stroke="none" stroke-opacity="1"/><path d="m132.398438 424.167969c-.511719 0-1.03125-.097657-1.527344-.304688-2.039063-.839843-3.007813-3.183593-2.167969-5.222656l6.121094-14.785156c.839843-2.039063 3.191406-3 5.222656-2.167969 2.042969.839844 3.007813 3.183594 2.167969 5.222656l-6.117188 14.785156c-.632812 1.542969-2.128906 2.472657-3.699218 2.472657zm0 0" fill="#3e2807" fill-opacity="1" data-original-color="#263238ff" stroke="none" stroke-opacity="1"/><path d="m404.167969 311.601562c-.511719 0-1.03125-.097656-1.527344-.304687l-14.785156-6.121094c-2.039063-.839843-3.007813-3.183593-2.167969-5.222656.847656-2.042969 3.191406-3.007813 5.222656-2.167969l14.785156 6.117188c2.039063.839844 3.007813 3.1875 2.167969 5.226562-.640625 1.535156-2.128906 2.472656-3.695312 2.472656zm0 0" fill="#3e2807" fill-opacity="1" data-original-color="#263238ff" stroke="none" stroke-opacity="1"/><path d="m34.617188 158.519531c-.511719 0-1.03125-.09375-1.527344-.304687l-14.785156-6.117188c-2.039063-.839844-3.007813-3.1875-2.167969-5.226562.839843-2.046875 3.191406-3 5.222656-2.167969l14.785156 6.121094c2.039063.839843 3.007813 3.183593 2.167969 5.222656-.640625 1.546875-2.136719 2.472656-3.695312 2.472656zm0 0" fill="#3e2807" fill-opacity="1" data-original-color="#263238ff" stroke="none" stroke-opacity="1"/><path d="m138.519531 54.617188c-1.566406 0-3.054687-.929688-3.695312-2.472657l-6.121094-14.785156c-.839844-2.039063.128906-4.382813 2.167969-5.222656 2.03125-.832031 4.386718.121093 5.226562 2.167969l6.117188 14.785156c.839844 2.039062-.125 4.382812-2.167969 5.222656-.496094.207031-1.015625.304688-1.527344.304688zm0 0" fill="#3e2807" fill-opacity="1" data-original-color="#263238ff" stroke="none" stroke-opacity="1"/><path d="m291.601562 424.167969c-1.570312 0-3.058593-.929688-3.699218-2.472657l-6.117188-14.785156c-.839844-2.039062.125-4.382812 2.167969-5.222656 2.039063-.832031 4.382813.121094 5.222656 2.167969l6.121094 14.785156c.839844 2.039063-.128906 4.382813-2.167969 5.222656-.496094.207031-1.015625.304688-1.527344.304688zm0 0" fill="#3e2807" fill-opacity="1" data-original-color="#263238ff" stroke="none" stroke-opacity="1"/><path d="m389.382812 158.519531c-1.566406 0-3.054687-.925781-3.695312-2.472656-.839844-2.039063.128906-4.382813 2.167969-5.222656l14.785156-6.121094c2.039063-.832031 4.382813.128906 5.222656 2.167969.839844 2.039062-.128906 4.386718-2.167969 5.226562l-14.785156 6.117188c-.496094.210937-1.015625.304687-1.527344.304687zm0 0" fill="#3e2807" fill-opacity="1" data-original-color="#263238ff" stroke="none" stroke-opacity="1"/><path d="m19.832031 311.601562c-1.566406 0-3.054687-.929687-3.695312-2.472656-.839844-2.039062.128906-4.386718 2.167969-5.226562l14.785156-6.117188c2.03125-.839844 4.382812.117188 5.222656 2.167969.839844 2.046875-.128906 4.382813-2.167969 5.222656l-14.785156 6.121094c-.496094.207031-1.015625.304687-1.527344.304687zm0 0" fill="#3e2807" fill-opacity="1" data-original-color="#263238ff" stroke="none" stroke-opacity="1"/><path d="m480 408.800781h-40c-2.207031 0-4-1.792969-4-4v-32c0-2.207031 1.792969-4 4-4h40c2.207031 0 4 1.792969 4 4v32c0 2.207031-1.792969 4-4 4zm-36-8h32v-24h-32zm0 0" fill="#3e2807" fill-opacity="1" data-original-color="#263238ff" stroke="none" stroke-opacity="1"/></g><path d="m508 336.792969c0 26.507812-21.492188 48-48 48s-48-21.492188-48-48c0-26.511719 21.492188-48 48-48s48 21.488281 48 48zm0 0" fill="#ffd493" fill-opacity="1" data-original-color="#40c4ffff" stroke="none" stroke-opacity="1"/><path d="m460 388.800781c-28.671875 0-52-23.328125-52-52s23.328125-52 52-52 52 23.328125 52 52-23.328125 52-52 52zm0-96c-24.265625 0-44 19.734375-44 44 0 24.261719 19.734375 44 44 44s44-19.738281 44-44c0-24.265625-19.734375-44-44-44zm0 0" fill="#3e2807" fill-opacity="1" data-original-color="#263238ff" stroke="none" stroke-opacity="1"/><path d="m460 340.800781c-2.207031 0-4-1.792969-4-4v-28c0-2.207031 1.792969-4 4-4s4 1.792969 4 4v28c0 2.207031-1.792969 4-4 4zm0 0" fill="#3e2807" fill-opacity="1" data-original-color="#263238ff" stroke="none" stroke-opacity="1"/><path d="m376 32h-8c-2.207031 0-4-1.792969-4-4s1.792969-4 4-4h8c2.207031 0 4 1.792969 4 4s-1.792969 4-4 4zm0 0" fill="#3e2807" fill-opacity="1" data-original-color="#263238ff" stroke="none" stroke-opacity="1"/><path d="m472 32h-80c-2.207031 0-4-1.792969-4-4s1.792969-4 4-4h80c2.207031 0 4 1.792969 4 4s-1.792969 4-4 4zm0 0" fill="#3e2807" fill-opacity="1" data-original-color="#263238ff" stroke="none" stroke-opacity="1"/><path d="m496 8h-80c-2.207031 0-4-1.792969-4-4s1.792969-4 4-4h80c2.207031 0 4 1.792969 4 4s-1.792969 4-4 4zm0 0" fill="#3e2807" fill-opacity="1" data-original-color="#263238ff" stroke="none" stroke-opacity="1"/></g></svg>