<svg height="300" viewBox="0 -120 512.00015 512" width="300" xmlns="http://www.w3.org/2000/svg" version="1.1" xmlns:xlink="http://www.w3.org/1999/xlink" xmlns:svgjs="http://svgjs.dev/svgjs"><g transform="matrix(1,0,0,1,0,0)"><g fill="#263238"><path d="m84 272h-40c-24.257812 0-44-19.734375-44-44v-184c0-24.265625 19.742188-44 44-44h40c24.257812 0 44 19.734375 44 44v184c0 24.265625-19.742188 44-44 44zm-40-264c-19.847656 0-36 16.152344-36 36v184c0 19.847656 16.152344 36 36 36h40c19.847656 0 36-16.152344 36-36v-184c0-19.847656-16.152344-36-36-36zm0 0" fill="#3e2807" fill-opacity="1" data-original-color="#263238ff" stroke="none" stroke-opacity="1"/><path d="m54 256c-2.207031 0-4-1.792969-4-4v-232c0-2.207031 1.792969-4 4-4s4 1.792969 4 4v232c0 2.207031-1.792969 4-4 4zm0 0" fill="#3e2807" fill-opacity="1" data-original-color="#263238ff" stroke="none" stroke-opacity="1"/><path d="m74 256c-2.207031 0-4-1.792969-4-4v-232c0-2.207031 1.792969-4 4-4s4 1.792969 4 4v232c0 2.207031-1.792969 4-4 4zm0 0" fill="#3e2807" fill-opacity="1" data-original-color="#263238ff" stroke="none" stroke-opacity="1"/><path d="m4 64c-1.503906 0-2.9375-.847656-3.617188-2.296875-.941406-2-.085937-4.382813 1.914063-5.328125l34-16c1.984375-.933594 4.382813-.078125 5.320313 1.921875.941406 2 .085937 4.382813-1.914063 5.328125l-34 16c-.542969.253906-1.136719.375-1.703125.375zm0 0" fill="#3e2807" fill-opacity="1" data-original-color="#263238ff" stroke="none" stroke-opacity="1"/><path d="m4 120c-1.503906 0-2.9375-.847656-3.617188-2.296875-.941406-2-.085937-4.382813 1.914063-5.328125l34-16c1.984375-.933594 4.382813-.078125 5.320313 1.921875.941406 2 .085937 4.382813-1.914063 5.328125l-34 16c-.542969.253906-1.136719.375-1.703125.375zm0 0" fill="#3e2807" fill-opacity="1" data-original-color="#263238ff" stroke="none" stroke-opacity="1"/><path d="m4 176c-1.503906 0-2.9375-.847656-3.617188-2.296875-.941406-2-.085937-4.382813 1.914063-5.328125l34-16c1.984375-.933594 4.382813-.085938 5.320313 1.921875.941406 2 .085937 4.382813-1.914063 5.328125l-34 16c-.542969.253906-1.136719.375-1.703125.375zm0 0" fill="#3e2807" fill-opacity="1" data-original-color="#263238ff" stroke="none" stroke-opacity="1"/><path d="m4 232c-1.503906 0-2.9375-.847656-3.617188-2.296875-.941406-2-.085937-4.382813 1.914063-5.328125l34-16c1.984375-.933594 4.382813-.078125 5.320313 1.921875.941406 2 .085937 4.382813-1.914063 5.328125l-34 16c-.542969.253906-1.136719.375-1.703125.375zm0 0" fill="#3e2807" fill-opacity="1" data-original-color="#263238ff" stroke="none" stroke-opacity="1"/><path d="m124 64c-.566406 0-1.160156-.121094-1.703125-.375l-34-16c-2-.945312-2.855469-3.328125-1.914063-5.328125.9375-2 3.328126-2.847656 5.320313-1.921875l34 16c2 .945312 2.855469 3.328125 1.914063 5.328125-.679688 1.449219-2.121094 2.296875-3.617188 2.296875zm0 0" fill="#3e2807" fill-opacity="1" data-original-color="#263238ff" stroke="none" stroke-opacity="1"/><path d="m124 120c-.566406 0-1.160156-.121094-1.703125-.375l-34-16c-2-.945312-2.855469-3.328125-1.914063-5.328125.9375-2 3.328126-2.847656 5.320313-1.921875l34 16c2 .945312 2.855469 3.328125 1.914063 5.328125-.679688 1.449219-2.121094 2.296875-3.617188 2.296875zm0 0" fill="#3e2807" fill-opacity="1" data-original-color="#263238ff" stroke="none" stroke-opacity="1"/><path d="m124 176c-.566406 0-1.160156-.121094-1.703125-.375l-34-16c-2-.945312-2.855469-3.328125-1.914063-5.328125.9375-2 3.328126-2.855469 5.320313-1.921875l34 16c2 .945312 2.855469 3.328125 1.914063 5.328125-.679688 1.449219-2.121094 2.296875-3.617188 2.296875zm0 0" fill="#3e2807" fill-opacity="1" data-original-color="#263238ff" stroke="none" stroke-opacity="1"/><path d="m124 232c-.566406 0-1.160156-.121094-1.703125-.375l-34-16c-2-.945312-2.855469-3.328125-1.914063-5.328125.9375-2 3.328126-2.855469 5.320313-1.921875l34 16c2 .945312 2.855469 3.328125 1.914063 5.328125-.679688 1.449219-2.121094 2.296875-3.617188 2.296875zm0 0" fill="#3e2807" fill-opacity="1" data-original-color="#263238ff" stroke="none" stroke-opacity="1"/><path d="m438 256c-2.207031 0-4-1.792969-4-4v-232c0-2.207031 1.792969-4 4-4s4 1.792969 4 4v232c0 2.207031-1.792969 4-4 4zm0 0" fill="#3e2807" fill-opacity="1" data-original-color="#263238ff" stroke="none" stroke-opacity="1"/><path d="m458 256c-2.207031 0-4-1.792969-4-4v-232c0-2.207031 1.792969-4 4-4s4 1.792969 4 4v232c0 2.207031-1.792969 4-4 4zm0 0" fill="#3e2807" fill-opacity="1" data-original-color="#263238ff" stroke="none" stroke-opacity="1"/><path d="m388 64c-1.503906 0-2.9375-.847656-3.617188-2.296875-.941406-2-.085937-4.382813 1.914063-5.328125l34-16c1.984375-.933594 4.382813-.078125 5.320313 1.921875.941406 2 .085937 4.382813-1.914063 5.328125l-34 16c-.542969.253906-1.136719.375-1.703125.375zm0 0" fill="#3e2807" fill-opacity="1" data-original-color="#263238ff" stroke="none" stroke-opacity="1"/><path d="m388 120c-1.503906 0-2.9375-.847656-3.617188-2.296875-.941406-2-.085937-4.382813 1.914063-5.328125l34-16c1.984375-.933594 4.382813-.078125 5.320313 1.921875.941406 2 .085937 4.382813-1.914063 5.328125l-34 16c-.542969.253906-1.136719.375-1.703125.375zm0 0" fill="#3e2807" fill-opacity="1" data-original-color="#263238ff" stroke="none" stroke-opacity="1"/><path d="m388 176c-1.503906 0-2.9375-.847656-3.617188-2.296875-.941406-2-.085937-4.382813 1.914063-5.328125l34-16c1.984375-.933594 4.382813-.085938 5.320313 1.921875.941406 2 .085937 4.382813-1.914063 5.328125l-34 16c-.542969.253906-1.136719.375-1.703125.375zm0 0" fill="#3e2807" fill-opacity="1" data-original-color="#263238ff" stroke="none" stroke-opacity="1"/><path d="m388 232c-1.503906 0-2.9375-.847656-3.617188-2.296875-.941406-2-.085937-4.382813 1.914063-5.328125l34-16c1.984375-.933594 4.382813-.078125 5.320313 1.921875.941406 2 .085937 4.382813-1.914063 5.328125l-34 16c-.542969.253906-1.136719.375-1.703125.375zm0 0" fill="#3e2807" fill-opacity="1" data-original-color="#263238ff" stroke="none" stroke-opacity="1"/><path d="m508 64c-.566406 0-1.160156-.121094-1.703125-.375l-34-16c-2-.945312-2.855469-3.328125-1.914063-5.328125.9375-2 3.328126-2.847656 5.320313-1.921875l34 16c2 .945312 2.855469 3.328125 1.914063 5.328125-.679688 1.449219-2.121094 2.296875-3.617188 2.296875zm0 0" fill="#3e2807" fill-opacity="1" data-original-color="#263238ff" stroke="none" stroke-opacity="1"/><path d="m508 120c-.566406 0-1.160156-.121094-1.703125-.375l-34-16c-2-.945312-2.855469-3.328125-1.914063-5.328125.9375-2 3.328126-2.847656 5.320313-1.921875l34 16c2 .945312 2.855469 3.328125 1.914063 5.328125-.679688 1.449219-2.121094 2.296875-3.617188 2.296875zm0 0" fill="#3e2807" fill-opacity="1" data-original-color="#263238ff" stroke="none" stroke-opacity="1"/><path d="m508 176c-.566406 0-1.160156-.121094-1.703125-.375l-34-16c-2-.945312-2.855469-3.328125-1.914063-5.328125.9375-2 3.328126-2.855469 5.320313-1.921875l34 16c2 .945312 2.855469 3.328125 1.914063 5.328125-.679688 1.449219-2.121094 2.296875-3.617188 2.296875zm0 0" fill="#3e2807" fill-opacity="1" data-original-color="#263238ff" stroke="none" stroke-opacity="1"/><path d="m508 232c-.566406 0-1.160156-.121094-1.703125-.375l-34-16c-2-.945312-2.855469-3.328125-1.914063-5.328125.9375-2 3.328126-2.855469 5.320313-1.921875l34 16c2 .945312 2.855469 3.328125 1.914063 5.328125-.679688 1.449219-2.121094 2.296875-3.617188 2.296875zm0 0" fill="#3e2807" fill-opacity="1" data-original-color="#263238ff" stroke="none" stroke-opacity="1"/><path d="m272 172h-32c-6.617188 0-12-5.382812-12-12v-48c0-6.617188 5.382812-12 12-12h32c6.617188 0 12 5.382812 12 12v48c0 6.617188-5.382812 12-12 12zm-32-64c-2.199219 0-4 1.792969-4 4v48c0 2.207031 1.800781 4 4 4h32c2.199219 0 4-1.792969 4-4v-48c0-2.207031-1.800781-4-4-4zm0 0" fill="#3e2807" fill-opacity="1" data-original-color="#263238ff" stroke="none" stroke-opacity="1"/></g><path d="m140 120h76v32h-76zm0 0" fill="#e3a547" fill-opacity="1" data-original-color="#ffd740ff" stroke="none" stroke-opacity="1"/><path d="m296 120h76v32h-76zm0 0" fill="#e3a547" fill-opacity="1" data-original-color="#ffd740ff" stroke="none" stroke-opacity="1"/><path d="m216 156h-76c-2.207031 0-4-1.792969-4-4s1.792969-4 4-4h76c2.207031 0 4 1.792969 4 4s-1.792969 4-4 4zm0 0" fill="#3e2807" fill-opacity="1" data-original-color="#263238ff" stroke="none" stroke-opacity="1"/><path d="m216 124h-76c-2.207031 0-4-1.792969-4-4s1.792969-4 4-4h76c2.207031 0 4 1.792969 4 4s-1.792969 4-4 4zm0 0" fill="#3e2807" fill-opacity="1" data-original-color="#263238ff" stroke="none" stroke-opacity="1"/><path d="m372 124h-76c-2.207031 0-4-1.792969-4-4s1.792969-4 4-4h76c2.207031 0 4 1.792969 4 4s-1.792969 4-4 4zm0 0" fill="#3e2807" fill-opacity="1" data-original-color="#263238ff" stroke="none" stroke-opacity="1"/><path d="m372 156h-76c-2.207031 0-4-1.792969-4-4s1.792969-4 4-4h76c2.207031 0 4 1.792969 4 4s-1.792969 4-4 4zm0 0" fill="#3e2807" fill-opacity="1" data-original-color="#263238ff" stroke="none" stroke-opacity="1"/><path d="m256 142c-2.207031 0-4-1.792969-4-4v-34c0-2.207031 1.792969-4 4-4s4 1.792969 4 4v34c0 2.207031-1.792969 4-4 4zm0 0" fill="#3e2807" fill-opacity="1" data-original-color="#263238ff" stroke="none" stroke-opacity="1"/><path d="m230 8h-8c-2.207031 0-4-1.792969-4-4s1.792969-4 4-4h8c2.207031 0 4 1.792969 4 4s-1.792969 4-4 4zm0 0" fill="#3e2807" fill-opacity="1" data-original-color="#263238ff" stroke="none" stroke-opacity="1"/><path d="m342 8h-96c-2.207031 0-4-1.792969-4-4s1.792969-4 4-4h96c2.207031 0 4 1.792969 4 4s-1.792969 4-4 4zm0 0" fill="#3e2807" fill-opacity="1" data-original-color="#263238ff" stroke="none" stroke-opacity="1"/><path d="m290 32h-8c-2.207031 0-4-1.792969-4-4s1.792969-4 4-4h8c2.207031 0 4 1.792969 4 4s-1.792969 4-4 4zm0 0" fill="#3e2807" fill-opacity="1" data-original-color="#263238ff" stroke="none" stroke-opacity="1"/><path d="m266 32h-96c-2.207031 0-4-1.792969-4-4s1.792969-4 4-4h96c2.207031 0 4 1.792969 4 4s-1.792969 4-4 4zm0 0" fill="#3e2807" fill-opacity="1" data-original-color="#263238ff" stroke="none" stroke-opacity="1"/><path d="m468 272h-40c-24.257812 0-44-19.734375-44-44v-184c0-24.265625 19.742188-44 44-44h40c24.257812 0 44 19.734375 44 44v184c0 24.265625-19.742188 44-44 44zm-40-264c-19.847656 0-36 16.152344-36 36v184c0 19.847656 16.152344 36 36 36h40c19.847656 0 36-16.152344 36-36v-184c0-19.847656-16.152344-36-36-36zm0 0" fill="#3e2807" fill-opacity="1" data-original-color="#263238ff" stroke="none" stroke-opacity="1"/><path d="m290 248h-8c-2.207031 0-4-1.792969-4-4s1.792969-4 4-4h8c2.207031 0 4 1.792969 4 4s-1.792969 4-4 4zm0 0" fill="#3e2807" fill-opacity="1" data-original-color="#263238ff" stroke="none" stroke-opacity="1"/><path d="m266 248h-96c-2.207031 0-4-1.792969-4-4s1.792969-4 4-4h96c2.207031 0 4 1.792969 4 4s-1.792969 4-4 4zm0 0" fill="#3e2807" fill-opacity="1" data-original-color="#263238ff" stroke="none" stroke-opacity="1"/><path d="m230 272h-8c-2.207031 0-4-1.792969-4-4s1.792969-4 4-4h8c2.207031 0 4 1.792969 4 4s-1.792969 4-4 4zm0 0" fill="#3e2807" fill-opacity="1" data-original-color="#263238ff" stroke="none" stroke-opacity="1"/><path d="m342 272h-96c-2.207031 0-4-1.792969-4-4s1.792969-4 4-4h96c2.207031 0 4 1.792969 4 4s-1.792969 4-4 4zm0 0" fill="#3e2807" fill-opacity="1" data-original-color="#263238ff" stroke="none" stroke-opacity="1"/></g></svg>