<svg height="300" viewBox="0 -23 498.22755 498" width="300" xmlns="http://www.w3.org/2000/svg" version="1.1" xmlns:xlink="http://www.w3.org/1999/xlink" xmlns:svgjs="http://svgjs.dev/svgjs"><g transform="matrix(1,0,0,1,0,0)"><path d="m406.136719 162.296875c-4.6875-4.6875-12.28125-4.6875-16.96875 0l-124.449219 124.449219c-4.6875 4.6875-4.6875 12.289062 0 16.96875 2.34375 2.34375 5.417969 3.511718 8.488281 3.511718 3.074219 0 6.144531-1.167968 8.488281-3.511718l124.449219-124.457032c4.679688-4.679687 4.679688-12.28125-.007812-16.960937zm0 0" fill="#ffd740" fill-opacity="1" data-original-color="#ffd740ff" stroke="none" stroke-opacity="1"/><path d="m408.960938 159.464844c-6.234376-6.238282-16.394532-6.238282-22.625 0l-124.441407 124.449218c-3.023437 3.023438-4.6875 7.039063-4.6875 11.3125 0 4.277344 1.664063 8.296876 4.6875 11.3125 3.027344 3.023438 7.042969 4.6875 11.3125 4.6875 4.273438 0 8.289063-1.664062 11.3125-4.6875l124.449219-124.457031c3.023438-3.023437 4.6875-7.039062 4.6875-11.3125-.007812-4.273437-1.671875-8.289062-4.695312-11.304687zm-5.65625 16.96875-124.441407 124.457031c-3.03125 3.023437-8.277343 3.023437-11.3125 0-1.511719-1.511719-2.34375-3.519531-2.34375-5.65625s.832031-4.144531 2.34375-5.65625l124.441407-124.457031c1.511718-1.511719 3.519531-2.34375 5.65625-2.34375 2.136718 0 4.144531.832031 5.65625 2.34375 1.503906 1.511718 2.34375 3.519531 2.34375 5.65625 0 2.136718-.832032 4.144531-2.34375 5.65625zm0 0" fill="#263238" fill-opacity="1" data-original-color="#263238ff" stroke="none" stroke-opacity="1"/><path d="m350.535156 210.304688c-6.277344-2.125-13.078125 1.296874-15.175781 7.585937l-27.390625 82.167969-67.3125 67.3125c-4.6875 4.679687-4.6875 12.285156 0 16.964844 2.34375 2.347656 5.414062 3.515624 8.488281 3.515624 3.070313 0 6.144531-1.167968 8.488281-3.515624l69.320313-69.316407c1.320313-1.320312 2.3125-2.921875 2.894531-4.691406l28.289063-84.847656c2.085937-6.277344-1.3125-13.078125-7.601563-15.175781zm0 0" fill="#ffd740" fill-opacity="1" data-original-color="#ffd740ff" stroke="none" stroke-opacity="1"/><path d="m361.046875 214.539062c-1.910156-3.824218-5.191406-6.671874-9.230469-8.015624-4.03125-1.371094-8.359375-1.082032-12.183594.832031-3.839843 1.910156-6.703124 5.207031-8.066406 9.277343l-27.085937 81.273438-66.648438 66.648438c-3.023437 3.015624-4.6875 7.039062-4.6875 11.3125 0 4.269531 1.664063 8.292968 4.6875 11.3125 3.023438 3.023437 7.039063 4.6875 11.3125 4.6875 4.273438 0 8.289063-1.664063 11.3125-4.6875l69.3125-69.3125c1.75-1.753907 3.085938-3.914063 3.863281-6.257813l28.289063-84.847656c1.359375-4.0625 1.039063-8.40625-.875-12.222657zm-6.71875 9.679688-28.289063 84.855469c-.390624 1.167969-1.054687 2.246093-1.925781 3.121093l-69.3125 69.320313c-3.03125 3.023437-8.28125 3.023437-11.3125 0-1.503906-1.515625-2.34375-3.523437-2.34375-5.65625 0-2.136719.832031-4.144531 2.34375-5.65625l67.3125-67.3125c.4375-.441406.777344-.976563.96875-1.5625l27.390625-82.167969c.679688-2.039062 2.113282-3.6875 4.03125-4.644531 1.113282-.554687 2.3125-.832031 3.519532-.832031.847656 0 1.722656.140625 2.554687.421875 2.03125.671875 3.671875 2.097656 4.621094 4.007812.96875 1.914063 1.121093 4.082031.441406 6.105469zm0 0" fill="#263238" fill-opacity="1" data-original-color="#263238ff" stroke="none" stroke-opacity="1"/><path d="m281.167969 374.058594c-2.039063-.183594-4.121094 1.503906-4.273438 3.703125-1.023437 14.617187-13.222656 26.054687-27.78125 26.054687-15.441406 0-28-12.558594-28-28 0-14.621094 11.503907-26.832031 26.175781-27.796875 2.199219-.144531 3.863282-2.050781 3.726563-4.257812-.152344-2.207031-2.085937-3.785157-4.253906-3.726563-18.867188 1.238282-33.648438 16.949219-33.648438 35.78125 0 19.847656 16.152344 36 36 36 18.742188 0 34.445313-14.710937 35.765625-33.496094.152344-2.199218-1.511718-4.101562-3.710937-4.261718zm0 0" fill="#263238" fill-opacity="1" data-original-color="#263238ff" stroke="none" stroke-opacity="1"/><path d="m249.113281 133.152344c-68.617187 0-133.511719 24.203125-184.945312 68.5625-8.75 7.542968-9.085938 21.046875-.917969 29.222656l85.199219 85.199219c6.941406 6.945312 18.070312 8.128906 25.878906 2.191406 20.976563-15.949219 45.929687-24.207031 71.0625-24.957031.449219-6.761719 3.1875-13.089844 8.027344-17.921875l115.742187-115.75c-37.113281-17.371094-77.863281-26.546875-120.046875-26.546875zm0 0" fill="#e3a547" fill-opacity="1" data-original-color="#40c4ffff" stroke="none" stroke-opacity="1"/><path d="m434.054688 201.714844c-5.046876-4.351563-10.261719-8.457032-15.558594-12.417969-.367188.417969-.65625.882813-1.046875 1.28125l-46.234375 46.238281-26.191406 78.585938c-.617188 1.863281-1.496094 3.640625-2.503907 5.34375 2.65625-1.007813 5.160157-2.511719 7.257813-4.609375l85.199218-85.199219c8.175782-8.175781 7.832032-21.679688-.921874-29.222656zm0 0" fill="#e3a547" fill-opacity="1" data-original-color="#40c4ffff" stroke="none" stroke-opacity="1"/><g fill="#263238"><path d="m370.855469 156.058594c-38.191407-17.847656-79.152344-26.90625-121.742188-26.90625-68.96875 0-135.578125 24.6875-187.554687 69.53125-5.039063 4.335937-7.941406 10.414062-8.183594 17.109375-.246094 6.695312 2.320312 13.242187 7.050781 17.96875l85.199219 85.191406c4.742188 4.746094 11.007812 7.175781 17.230469 7.175781 4.914062 0 9.816406-1.519531 13.898437-4.632812 19.78125-15.046875 43.550782-23.398438 68.75-24.148438 2.207032-.066406 3.945313-1.914062 3.878906-4.121094-.070312-2.199218-1.832031-3.871093-4.117187-3.878906-26.882813.804688-52.242187 9.71875-73.363281 25.78125-6.09375 4.632813-14.964844 3.832032-20.628906-1.832031l-85.203126-85.191406c-3.15625-3.160157-4.871093-7.535157-4.710937-12.015625.167969-4.449219 2.089844-8.480469 5.417969-11.351563 50.527344-43.585937 115.285156-67.585937 182.335937-67.585937 41.414063 0 81.230469 8.800781 118.351563 26.160156 1.984375.921875 4.382812.074219 5.320312-1.925781.933594-2 .070313-4.394531-1.929687-5.328125zm0 0" fill="#263238" fill-opacity="1" data-original-color="#263238ff" stroke="none" stroke-opacity="1"/><path d="m436.664062 198.683594c-4.671874-4.027344-9.832031-8.144532-15.769531-12.585938-1.765625-1.320312-4.261719-.960937-5.597656.808594-1.320313 1.765625-.960937 4.273438.808594 5.597656 5.796875 4.335938 10.816406 8.335938 15.34375 12.242188 3.328125 2.871094 5.246093 6.902344 5.414062 11.351562.167969 4.480469-1.550781 8.855469-4.710937 12.015625l-85.199219 85.199219c-1.578125 1.578125-3.546875 2.824219-5.847656 3.699219-2.066407.78125-3.105469 3.085937-2.320313 5.15625.605469 1.601562 2.136719 2.585937 3.742188 2.585937.472656 0 .953125-.082031 1.425781-.265625 3.367187-1.277343 6.285156-3.132812 8.664063-5.519531l85.199218-85.191406c4.726563-4.726563 7.296875-11.273438 7.046875-17.96875-.246093-6.710938-3.160156-12.78125-8.199219-17.125zm0 0" fill="#263238" fill-opacity="1" data-original-color="#263238ff" stroke="none" stroke-opacity="1"/><path d="m201.113281 371.824219h-177.121093c-4.617188 0-9.007813-1.992188-12.039063-5.46875-3.050781-3.480469-4.441406-8.097657-3.824219-12.671875l34.589844-256c1.074219-7.898438 7.890625-13.859375 15.859375-13.859375h7.644531c2.210938 0 4-1.789063 4-4 0-2.207031-1.789062-4-4-4h-7.628906c-11.953125 0-22.175781 8.9375-23.785156 20.785156l-34.59375 256c-.925782 6.863281 1.160156 13.800781 5.722656 19.007813 4.550781 5.214843 11.144531 8.199218 18.0625 8.199218h177.113281c2.207031 0 4-1.789062 4-4 0-2.207031-1.792969-3.992187-4-3.992187zm0 0" fill="#263238" fill-opacity="1" data-original-color="#263238ff" stroke="none" stroke-opacity="1"/><path d="m498.007812 352.609375-34.589843-256c-1.601563-11.847656-11.832031-20.785156-23.785157-20.785156h-285.402343c-2.207031 0-4 1.792969-4 4 0 2.210937 1.792969 4 4 4h285.410156c7.96875 0 14.792969 5.960937 15.855469 13.859375l34.59375 256c.613281 4.574218-.777344 9.199218-3.816406 12.671875-3.042969 3.46875-7.433594 5.46875-12.050782 5.46875h-177.109375c-2.210937 0-4 1.792969-4 4 0 2.210937 1.789063 4 4 4h177.117188c6.921875 0 13.503906-2.992188 18.066406-8.199219 4.558594-5.214844 6.648437-12.144531 5.710937-19.015625zm0 0" fill="#263238" fill-opacity="1" data-original-color="#263238ff" stroke="none" stroke-opacity="1"/><path d="m139.496094 76.035156-11.609375-3.875c-4.6875-1.566406-8.421875-5.300781-9.984375-9.992187l-3.871094-11.605469c-1.09375-3.273438-6.496094-3.257812-7.589844 0l-3.863281 11.605469c-1.5625 4.699219-5.296875 8.425781-9.992187 9.992187l-11.609376 3.875c-1.632812.542969-2.738281 2.070313-2.738281 3.789063 0 1.722656 1.105469 3.25 2.738281 3.792969l11.609376 3.871093c4.695312 1.5625 8.429687 5.296875 9.992187 9.992188l3.863281 11.609375c.542969 1.632812 2.070313 2.734375 3.796875 2.734375 1.722657 0 3.25-1.101563 3.800781-2.734375l3.875-11.609375c1.558594-4.6875 5.292969-8.421875 9.980469-9.992188l11.609375-3.871093c1.632813-.542969 2.734375-2.070313 2.734375-3.792969 0-1.71875-1.109375-3.246094-2.742187-3.789063zm-14.144532 3.871094c-7.0625 2.351562-12.6875 7.984375-15.046874 15.046875l-.082032.234375-.070312-.234375c-2.359375-7.070313-7.984375-12.695313-15.054688-15.046875l-.226562-.082031.226562-.070313c7.070313-2.351562 12.695313-7.984375 15.054688-15.046875l.070312-.234375.082032.234375c2.359374 7.0625 7.984374 12.6875 15.046874 15.046875l.226563.078125zm0 0" fill="#263238" fill-opacity="1" data-original-color="#263238ff" stroke="none" stroke-opacity="1"/><path d="m207.496094 28.035156-11.609375-3.875c-4.6875-1.566406-8.421875-5.300781-9.984375-9.992187l-3.871094-11.605469c-1.101562-3.273438-6.503906-3.257812-7.589844 0l-3.863281 11.605469c-1.5625 4.699219-5.296875 8.425781-9.992187 9.992187l-11.609376 3.875c-1.632812.542969-2.738281 2.070313-2.738281 3.789063 0 1.722656 1.105469 3.25 2.738281 3.792969l11.609376 3.871093c4.695312 1.5625 8.429687 5.296875 9.992187 9.992188l3.863281 11.609375c.542969 1.632812 2.070313 2.734375 3.796875 2.734375 1.722657 0 3.25-1.101563 3.800781-2.734375l3.875-11.609375c1.558594-4.6875 5.292969-8.421875 9.980469-9.992188l11.609375-3.871093c1.632813-.542969 2.734375-2.070313 2.734375-3.792969 0-1.71875-1.109375-3.246094-2.742187-3.789063zm-14.144532 3.871094c-7.0625 2.351562-12.6875 7.984375-15.046874 15.046875l-.082032.234375-.070312-.234375c-2.359375-7.070313-7.984375-12.695313-15.054688-15.046875l-.226562-.082031.226562-.070313c7.070313-2.351562 12.695313-7.984375 15.054688-15.046875l.070312-.234375.082032.234375c2.359374 7.0625 7.984374 12.6875 15.046874 15.046875l.226563.078125zm0 0" fill="#263238" fill-opacity="1" data-original-color="#263238ff" stroke="none" stroke-opacity="1"/><path d="m249.113281 169.335938c-52.074219 0-101.875 15.953124-144.023437 46.128906-1.800782 1.289062-2.210938 3.785156-.921875 5.585937.785156 1.085938 2.007812 1.671875 3.25 1.671875.8125 0 1.621093-.242187 2.328125-.746094 40.78125-29.199218 88.972656-44.628906 139.367187-44.628906 2.207031 0 4-1.792968 4-4 0-2.210937-1.792969-4.011718-4-4.011718zm0 0" fill="#263238" fill-opacity="1" data-original-color="#263238ff" stroke="none" stroke-opacity="1"/><path d="m453.113281 419.824219h-408c-8.824219 0-16 7.175781-16 16s7.175781 16 16 16h408c8.824219 0 16-7.175781 16-16s-7.175781-16-16-16zm0 24h-408c-4.417969 0-8-3.589844-8-8 0-4.40625 3.582031-8 8-8h408c4.414063 0 8 3.59375 8 8 0 4.410156-3.585937 8-8 8zm0 0" fill="#263238" fill-opacity="1" data-original-color="#263238ff" stroke="none" stroke-opacity="1"/><path d="m273.113281 169.335938h-8c-2.210937 0-4 1.792968-4 4 0 2.210937 1.789063 4 4 4h8c2.207031 0 4-1.789063 4-4 0-2.207032-1.792969-4-4-4zm0 0" fill="#263238" fill-opacity="1" data-original-color="#263238ff" stroke="none" stroke-opacity="1"/></g></g></svg>