<svg height="300" viewBox="-16 0 461 461.026" width="300" xmlns="http://www.w3.org/2000/svg" version="1.1" xmlns:xlink="http://www.w3.org/1999/xlink" xmlns:svgjs="http://svgjs.dev/svgjs"><g transform="matrix(1,0,0,1,0,0)"><path d="m425.445312 157.65625-8.261718-34.863281-68.351563 68.351562-62.226562-16.964843-16.96875-62.226563 68.351562-68.351563-34.863281-8.261718c-6.75-1.601563-13.847656.414062-18.757812 5.316406l-60.265626 60.257812c-5.070312 5.070313-7.039062 12.480469-5.152343 19.40625l7.808593 28.632813c3.777344 13.847656-.160156 28.664063-10.304687 38.808594l-141.664063 141.664062c-21.046874-2.246093-42.992187 5.871094-57.488281 24.464844-17.878906 22.917969-17.671875 56.160156.464844 78.878906 24.273437 30.390625 68.730469 32.234375 95.441406 5.519531 14.328125-14.328124 20.398438-33.757812 18.296875-52.4375l141.511719-141.511718c10.152344-10.152344 24.957031-14.082032 38.804687-10.304688l28.632813 7.808594c6.929687 1.886719 14.328125-.082031 19.410156-5.152344l60.261719-60.265625c4.914062-4.917969 6.929688-12.015625 5.320312-18.769531zm-334.863281 258c-12.496093 12.496094-32.761719 12.496094-45.253906 0-12.496094-12.496094-12.496094-32.757812 0-45.253906 12.492187-12.496094 32.757813-12.496094 45.253906 0 12.496094 12.496094 12.496094 32.757812 0 45.253906zm0 0" fill="#e3a547" fill-opacity="1" data-original-color="#ffd740ff" stroke="none" stroke-opacity="1"/><g fill="#263238"><path d="m67.925781 461.027344c-1.261719 0-2.519531-.035156-3.792969-.105469-19.574218-1.097656-37.160156-10.207031-49.496093-25.664063-19.308594-24.183593-19.519531-59.449218-.496094-83.832031 14.257813-18.28125 36.242187-28.007812 59.144531-26.160156l140.335938-140.335937c9.113281-9.113282 12.664062-22.496094 9.273437-34.9375l-7.808593-28.628907c-2.265626-8.28125.105468-17.203125 6.183593-23.28125l60.265625-60.265625c5.832032-5.847656 14.464844-8.300781 22.503906-6.382812l34.863282 8.273437c1.40625.335938 2.527344 1.40625 2.929687 2.800781.398438 1.390626.007813 2.894532-1.019531 3.917969l-66.710938 66.710938 15.761719 57.785156 57.78125 15.761719 66.714844-66.714844c1.015625-1.023438 2.511719-1.421875 3.917969-1.015625 1.394531.394531 2.472656 1.511719 2.800781 2.929687l8.265625 34.863282c1.933594 8.160156-.449219 16.574218-6.378906 22.503906l-60.261719 60.273438c-6.074219 6.070312-15.015625 8.4375-23.289063 6.183593l-28.632812-7.808593c-12.4375-3.382813-25.816406.160156-34.925781 9.273437l-140.183594 140.15625c1.6875 20.042969-5.410156 39.554687-19.640625 53.785156-12.769531 12.769531-30.121094 19.914063-48.105469 19.914063zm-.046875-127.976563c-18.457031 0-35.832031 8.429688-47.425781 23.296875-16.773437 21.503906-16.582031 52.589844.441406 73.917969 10.902344 13.65625 26.414063 21.703125 43.695313 22.664063 17.015625.929687 33.726562-5.421876 45.792968-17.480469 12.960938-12.960938 19.207032-30.878907 17.152344-49.167969-.136718-1.207031.285156-2.414062 1.152344-3.269531l141.503906-141.503907c11.136719-11.128906 27.511719-15.480468 42.6875-11.335937l28.632813 7.804687c5.542969 1.519532 11.476562-.070312 15.527343-4.117187l60.261719-60.273437c3.953125-3.953126 5.546875-9.558594 4.257813-15l-6.617188-27.886719-63.289062 63.285156c-1.015625 1.019531-2.492188 1.402344-3.878906 1.035156l-62.222657-16.96875c-1.367187-.367187-2.441406-1.441406-2.808593-2.808593l-16.96875-62.222657c-.375-1.386719.015624-2.867187 1.03125-3.882812l63.289062-63.285157-27.886719-6.617187c-5.375-1.28125-11.113281.351563-15.007812 4.253906l-60.265625 60.265625c-4.046875 4.046875-5.632813 10-4.121094 15.519532l7.808594 28.640624c4.144531 15.191407-.199219 31.550782-11.335938 42.6875l-141.664062 141.648438c-.855469.847656-2.03125 1.273438-3.253906 1.152344-2.175782-.230469-4.34375-.351563-6.488282-.351563zm.078125 95.960938c-9.214843 0-18.4375-3.503907-25.453125-10.523438-14.035156-14.03125-14.035156-36.871093 0-50.910156 14.039063-14.03125 36.871094-14.03125 50.910156 0 14.03125 14.03125 14.03125 36.871094 0 50.910156-7.023437 7.007813-16.238281 10.523438-25.457031 10.523438zm0-63.96875c-7.167969 0-14.335937 2.726562-19.796875 8.183593-10.921875 10.917969-10.921875 28.679688 0 39.597657 10.910156 10.914062 28.679688 10.914062 39.597656 0 10.921876-10.917969 10.921876-28.679688 0-39.597657-5.457031-5.457031-12.632812-8.183593-19.800781-8.183593zm22.625 50.613281h.082031zm0 0" fill="#3e2807" fill-opacity="1" data-original-color="#263238ff" stroke="none" stroke-opacity="1"/><path d="m147.054688 331.371094c-3.074219 0-6.144532-1.167969-8.488282-3.503906l-5.65625-5.65625c-4.679687-4.679688-4.679687-12.296876 0-16.976563l73.535156-73.535156c4.679688-4.671875 12.296876-4.671875 16.96875 0l5.65625 5.664062c2.265626 2.261719 3.511719 5.277344 3.511719 8.488281 0 3.199219-1.246093 6.214844-3.511719 8.488282l-73.535156 73.535156c-2.335937 2.328125-5.402344 3.496094-8.480468 3.496094zm67.886718-95.183594c-1.023437 0-2.046875.390625-2.832031 1.167969l-73.535156 73.535156c-1.558594 1.558594-1.558594 4.09375 0 5.664063l5.65625 5.65625c1.558593 1.558593 4.097656 1.558593 5.65625 0l73.535156-73.535157c.753906-.761719 1.167969-1.761719 1.167969-2.832031 0-1.074219-.414063-2.074219-1.167969-2.824219l-5.65625-5.664062c-.777344-.777344-1.800781-1.167969-2.824219-1.167969zm0 0" fill="#3e2807" fill-opacity="1" data-original-color="#263238ff" stroke="none" stroke-opacity="1"/><path d="m365.796875 178.179688c-.351563 0-.703125-.050782-1.046875-.144532l-62.222656-16.976562c-1.367188-.375-2.441406-1.441406-2.808594-2.808594l-16.976562-62.222656c-.375-1.386719.015624-2.867188 1.03125-3.882813l45.730468-45.71875c1.015625-1.015625 2.503906-1.398437 3.878906-1.03125l62.222657 16.96875c1.367187.367188 2.441406 1.4375 2.808593 2.808594l16.96875 62.222656c.375 1.382813-.015624 2.863281-1.03125 3.878907l-45.730468 45.730468c-.757813.765625-1.773438 1.175782-2.824219 1.175782zm-58.957031-24.234376 57.773437 15.761719 42.449219-42.449219-15.761719-57.785156-57.78125-15.757812-42.449219 42.4375zm0 0" fill="#3e2807" fill-opacity="1" data-original-color="#263238ff" stroke="none" stroke-opacity="1"/><path d="m327.847656 136.929688c-1.027344 0-2.050781-.390626-2.832031-1.167969-1.5625-1.558594-1.5625-4.097657 0-5.65625l42.421875-42.429688c1.5625-1.5625 4.097656-1.5625 5.65625 0 1.558594 1.558594 1.558594 4.09375 0 5.652344l-42.421875 42.433594c-.777344.777343-1.800781 1.167969-2.824219 1.167969zm0 0" fill="#3e2807" fill-opacity="1" data-original-color="#263238ff" stroke="none" stroke-opacity="1"/><path d="m370.277344 136.929688c-1.023438 0-2.046875-.390626-2.832032-1.167969l-42.421874-42.433594c-1.5625-1.558594-1.5625-4.09375 0-5.652344 1.558593-1.5625 4.09375-1.5625 5.65625 0l42.421874 42.429688c1.5625 1.558593 1.5625 4.097656 0 5.65625-.773437.777343-1.800781 1.167969-2.824218 1.167969zm0 0" fill="#3e2807" fill-opacity="1" data-original-color="#263238ff" stroke="none" stroke-opacity="1"/><path d="m159.765625 225.777344c-1.023437 0-2.046875-.390625-2.832031-1.167969l-84.71875-84.71875c-.511719-.503906-1.160156-.871094-1.855469-1.046875l-17.617187-4.410156c-2.769532-.6875-5.199219-2.34375-6.855469-4.664063l-36.777344-51.496093c-3.421875-4.792969-2.886719-11.289063 1.28125-15.457032l21.527344-21.527344c4.160156-4.167968 10.65625-4.710937 15.464843-1.277343l51.488282 36.773437c2.320312 1.648438 3.976562 4.082032 4.664062 6.847656l4.40625 17.625c.175782.703126.542969 1.34375 1.058594 1.855469l84.453125 84.457031c1.5625 1.558594 1.5625 4.09375 0 5.65625-1.558594 1.558594-4.09375 1.558594-5.65625 0l-84.460937-84.449218c-1.539063-1.535156-2.632813-3.464844-3.160157-5.574219l-4.410156-17.625c-.230469-.921875-.785156-1.726563-1.550781-2.28125l-51.488282-36.78125c-1.59375-1.144531-3.769531-.960937-5.152343.421875l-21.527344 21.535156c-1.394531 1.394532-1.570313 3.554688-.433594 5.152344l36.777344 51.496094c.550781.769531 1.359375 1.328125 2.289063 1.554687l17.613281 4.40625c2.105469.519531 4.035156 1.617188 5.578125 3.152344l84.71875 84.71875c1.558594 1.5625 1.558594 4.097656 0 5.65625-.777344.777344-1.800782 1.167969-2.824219 1.167969zm0 0" fill="#3e2807" fill-opacity="1" data-original-color="#263238ff" stroke="none" stroke-opacity="1"/></g><path d="m285.628906 254.304688-62.222656 62.226562c-3.128906 3.125-3.128906 8.191406 0 11.3125l5.65625 5.652344c3.128906 3.128906 8.191406 3.128906 11.3125 0l2.832031-2.832032 115.960938 115.96875c7.804687 7.808594 20.46875 7.808594 28.285156 0l28.289063-28.285156c7.808593-7.808594 7.808593-20.472656 0-28.289062l-115.976563-115.953125 2.832031-2.832031c3.128906-3.128907 3.128906-8.191407 0-11.3125l-5.65625-5.65625c-3.128906-3.125-8.191406-3.125-11.3125 0zm0 0" fill="#e3a547" fill-opacity="1" data-original-color="#ff5252ff" stroke="none" stroke-opacity="1"/><path d="m373.308594 456.496094c-6.40625 0-12.429688-2.492188-16.964844-7.03125l-113.144531-113.136719c-4.527344 4.539063-12.441407 4.53125-16.976563 0l-5.65625-5.652344c-4.671875-4.683593-4.671875-12.289062 0-16.96875l62.230469-62.226562c4.53125-4.535157 12.441406-4.527344 16.976563 0l5.65625 5.65625c4.671874 4.679687 4.671874 12.296875 0 16.976562l113.136718 113.136719c9.351563 9.351562 9.351563 24.585938 0 33.945312l-28.289062 28.277344c-4.535156 4.53125-10.558594 7.023438-16.96875 7.023438zm-130.109375-129.820313c1.0625 0 2.078125.421875 2.832031 1.167969l115.96875 115.964844c6.246094 6.242187 16.390625 6.234375 22.628906 0l28.289063-28.277344c6.242187-6.242188 6.242187-16.394531 0-22.632812l-115.976563-115.96875c-.75-.75-1.167968-1.769532-1.167968-2.832032s.425781-2.078125 1.167968-2.832031l2.832032-2.832031c1.5625-1.550782 1.5625-4.09375 0-5.65625l-5.65625-5.65625c-1.503907-1.503906-4.136719-1.503906-5.65625 0l-62.222657 62.226562c-1.550781 1.558594-1.550781 4.09375 0 5.65625l5.65625 5.652344c1.503907 1.523438 4.144531 1.515625 5.65625 0l2.832031-2.832031c.742188-.734375 1.757813-1.148438 2.816407-1.148438zm0 0" fill="#3e2807" fill-opacity="1" data-original-color="#263238ff" stroke="none" stroke-opacity="1"/><path d="m373.308594 420.203125c-4.09375 0-8.191406-1.5625-11.308594-4.671875l-84.859375-84.855469c-3.023437-3.027343-4.6875-7.042969-4.6875-11.3125 0-4.28125 1.664063-8.296875 4.6875-11.3125 6.050781-6.046875 16.585937-6.039062 22.625 0l84.855469 84.847657c6.234375 6.238281 6.234375 16.390624 0 22.632812-3.117188 3.109375-7.214844 4.671875-11.3125 4.671875zm8.488281-7.503906h.082031zm-93.34375-101.34375c-2.136719 0-4.144531.832031-5.65625 2.34375s-2.34375 3.519531-2.34375 5.65625c0 2.132812.832031 4.140625 2.34375 5.65625l84.847656 84.855469c3.121094 3.117187 8.203125 3.109374 11.320313 0 3.121094-3.121094 3.121094-8.191407 0-11.320313l-84.855469-84.847656c-1.511719-1.511719-3.519531-2.34375-5.65625-2.34375zm0 0" fill="#3e2807" fill-opacity="1" data-original-color="#263238ff" stroke="none" stroke-opacity="1"/><path d="m270.101562 13.65625c-1.023437 0-2.046874-.390625-2.832031-1.167969-1.558593-1.558593-1.558593-4.09375 0-5.652343l5.65625-5.664063c1.558594-1.5625 4.097657-1.5625 5.65625 0 1.558594 1.558594 1.558594 4.09375 0 5.652344l-5.65625 5.664062c-.777343.777344-1.800781 1.167969-2.824219 1.167969zm0 0" fill="#3e2807" fill-opacity="1" data-original-color="#263238ff" stroke="none" stroke-opacity="1"/><path d="m190.910156 92.851562c-1.023437 0-2.046875-.394531-2.832031-1.167968-1.558594-1.5625-1.558594-4.097656 0-5.65625l67.878906-67.882813c1.5625-1.558593 4.097657-1.558593 5.65625 0 1.5625 1.5625 1.5625 4.097657 0 5.65625l-67.878906 67.882813c-.777344.78125-1.800781 1.167968-2.824219 1.167968zm0 0" fill="#3e2807" fill-opacity="1" data-original-color="#263238ff" stroke="none" stroke-opacity="1"/><path d="m137.175781 452.066406c-1.027343 0-2.050781-.390625-2.832031-1.167968-1.5625-1.558594-1.5625-4.097657 0-5.65625l5.65625-5.664063c1.558594-1.558594 4.09375-1.558594 5.652344 0 1.5625 1.558594 1.5625 4.097656 0 5.65625l-5.652344 5.664063c-.785156.777343-1.808594 1.167968-2.824219 1.167968zm0 0" fill="#3e2807" fill-opacity="1" data-original-color="#263238ff" stroke="none" stroke-opacity="1"/><path d="m154.140625 435.089844c-1.023437 0-2.046875-.390625-2.832031-1.167969-1.558594-1.558594-1.558594-4.097656 0-5.65625l67.882812-67.878906c1.558594-1.5625 4.09375-1.5625 5.65625 0 1.558594 1.558593 1.558594 4.09375 0 5.65625l-67.882812 67.878906c-.78125.777344-1.796875 1.167969-2.824219 1.167969zm0 0" fill="#3e2807" fill-opacity="1" data-original-color="#263238ff" stroke="none" stroke-opacity="1"/></g></svg>